G04 EAGLE Gerber RS-274X export*
G75*
%MOMM*%
%FSLAX34Y34*%
%LPD*%
%INSilkscreen Bottom*%
%IPPOS*%
%AMOC8*
5,1,8,0,0,1.08239X$1,22.5*%
G01*
G04 Define Apertures*
%ADD10C,0.508000*%
D10*
X-196135Y88900D02*
X-196257Y88898D01*
X-196379Y88892D01*
X-196501Y88882D01*
X-196622Y88869D01*
X-196743Y88851D01*
X-196863Y88830D01*
X-196983Y88804D01*
X-197101Y88775D01*
X-197219Y88743D01*
X-197336Y88706D01*
X-197451Y88666D01*
X-197565Y88622D01*
X-197677Y88574D01*
X-197788Y88523D01*
X-197897Y88468D01*
X-198005Y88410D01*
X-198110Y88348D01*
X-198213Y88283D01*
X-198315Y88215D01*
X-198414Y88143D01*
X-198510Y88069D01*
X-198605Y87991D01*
X-198696Y87910D01*
X-198786Y87827D01*
X-198872Y87741D01*
X-198955Y87651D01*
X-199036Y87560D01*
X-199114Y87465D01*
X-199188Y87369D01*
X-199260Y87270D01*
X-199328Y87168D01*
X-199393Y87065D01*
X-199455Y86960D01*
X-199513Y86852D01*
X-199568Y86743D01*
X-199619Y86632D01*
X-199667Y86520D01*
X-199711Y86406D01*
X-199751Y86291D01*
X-199788Y86174D01*
X-199820Y86056D01*
X-199849Y85938D01*
X-199875Y85818D01*
X-199896Y85698D01*
X-199914Y85577D01*
X-199927Y85456D01*
X-199937Y85334D01*
X-199943Y85212D01*
X-199945Y85090D01*
X-199943Y84968D01*
X-199937Y84846D01*
X-199927Y84724D01*
X-199914Y84603D01*
X-199896Y84482D01*
X-199875Y84362D01*
X-199849Y84242D01*
X-199820Y84124D01*
X-199788Y84006D01*
X-199751Y83889D01*
X-199711Y83774D01*
X-199667Y83660D01*
X-199619Y83548D01*
X-199568Y83437D01*
X-199513Y83328D01*
X-199455Y83220D01*
X-199393Y83115D01*
X-199328Y83012D01*
X-199260Y82910D01*
X-199188Y82811D01*
X-199114Y82715D01*
X-199036Y82620D01*
X-198955Y82529D01*
X-198872Y82439D01*
X-198786Y82353D01*
X-198696Y82270D01*
X-198605Y82189D01*
X-198510Y82111D01*
X-198414Y82037D01*
X-198315Y81965D01*
X-198213Y81897D01*
X-198110Y81832D01*
X-198005Y81770D01*
X-197897Y81712D01*
X-197788Y81657D01*
X-197677Y81606D01*
X-197565Y81558D01*
X-197451Y81514D01*
X-197336Y81474D01*
X-197219Y81437D01*
X-197101Y81405D01*
X-196983Y81376D01*
X-196863Y81350D01*
X-196743Y81329D01*
X-196622Y81311D01*
X-196501Y81298D01*
X-196379Y81288D01*
X-196257Y81282D01*
X-196135Y81280D01*
X-196013Y81282D01*
X-195891Y81288D01*
X-195769Y81298D01*
X-195648Y81311D01*
X-195527Y81329D01*
X-195407Y81350D01*
X-195287Y81376D01*
X-195169Y81405D01*
X-195051Y81437D01*
X-194934Y81474D01*
X-194819Y81514D01*
X-194705Y81558D01*
X-194593Y81606D01*
X-194482Y81657D01*
X-194373Y81712D01*
X-194265Y81770D01*
X-194160Y81832D01*
X-194057Y81897D01*
X-193955Y81965D01*
X-193856Y82037D01*
X-193760Y82111D01*
X-193665Y82189D01*
X-193574Y82270D01*
X-193484Y82353D01*
X-193398Y82439D01*
X-193315Y82529D01*
X-193234Y82620D01*
X-193156Y82715D01*
X-193082Y82811D01*
X-193010Y82910D01*
X-192942Y83012D01*
X-192877Y83115D01*
X-192815Y83220D01*
X-192757Y83328D01*
X-192702Y83437D01*
X-192651Y83548D01*
X-192603Y83660D01*
X-192559Y83774D01*
X-192519Y83889D01*
X-192482Y84006D01*
X-192450Y84124D01*
X-192421Y84242D01*
X-192395Y84362D01*
X-192374Y84482D01*
X-192356Y84603D01*
X-192343Y84724D01*
X-192333Y84846D01*
X-192327Y84968D01*
X-192325Y85090D01*
X-192327Y85212D01*
X-192333Y85334D01*
X-192343Y85456D01*
X-192356Y85577D01*
X-192374Y85698D01*
X-192395Y85818D01*
X-192421Y85938D01*
X-192450Y86056D01*
X-192482Y86174D01*
X-192519Y86291D01*
X-192559Y86406D01*
X-192603Y86520D01*
X-192651Y86632D01*
X-192702Y86743D01*
X-192757Y86852D01*
X-192815Y86960D01*
X-192877Y87065D01*
X-192942Y87168D01*
X-193010Y87270D01*
X-193082Y87369D01*
X-193156Y87465D01*
X-193234Y87560D01*
X-193315Y87651D01*
X-193398Y87741D01*
X-193484Y87827D01*
X-193574Y87910D01*
X-193665Y87991D01*
X-193760Y88069D01*
X-193856Y88143D01*
X-193955Y88215D01*
X-194057Y88283D01*
X-194160Y88348D01*
X-194265Y88410D01*
X-194373Y88468D01*
X-194482Y88523D01*
X-194593Y88574D01*
X-194705Y88622D01*
X-194819Y88666D01*
X-194934Y88706D01*
X-195051Y88743D01*
X-195169Y88775D01*
X-195287Y88804D01*
X-195407Y88830D01*
X-195527Y88851D01*
X-195648Y88869D01*
X-195769Y88882D01*
X-195891Y88892D01*
X-196013Y88898D01*
X-196135Y88900D01*
M02*
