G04 EAGLE Gerber RS-274X export*
G75*
%MOMM*%
%FSLAX34Y34*%
%LPD*%
%INSilkscreen Top*%
%IPPOS*%
%AMOC8*
5,1,8,0,0,1.08239X$1,22.5*%
G01*
G04 Define Apertures*
%ADD10C,0.152400*%
%ADD11C,0.127000*%
%ADD12C,0.200000*%
%ADD13C,0.508000*%
G36*
X-221488Y-224864D02*
X-235312Y-224864D01*
X-235312Y-219841D01*
X-235299Y-219251D01*
X-235260Y-218700D01*
X-235194Y-218187D01*
X-235103Y-217712D01*
X-234985Y-217274D01*
X-234840Y-216875D01*
X-234670Y-216514D01*
X-234473Y-216191D01*
X-234251Y-215906D01*
X-234002Y-215659D01*
X-233726Y-215450D01*
X-233425Y-215278D01*
X-233097Y-215145D01*
X-232743Y-215050D01*
X-232363Y-214993D01*
X-231957Y-214974D01*
X-231656Y-214985D01*
X-231368Y-215017D01*
X-231092Y-215071D01*
X-230828Y-215146D01*
X-230577Y-215243D01*
X-230338Y-215361D01*
X-230111Y-215500D01*
X-229896Y-215661D01*
X-229696Y-215842D01*
X-229594Y-215953D01*
X-229514Y-216040D01*
X-229348Y-216256D01*
X-229200Y-216490D01*
X-229069Y-216742D01*
X-228954Y-217011D01*
X-228858Y-217299D01*
X-228778Y-217604D01*
X-228718Y-217204D01*
X-228635Y-216827D01*
X-228531Y-216474D01*
X-228404Y-216144D01*
X-228255Y-215838D01*
X-228083Y-215556D01*
X-227890Y-215298D01*
X-227790Y-215189D01*
X-227674Y-215063D01*
X-227440Y-214853D01*
X-227191Y-214672D01*
X-226927Y-214519D01*
X-226648Y-214393D01*
X-226354Y-214295D01*
X-226045Y-214226D01*
X-225722Y-214184D01*
X-225383Y-214170D01*
X-224935Y-214191D01*
X-224512Y-214254D01*
X-224115Y-214359D01*
X-223743Y-214506D01*
X-223397Y-214695D01*
X-223077Y-214926D01*
X-222782Y-215199D01*
X-222513Y-215514D01*
X-222273Y-215866D01*
X-222065Y-216252D01*
X-221889Y-216670D01*
X-221744Y-217121D01*
X-221632Y-217604D01*
X-221552Y-218121D01*
X-221504Y-218670D01*
X-221488Y-219252D01*
X-221488Y-224864D01*
G37*
%LPC*%
G36*
X-222989Y-222990D02*
X-222989Y-219350D01*
X-222999Y-218936D01*
X-223029Y-218550D01*
X-223079Y-218194D01*
X-223149Y-217866D01*
X-223238Y-217568D01*
X-223348Y-217299D01*
X-223477Y-217059D01*
X-223627Y-216848D01*
X-223796Y-216664D01*
X-223985Y-216505D01*
X-224193Y-216370D01*
X-224422Y-216260D01*
X-224669Y-216174D01*
X-224937Y-216112D01*
X-225224Y-216076D01*
X-225530Y-216063D01*
X-225826Y-216077D01*
X-226103Y-216117D01*
X-226361Y-216184D01*
X-226599Y-216278D01*
X-226819Y-216399D01*
X-227019Y-216546D01*
X-227200Y-216721D01*
X-227363Y-216922D01*
X-227506Y-217150D01*
X-227630Y-217405D01*
X-227735Y-217686D01*
X-227821Y-217995D01*
X-227887Y-218330D01*
X-227935Y-218693D01*
X-227964Y-219082D01*
X-227973Y-219497D01*
X-227973Y-222990D01*
X-222989Y-222990D01*
G37*
G36*
X-229435Y-222990D02*
X-229435Y-219841D01*
X-229444Y-219477D01*
X-229470Y-219138D01*
X-229515Y-218822D01*
X-229576Y-218530D01*
X-229656Y-218261D01*
X-229753Y-218017D01*
X-229867Y-217796D01*
X-229999Y-217599D01*
X-230150Y-217425D01*
X-230319Y-217275D01*
X-230507Y-217147D01*
X-230714Y-217043D01*
X-230940Y-216962D01*
X-231185Y-216904D01*
X-231449Y-216870D01*
X-231731Y-216858D01*
X-232001Y-216870D01*
X-232250Y-216906D01*
X-232480Y-216966D01*
X-232690Y-217049D01*
X-232880Y-217157D01*
X-233050Y-217289D01*
X-233200Y-217444D01*
X-233330Y-217623D01*
X-233443Y-217825D01*
X-233541Y-218049D01*
X-233623Y-218294D01*
X-233691Y-218560D01*
X-233744Y-218848D01*
X-233781Y-219158D01*
X-233804Y-219488D01*
X-233811Y-219841D01*
X-233811Y-222990D01*
X-229435Y-222990D01*
G37*
%LPD*%
G36*
X-221488Y-250552D02*
X-235312Y-250552D01*
X-235312Y-244047D01*
X-235296Y-243480D01*
X-235247Y-242946D01*
X-235165Y-242445D01*
X-235051Y-241978D01*
X-234904Y-241544D01*
X-234725Y-241143D01*
X-234512Y-240775D01*
X-234267Y-240441D01*
X-233993Y-240143D01*
X-233694Y-239885D01*
X-233368Y-239667D01*
X-233018Y-239488D01*
X-232641Y-239349D01*
X-232239Y-239250D01*
X-231812Y-239190D01*
X-231358Y-239170D01*
X-230981Y-239185D01*
X-230619Y-239227D01*
X-230272Y-239297D01*
X-229941Y-239395D01*
X-229624Y-239521D01*
X-229324Y-239675D01*
X-229038Y-239858D01*
X-228768Y-240068D01*
X-228518Y-240303D01*
X-228292Y-240560D01*
X-228090Y-240837D01*
X-228016Y-240962D01*
X-227912Y-241136D01*
X-227759Y-241457D01*
X-227629Y-241798D01*
X-227524Y-242161D01*
X-227444Y-242546D01*
X-224908Y-240875D01*
X-221488Y-238621D01*
X-221488Y-240780D01*
X-227228Y-244371D01*
X-227228Y-248678D01*
X-221488Y-248678D01*
X-221488Y-250552D01*
G37*
%LPC*%
G36*
X-228709Y-248678D02*
X-228709Y-244155D01*
X-228720Y-243795D01*
X-228752Y-243456D01*
X-228806Y-243138D01*
X-228882Y-242841D01*
X-228979Y-242565D01*
X-229098Y-242310D01*
X-229239Y-242077D01*
X-229401Y-241864D01*
X-229582Y-241674D01*
X-229781Y-241510D01*
X-229998Y-241370D01*
X-230231Y-241257D01*
X-230482Y-241168D01*
X-230750Y-241105D01*
X-231036Y-241067D01*
X-231339Y-241054D01*
X-231631Y-241067D01*
X-231906Y-241105D01*
X-232163Y-241169D01*
X-232402Y-241259D01*
X-232623Y-241374D01*
X-232826Y-241515D01*
X-233011Y-241682D01*
X-233178Y-241874D01*
X-233327Y-242090D01*
X-233455Y-242328D01*
X-233564Y-242589D01*
X-233653Y-242873D01*
X-233722Y-243179D01*
X-233772Y-243508D01*
X-233801Y-243859D01*
X-233811Y-244233D01*
X-233811Y-248678D01*
X-228709Y-248678D01*
G37*
%LPD*%
G36*
X-221488Y-263958D02*
X-235312Y-263958D01*
X-235312Y-253470D01*
X-233782Y-253470D01*
X-233782Y-262084D01*
X-229347Y-262084D01*
X-229347Y-254058D01*
X-227836Y-254058D01*
X-227836Y-262084D01*
X-223019Y-262084D01*
X-223019Y-253067D01*
X-221488Y-253067D01*
X-221488Y-263958D01*
G37*
G36*
X-224804Y-290381D02*
X-225167Y-288566D01*
X-224866Y-288477D01*
X-224586Y-288365D01*
X-224326Y-288231D01*
X-224087Y-288076D01*
X-223868Y-287898D01*
X-223671Y-287698D01*
X-223494Y-287476D01*
X-223337Y-287232D01*
X-223201Y-286965D01*
X-223082Y-286676D01*
X-222982Y-286363D01*
X-222900Y-286028D01*
X-222836Y-285669D01*
X-222790Y-285287D01*
X-222763Y-284883D01*
X-222754Y-284455D01*
X-222763Y-284014D01*
X-222793Y-283599D01*
X-222841Y-283210D01*
X-222909Y-282847D01*
X-222997Y-282510D01*
X-223104Y-282199D01*
X-223231Y-281914D01*
X-223377Y-281654D01*
X-223542Y-281423D01*
X-223725Y-281223D01*
X-223926Y-281053D01*
X-224146Y-280915D01*
X-224384Y-280807D01*
X-224640Y-280730D01*
X-224914Y-280683D01*
X-225207Y-280668D01*
X-225529Y-280687D01*
X-225820Y-280745D01*
X-226079Y-280842D01*
X-226305Y-280977D01*
X-226507Y-281147D01*
X-226690Y-281349D01*
X-226855Y-281581D01*
X-227002Y-281845D01*
X-227134Y-282139D01*
X-227255Y-282459D01*
X-227364Y-282806D01*
X-227463Y-283180D01*
X-227865Y-284897D01*
X-228047Y-285667D01*
X-228228Y-286338D01*
X-228410Y-286910D01*
X-228591Y-287384D01*
X-228778Y-287786D01*
X-228975Y-288143D01*
X-229183Y-288456D01*
X-229401Y-288723D01*
X-229634Y-288954D01*
X-229885Y-289156D01*
X-230156Y-289329D01*
X-230446Y-289474D01*
X-230756Y-289588D01*
X-231088Y-289669D01*
X-231443Y-289718D01*
X-231819Y-289734D01*
X-232251Y-289713D01*
X-232656Y-289649D01*
X-233037Y-289543D01*
X-233392Y-289394D01*
X-233721Y-289203D01*
X-234025Y-288969D01*
X-234304Y-288693D01*
X-234557Y-288375D01*
X-234782Y-288017D01*
X-234977Y-287622D01*
X-235143Y-287191D01*
X-235278Y-286723D01*
X-235383Y-286218D01*
X-235458Y-285677D01*
X-235503Y-285099D01*
X-235518Y-284485D01*
X-235507Y-283913D01*
X-235473Y-283377D01*
X-235417Y-282875D01*
X-235338Y-282407D01*
X-235237Y-281974D01*
X-235113Y-281576D01*
X-234966Y-281213D01*
X-234797Y-280884D01*
X-234601Y-280584D01*
X-234373Y-280307D01*
X-234114Y-280054D01*
X-233822Y-279824D01*
X-233499Y-279618D01*
X-233144Y-279434D01*
X-232758Y-279274D01*
X-232339Y-279137D01*
X-232016Y-280982D01*
X-232281Y-281067D01*
X-232527Y-281168D01*
X-232755Y-281287D01*
X-232964Y-281424D01*
X-233154Y-281577D01*
X-233325Y-281747D01*
X-233477Y-281935D01*
X-233610Y-282140D01*
X-233726Y-282363D01*
X-233827Y-282608D01*
X-233912Y-282872D01*
X-233982Y-283158D01*
X-234036Y-283464D01*
X-234074Y-283790D01*
X-234098Y-284137D01*
X-234105Y-284504D01*
X-234097Y-284907D01*
X-234071Y-285284D01*
X-234028Y-285638D01*
X-233968Y-285966D01*
X-233891Y-286270D01*
X-233796Y-286550D01*
X-233685Y-286805D01*
X-233556Y-287036D01*
X-233410Y-287240D01*
X-233248Y-287418D01*
X-233068Y-287568D01*
X-232872Y-287691D01*
X-232658Y-287786D01*
X-232428Y-287854D01*
X-232181Y-287895D01*
X-231918Y-287909D01*
X-231612Y-287888D01*
X-231335Y-287824D01*
X-231085Y-287718D01*
X-230863Y-287570D01*
X-230662Y-287382D01*
X-230478Y-287157D01*
X-230309Y-286894D01*
X-230156Y-286594D01*
X-230003Y-286196D01*
X-229834Y-285640D01*
X-229648Y-284926D01*
X-229445Y-284053D01*
X-229146Y-282782D01*
X-228979Y-282163D01*
X-228783Y-281571D01*
X-228553Y-281010D01*
X-228287Y-280487D01*
X-228137Y-280242D01*
X-227971Y-280014D01*
X-227789Y-279803D01*
X-227591Y-279608D01*
X-227375Y-279432D01*
X-227142Y-279276D01*
X-226890Y-279140D01*
X-226619Y-279025D01*
X-226327Y-278932D01*
X-226011Y-278866D01*
X-225670Y-278827D01*
X-225305Y-278814D01*
X-224840Y-278837D01*
X-224402Y-278907D01*
X-223991Y-279024D01*
X-223607Y-279188D01*
X-223250Y-279398D01*
X-222920Y-279655D01*
X-222618Y-279959D01*
X-222342Y-280310D01*
X-222096Y-280703D01*
X-221882Y-281134D01*
X-221702Y-281604D01*
X-221554Y-282112D01*
X-221439Y-282657D01*
X-221357Y-283241D01*
X-221308Y-283864D01*
X-221292Y-284524D01*
X-221306Y-285139D01*
X-221347Y-285721D01*
X-221415Y-286269D01*
X-221511Y-286785D01*
X-221635Y-287267D01*
X-221786Y-287716D01*
X-221964Y-288132D01*
X-222170Y-288515D01*
X-222403Y-288864D01*
X-222664Y-289180D01*
X-222952Y-289464D01*
X-223268Y-289714D01*
X-223611Y-289930D01*
X-223981Y-290114D01*
X-224379Y-290264D01*
X-224804Y-290381D01*
G37*
G36*
X-226511Y-304244D02*
X-235312Y-304244D01*
X-235312Y-302370D01*
X-226668Y-302370D01*
X-226209Y-302355D01*
X-225779Y-302310D01*
X-225377Y-302234D01*
X-225003Y-302129D01*
X-224658Y-301994D01*
X-224341Y-301829D01*
X-224053Y-301633D01*
X-223794Y-301408D01*
X-223564Y-301154D01*
X-223364Y-300874D01*
X-223196Y-300567D01*
X-223058Y-300233D01*
X-222951Y-299873D01*
X-222874Y-299486D01*
X-222828Y-299072D01*
X-222813Y-298631D01*
X-222828Y-298178D01*
X-222876Y-297751D01*
X-222955Y-297350D01*
X-223066Y-296975D01*
X-223209Y-296625D01*
X-223384Y-296302D01*
X-223590Y-296004D01*
X-223828Y-295732D01*
X-224097Y-295490D01*
X-224394Y-295279D01*
X-224721Y-295101D01*
X-225078Y-294956D01*
X-225463Y-294843D01*
X-225878Y-294762D01*
X-226322Y-294713D01*
X-226796Y-294697D01*
X-235312Y-294697D01*
X-235312Y-292833D01*
X-226688Y-292833D01*
X-226276Y-292844D01*
X-225878Y-292877D01*
X-225495Y-292933D01*
X-225126Y-293011D01*
X-224771Y-293111D01*
X-224431Y-293233D01*
X-224105Y-293378D01*
X-223794Y-293544D01*
X-223498Y-293731D01*
X-223221Y-293937D01*
X-222962Y-294161D01*
X-222721Y-294403D01*
X-222497Y-294663D01*
X-222292Y-294942D01*
X-222104Y-295240D01*
X-221934Y-295556D01*
X-221784Y-295888D01*
X-221653Y-296235D01*
X-221543Y-296596D01*
X-221452Y-296972D01*
X-221382Y-297363D01*
X-221332Y-297768D01*
X-221302Y-298187D01*
X-221292Y-298622D01*
X-221301Y-299039D01*
X-221330Y-299443D01*
X-221379Y-299834D01*
X-221446Y-300211D01*
X-221533Y-300575D01*
X-221639Y-300925D01*
X-221765Y-301262D01*
X-221910Y-301585D01*
X-222073Y-301892D01*
X-222254Y-302182D01*
X-222452Y-302454D01*
X-222668Y-302708D01*
X-222901Y-302944D01*
X-223152Y-303163D01*
X-223420Y-303364D01*
X-223705Y-303547D01*
X-224007Y-303710D01*
X-224322Y-303852D01*
X-224652Y-303971D01*
X-224996Y-304069D01*
X-225353Y-304146D01*
X-225725Y-304200D01*
X-226111Y-304233D01*
X-226511Y-304244D01*
G37*
G36*
X-228464Y-330461D02*
X-228872Y-330454D01*
X-229268Y-330433D01*
X-229653Y-330398D01*
X-230028Y-330349D01*
X-230391Y-330287D01*
X-230742Y-330210D01*
X-231083Y-330119D01*
X-231412Y-330014D01*
X-231730Y-329896D01*
X-232037Y-329763D01*
X-232333Y-329617D01*
X-232618Y-329456D01*
X-232891Y-329282D01*
X-233153Y-329094D01*
X-233404Y-328891D01*
X-233644Y-328675D01*
X-233871Y-328447D01*
X-234084Y-328207D01*
X-234281Y-327957D01*
X-234464Y-327697D01*
X-234633Y-327425D01*
X-234786Y-327143D01*
X-234925Y-326850D01*
X-235050Y-326546D01*
X-235160Y-326232D01*
X-235255Y-325907D01*
X-235335Y-325571D01*
X-235401Y-325224D01*
X-235452Y-324867D01*
X-235489Y-324499D01*
X-235511Y-324120D01*
X-235518Y-323730D01*
X-235505Y-323190D01*
X-235464Y-322672D01*
X-235397Y-322177D01*
X-235302Y-321704D01*
X-235181Y-321254D01*
X-235033Y-320827D01*
X-234857Y-320423D01*
X-234655Y-320041D01*
X-234426Y-319683D01*
X-234171Y-319349D01*
X-233890Y-319040D01*
X-233583Y-318756D01*
X-233250Y-318496D01*
X-232891Y-318260D01*
X-232505Y-318049D01*
X-232094Y-317863D01*
X-231505Y-319639D01*
X-231798Y-319768D01*
X-232073Y-319916D01*
X-232331Y-320082D01*
X-232570Y-320266D01*
X-232792Y-320468D01*
X-232996Y-320688D01*
X-233182Y-320927D01*
X-233350Y-321184D01*
X-233499Y-321457D01*
X-233629Y-321741D01*
X-233739Y-322038D01*
X-233828Y-322348D01*
X-233898Y-322670D01*
X-233948Y-323005D01*
X-233978Y-323351D01*
X-233988Y-323711D01*
X-233965Y-324269D01*
X-233895Y-324795D01*
X-233780Y-325289D01*
X-233619Y-325751D01*
X-233411Y-326182D01*
X-233157Y-326580D01*
X-232857Y-326947D01*
X-232511Y-327282D01*
X-232125Y-327581D01*
X-231704Y-327840D01*
X-231250Y-328059D01*
X-230761Y-328239D01*
X-230238Y-328378D01*
X-229681Y-328478D01*
X-229089Y-328538D01*
X-228464Y-328557D01*
X-227844Y-328537D01*
X-227256Y-328474D01*
X-226698Y-328371D01*
X-226172Y-328225D01*
X-225676Y-328038D01*
X-225212Y-327810D01*
X-224779Y-327540D01*
X-224377Y-327228D01*
X-224015Y-326881D01*
X-223701Y-326505D01*
X-223436Y-326099D01*
X-223218Y-325664D01*
X-223049Y-325200D01*
X-222929Y-324707D01*
X-222856Y-324184D01*
X-222838Y-323912D01*
X-222832Y-323632D01*
X-222843Y-323275D01*
X-222877Y-322929D01*
X-222933Y-322594D01*
X-223012Y-322270D01*
X-223113Y-321958D01*
X-223236Y-321657D01*
X-223382Y-321367D01*
X-223551Y-321089D01*
X-223742Y-320821D01*
X-223955Y-320565D01*
X-224191Y-320321D01*
X-224449Y-320087D01*
X-224730Y-319865D01*
X-225033Y-319654D01*
X-225359Y-319454D01*
X-225707Y-319266D01*
X-224942Y-317736D01*
X-224509Y-317960D01*
X-224102Y-318206D01*
X-223722Y-318473D01*
X-223369Y-318762D01*
X-223043Y-319073D01*
X-222743Y-319405D01*
X-222470Y-319759D01*
X-222224Y-320134D01*
X-222005Y-320528D01*
X-221816Y-320938D01*
X-221656Y-321363D01*
X-221525Y-321804D01*
X-221423Y-322260D01*
X-221350Y-322731D01*
X-221306Y-323218D01*
X-221292Y-323720D01*
X-221305Y-324234D01*
X-221346Y-324730D01*
X-221414Y-325208D01*
X-221509Y-325669D01*
X-221631Y-326112D01*
X-221780Y-326538D01*
X-221957Y-326946D01*
X-222160Y-327336D01*
X-222389Y-327706D01*
X-222641Y-328053D01*
X-222916Y-328378D01*
X-223215Y-328680D01*
X-223537Y-328959D01*
X-223882Y-329216D01*
X-224251Y-329450D01*
X-224642Y-329661D01*
X-225055Y-329849D01*
X-225486Y-330011D01*
X-225936Y-330149D01*
X-226405Y-330261D01*
X-226892Y-330348D01*
X-227397Y-330411D01*
X-227921Y-330448D01*
X-228464Y-330461D01*
G37*
G36*
X-233782Y-277436D02*
X-235312Y-277436D01*
X-235312Y-266075D01*
X-233782Y-266075D01*
X-233782Y-270823D01*
X-221488Y-270823D01*
X-221488Y-272687D01*
X-233782Y-272687D01*
X-233782Y-277436D01*
G37*
G36*
X-221488Y-315333D02*
X-235312Y-315333D01*
X-235312Y-313459D01*
X-223019Y-313459D01*
X-223019Y-306473D01*
X-221488Y-306473D01*
X-221488Y-315333D01*
G37*
G36*
X-221488Y-211458D02*
X-235312Y-211458D01*
X-235312Y-209584D01*
X-223019Y-209584D01*
X-223019Y-202598D01*
X-221488Y-202598D01*
X-221488Y-211458D01*
G37*
G36*
X-217495Y-238004D02*
X-218770Y-238004D01*
X-218770Y-226299D01*
X-217495Y-226299D01*
X-217495Y-238004D01*
G37*
G36*
X-194818Y298684D02*
X-211115Y298684D01*
X-211115Y301587D01*
X-199815Y305924D01*
X-199108Y306151D01*
X-198351Y306369D01*
X-197679Y306547D01*
X-197224Y306653D01*
X-197806Y306796D01*
X-198629Y307040D01*
X-199397Y307288D01*
X-199815Y307439D01*
X-211115Y311696D01*
X-211115Y314529D01*
X-194818Y314529D01*
X-194818Y312540D01*
X-205690Y312540D01*
X-206584Y312547D01*
X-207460Y312566D01*
X-208319Y312599D01*
X-209160Y312644D01*
X-208181Y312368D01*
X-207315Y312106D01*
X-206562Y311859D01*
X-205922Y311626D01*
X-194818Y307416D01*
X-194818Y305866D01*
X-205922Y301598D01*
X-207888Y300951D01*
X-209160Y300569D01*
X-207876Y300604D01*
X-205690Y300650D01*
X-194818Y300650D01*
X-194818Y298684D01*
G37*
G36*
X-194818Y269684D02*
X-211115Y269684D01*
X-211115Y282048D01*
X-209310Y282048D01*
X-209310Y271893D01*
X-204082Y271893D01*
X-204082Y281354D01*
X-202301Y281354D01*
X-202301Y271893D01*
X-196622Y271893D01*
X-196622Y282522D01*
X-194818Y282522D01*
X-194818Y269684D01*
G37*
G36*
X-194818Y285496D02*
X-211115Y285496D01*
X-211115Y287705D01*
X-196622Y287705D01*
X-196622Y295940D01*
X-194818Y295940D01*
X-194818Y285496D01*
G37*
G36*
X-194818Y-367213D02*
X-211115Y-360563D01*
X-211115Y-358053D01*
X-194818Y-351506D01*
X-194818Y-353762D01*
X-199583Y-355624D01*
X-199583Y-363049D01*
X-194818Y-364923D01*
X-194818Y-367213D01*
G37*
%LPC*%
G36*
X-201307Y-362378D02*
X-201307Y-356283D01*
X-206685Y-358377D01*
X-207535Y-358700D01*
X-208489Y-359024D01*
X-209449Y-359337D01*
X-209125Y-359441D01*
X-208029Y-359799D01*
X-206662Y-360297D01*
X-201307Y-362378D01*
G37*
%LPD*%
G36*
X-203042Y-384506D02*
X-203530Y-384497D01*
X-204005Y-384472D01*
X-204466Y-384431D01*
X-204913Y-384373D01*
X-205346Y-384298D01*
X-205765Y-384206D01*
X-206170Y-384098D01*
X-206561Y-383974D01*
X-206937Y-383832D01*
X-207300Y-383674D01*
X-207649Y-383500D01*
X-207984Y-383308D01*
X-208305Y-383101D01*
X-208612Y-382876D01*
X-208904Y-382635D01*
X-209183Y-382377D01*
X-209446Y-382105D01*
X-209693Y-381818D01*
X-209922Y-381519D01*
X-210134Y-381206D01*
X-210330Y-380879D01*
X-210508Y-380539D01*
X-210670Y-380185D01*
X-210814Y-379818D01*
X-210941Y-379438D01*
X-211052Y-379044D01*
X-211145Y-378637D01*
X-211222Y-378216D01*
X-211281Y-377781D01*
X-211324Y-377334D01*
X-211349Y-376872D01*
X-211358Y-376398D01*
X-211343Y-375737D01*
X-211301Y-375108D01*
X-211229Y-374511D01*
X-211129Y-373946D01*
X-211001Y-373412D01*
X-210844Y-372911D01*
X-210658Y-372441D01*
X-210444Y-372003D01*
X-210198Y-371593D01*
X-209918Y-371207D01*
X-209604Y-370845D01*
X-209255Y-370508D01*
X-208873Y-370194D01*
X-208455Y-369905D01*
X-208004Y-369641D01*
X-207518Y-369400D01*
X-206893Y-371505D01*
X-207228Y-371687D01*
X-207540Y-371885D01*
X-207828Y-372100D01*
X-208093Y-372331D01*
X-208334Y-372578D01*
X-208552Y-372842D01*
X-208746Y-373123D01*
X-208917Y-373419D01*
X-209066Y-373734D01*
X-209195Y-374067D01*
X-209305Y-374418D01*
X-209394Y-374789D01*
X-209464Y-375177D01*
X-209514Y-375585D01*
X-209543Y-376011D01*
X-209553Y-376456D01*
X-209547Y-376803D01*
X-209527Y-377140D01*
X-209493Y-377467D01*
X-209447Y-377783D01*
X-209387Y-378089D01*
X-209313Y-378385D01*
X-209227Y-378670D01*
X-209127Y-378945D01*
X-209013Y-379210D01*
X-208887Y-379464D01*
X-208747Y-379707D01*
X-208594Y-379941D01*
X-208427Y-380163D01*
X-208247Y-380376D01*
X-208054Y-380578D01*
X-207847Y-380770D01*
X-207399Y-381119D01*
X-206907Y-381422D01*
X-206372Y-381679D01*
X-205793Y-381889D01*
X-205170Y-382052D01*
X-204504Y-382169D01*
X-203795Y-382238D01*
X-203042Y-382262D01*
X-202661Y-382256D01*
X-202290Y-382237D01*
X-201929Y-382206D01*
X-201579Y-382163D01*
X-201239Y-382107D01*
X-200908Y-382039D01*
X-200588Y-381958D01*
X-200279Y-381866D01*
X-199979Y-381760D01*
X-199690Y-381643D01*
X-199141Y-381370D01*
X-198633Y-381049D01*
X-198166Y-380677D01*
X-197748Y-380262D01*
X-197559Y-380040D01*
X-197385Y-379809D01*
X-197224Y-379568D01*
X-197077Y-379318D01*
X-196945Y-379058D01*
X-196826Y-378789D01*
X-196721Y-378510D01*
X-196631Y-378222D01*
X-196554Y-377924D01*
X-196491Y-377617D01*
X-196442Y-377301D01*
X-196407Y-376974D01*
X-196386Y-376639D01*
X-196379Y-376294D01*
X-196387Y-375898D01*
X-196410Y-375509D01*
X-196448Y-375127D01*
X-196501Y-374751D01*
X-196569Y-374382D01*
X-196653Y-374020D01*
X-196751Y-373664D01*
X-196865Y-373315D01*
X-196992Y-372978D01*
X-197130Y-372657D01*
X-197278Y-372353D01*
X-197438Y-372065D01*
X-197608Y-371793D01*
X-197789Y-371538D01*
X-197981Y-371299D01*
X-198184Y-371077D01*
X-201122Y-371077D01*
X-201122Y-375947D01*
X-202972Y-375947D01*
X-202972Y-369042D01*
X-197351Y-369042D01*
X-197031Y-369375D01*
X-196729Y-369726D01*
X-196446Y-370095D01*
X-196181Y-370483D01*
X-195935Y-370889D01*
X-195708Y-371313D01*
X-195500Y-371756D01*
X-195310Y-372217D01*
X-195140Y-372691D01*
X-194993Y-373176D01*
X-194869Y-373671D01*
X-194767Y-374176D01*
X-194688Y-374690D01*
X-194632Y-375215D01*
X-194598Y-375749D01*
X-194587Y-376294D01*
X-194603Y-376922D01*
X-194650Y-377528D01*
X-194730Y-378111D01*
X-194841Y-378673D01*
X-194984Y-379213D01*
X-195159Y-379731D01*
X-195366Y-380227D01*
X-195604Y-380700D01*
X-195873Y-381149D01*
X-196169Y-381571D01*
X-196494Y-381965D01*
X-196846Y-382333D01*
X-197227Y-382672D01*
X-197635Y-382985D01*
X-198072Y-383270D01*
X-198537Y-383528D01*
X-199026Y-383757D01*
X-199536Y-383956D01*
X-200067Y-384124D01*
X-200620Y-384261D01*
X-201194Y-384368D01*
X-201788Y-384445D01*
X-202404Y-384490D01*
X-203042Y-384506D01*
G37*
G36*
X-203042Y-333162D02*
X-203530Y-333154D01*
X-204005Y-333129D01*
X-204466Y-333087D01*
X-204913Y-333029D01*
X-205346Y-332954D01*
X-205765Y-332863D01*
X-206170Y-332754D01*
X-206561Y-332630D01*
X-206937Y-332488D01*
X-207300Y-332331D01*
X-207649Y-332156D01*
X-207984Y-331965D01*
X-208305Y-331757D01*
X-208612Y-331532D01*
X-208904Y-331291D01*
X-209183Y-331034D01*
X-209446Y-330761D01*
X-209693Y-330475D01*
X-209922Y-330175D01*
X-210134Y-329862D01*
X-210330Y-329535D01*
X-210508Y-329195D01*
X-210670Y-328842D01*
X-210814Y-328475D01*
X-210941Y-328094D01*
X-211052Y-327700D01*
X-211145Y-327293D01*
X-211222Y-326872D01*
X-211281Y-326438D01*
X-211324Y-325990D01*
X-211349Y-325529D01*
X-211358Y-325054D01*
X-211343Y-324393D01*
X-211301Y-323764D01*
X-211229Y-323167D01*
X-211129Y-322602D01*
X-211001Y-322068D01*
X-210844Y-321567D01*
X-210658Y-321097D01*
X-210444Y-320659D01*
X-210198Y-320249D01*
X-209918Y-319863D01*
X-209604Y-319501D01*
X-209255Y-319164D01*
X-208873Y-318851D01*
X-208455Y-318562D01*
X-208004Y-318297D01*
X-207518Y-318056D01*
X-206893Y-320161D01*
X-207228Y-320343D01*
X-207540Y-320541D01*
X-207828Y-320756D01*
X-208093Y-320987D01*
X-208334Y-321235D01*
X-208552Y-321498D01*
X-208746Y-321779D01*
X-208917Y-322076D01*
X-209066Y-322390D01*
X-209195Y-322723D01*
X-209305Y-323075D01*
X-209394Y-323445D01*
X-209464Y-323834D01*
X-209514Y-324241D01*
X-209543Y-324667D01*
X-209553Y-325112D01*
X-209547Y-325459D01*
X-209527Y-325797D01*
X-209493Y-326123D01*
X-209447Y-326440D01*
X-209387Y-326746D01*
X-209313Y-327041D01*
X-209227Y-327327D01*
X-209127Y-327601D01*
X-209013Y-327866D01*
X-208887Y-328120D01*
X-208747Y-328364D01*
X-208594Y-328597D01*
X-208427Y-328820D01*
X-208247Y-329032D01*
X-208054Y-329234D01*
X-207847Y-329426D01*
X-207399Y-329776D01*
X-206907Y-330079D01*
X-206372Y-330335D01*
X-205793Y-330545D01*
X-205170Y-330708D01*
X-204504Y-330825D01*
X-203795Y-330895D01*
X-203042Y-330918D01*
X-202661Y-330912D01*
X-202290Y-330893D01*
X-201929Y-330862D01*
X-201579Y-330819D01*
X-201239Y-330763D01*
X-200908Y-330695D01*
X-200588Y-330615D01*
X-200279Y-330522D01*
X-199979Y-330417D01*
X-199690Y-330299D01*
X-199141Y-330027D01*
X-198633Y-329705D01*
X-198166Y-329333D01*
X-197748Y-328918D01*
X-197559Y-328697D01*
X-197385Y-328465D01*
X-197224Y-328224D01*
X-197077Y-327974D01*
X-196945Y-327714D01*
X-196826Y-327445D01*
X-196721Y-327167D01*
X-196631Y-326878D01*
X-196554Y-326581D01*
X-196491Y-326273D01*
X-196442Y-325957D01*
X-196407Y-325631D01*
X-196386Y-325295D01*
X-196379Y-324950D01*
X-196387Y-324554D01*
X-196410Y-324165D01*
X-196448Y-323783D01*
X-196501Y-323407D01*
X-196569Y-323038D01*
X-196653Y-322676D01*
X-196751Y-322320D01*
X-196865Y-321972D01*
X-196992Y-321634D01*
X-197130Y-321313D01*
X-197278Y-321009D01*
X-197438Y-320721D01*
X-197608Y-320449D01*
X-197789Y-320194D01*
X-197981Y-319956D01*
X-198184Y-319734D01*
X-201122Y-319734D01*
X-201122Y-324603D01*
X-202972Y-324603D01*
X-202972Y-317698D01*
X-197351Y-317698D01*
X-197031Y-318031D01*
X-196729Y-318382D01*
X-196446Y-318752D01*
X-196181Y-319139D01*
X-195935Y-319545D01*
X-195708Y-319970D01*
X-195500Y-320412D01*
X-195310Y-320873D01*
X-195140Y-321348D01*
X-194993Y-321832D01*
X-194869Y-322327D01*
X-194767Y-322832D01*
X-194688Y-323346D01*
X-194632Y-323871D01*
X-194598Y-324405D01*
X-194587Y-324950D01*
X-194603Y-325578D01*
X-194650Y-326184D01*
X-194730Y-326768D01*
X-194841Y-327330D01*
X-194984Y-327869D01*
X-195159Y-328387D01*
X-195366Y-328883D01*
X-195604Y-329357D01*
X-195873Y-329806D01*
X-196169Y-330227D01*
X-196494Y-330622D01*
X-196846Y-330989D01*
X-197227Y-331329D01*
X-197635Y-331641D01*
X-198072Y-331927D01*
X-198537Y-332185D01*
X-199026Y-332414D01*
X-199536Y-332612D01*
X-200067Y-332780D01*
X-200620Y-332918D01*
X-201194Y-333024D01*
X-201788Y-333101D01*
X-202404Y-333147D01*
X-203042Y-333162D01*
G37*
G36*
X-194818Y-313973D02*
X-211115Y-313973D01*
X-211115Y-301608D01*
X-209310Y-301608D01*
X-209310Y-311763D01*
X-204082Y-311763D01*
X-204082Y-302302D01*
X-202301Y-302302D01*
X-202301Y-311763D01*
X-196622Y-311763D01*
X-196622Y-301134D01*
X-194818Y-301134D01*
X-194818Y-313973D01*
G37*
G36*
X-200740Y-349619D02*
X-211115Y-349619D01*
X-211115Y-347410D01*
X-200925Y-347410D01*
X-200384Y-347393D01*
X-199876Y-347339D01*
X-199402Y-347251D01*
X-198962Y-347127D01*
X-198555Y-346968D01*
X-198182Y-346773D01*
X-197842Y-346542D01*
X-197536Y-346277D01*
X-197265Y-345978D01*
X-197030Y-345647D01*
X-196831Y-345285D01*
X-196669Y-344892D01*
X-196542Y-344467D01*
X-196452Y-344011D01*
X-196398Y-343523D01*
X-196379Y-343004D01*
X-196398Y-342469D01*
X-196454Y-341966D01*
X-196548Y-341493D01*
X-196679Y-341050D01*
X-196847Y-340638D01*
X-197053Y-340257D01*
X-197296Y-339906D01*
X-197577Y-339586D01*
X-197893Y-339300D01*
X-198244Y-339052D01*
X-198630Y-338842D01*
X-199050Y-338671D01*
X-199504Y-338537D01*
X-199993Y-338442D01*
X-200517Y-338385D01*
X-201075Y-338366D01*
X-211115Y-338366D01*
X-211115Y-336168D01*
X-200948Y-336168D01*
X-200462Y-336181D01*
X-199993Y-336220D01*
X-199541Y-336286D01*
X-199106Y-336378D01*
X-198688Y-336496D01*
X-198287Y-336640D01*
X-197903Y-336810D01*
X-197536Y-337007D01*
X-197188Y-337227D01*
X-196861Y-337469D01*
X-196556Y-337733D01*
X-196271Y-338019D01*
X-196008Y-338326D01*
X-195765Y-338655D01*
X-195544Y-339005D01*
X-195344Y-339378D01*
X-195167Y-339769D01*
X-195013Y-340178D01*
X-194883Y-340604D01*
X-194776Y-341047D01*
X-194693Y-341508D01*
X-194634Y-341985D01*
X-194599Y-342480D01*
X-194587Y-342992D01*
X-194598Y-343484D01*
X-194632Y-343961D01*
X-194689Y-344421D01*
X-194769Y-344866D01*
X-194871Y-345294D01*
X-194997Y-345707D01*
X-195145Y-346104D01*
X-195315Y-346485D01*
X-195508Y-346848D01*
X-195721Y-347189D01*
X-195955Y-347510D01*
X-196209Y-347809D01*
X-196484Y-348088D01*
X-196779Y-348346D01*
X-197095Y-348582D01*
X-197432Y-348798D01*
X-197787Y-348991D01*
X-198159Y-349158D01*
X-198548Y-349299D01*
X-198953Y-349414D01*
X-199375Y-349504D01*
X-199813Y-349568D01*
X-200268Y-349607D01*
X-200740Y-349619D01*
G37*
G36*
X-91407Y-414782D02*
X-93698Y-414782D01*
X-87047Y-398485D01*
X-84537Y-398485D01*
X-77991Y-414782D01*
X-80246Y-414782D01*
X-82108Y-410017D01*
X-89534Y-410017D01*
X-91407Y-414782D01*
G37*
%LPC*%
G36*
X-82767Y-408293D02*
X-84861Y-402915D01*
X-85185Y-402065D01*
X-85509Y-401111D01*
X-85821Y-400151D01*
X-85925Y-400475D01*
X-86284Y-401571D01*
X-86781Y-402938D01*
X-88863Y-408293D01*
X-82767Y-408293D01*
G37*
%LPD*%
G36*
X-68528Y-415013D02*
X-69156Y-414997D01*
X-69762Y-414950D01*
X-70346Y-414870D01*
X-70908Y-414759D01*
X-71448Y-414616D01*
X-71965Y-414441D01*
X-72461Y-414234D01*
X-72935Y-413996D01*
X-73384Y-413727D01*
X-73805Y-413431D01*
X-74200Y-413106D01*
X-74567Y-412754D01*
X-74907Y-412373D01*
X-75219Y-411965D01*
X-75505Y-411528D01*
X-75763Y-411064D01*
X-75992Y-410574D01*
X-76190Y-410064D01*
X-76358Y-409533D01*
X-76496Y-408980D01*
X-76603Y-408406D01*
X-76679Y-407812D01*
X-76725Y-407196D01*
X-76740Y-406558D01*
X-76732Y-406070D01*
X-76707Y-405595D01*
X-76665Y-405134D01*
X-76607Y-404687D01*
X-76532Y-404254D01*
X-76441Y-403835D01*
X-76333Y-403430D01*
X-76208Y-403039D01*
X-76067Y-402663D01*
X-75909Y-402300D01*
X-75734Y-401951D01*
X-75543Y-401616D01*
X-75335Y-401295D01*
X-75111Y-400988D01*
X-74870Y-400696D01*
X-74612Y-400417D01*
X-74339Y-400154D01*
X-74053Y-399907D01*
X-73753Y-399678D01*
X-73440Y-399466D01*
X-73113Y-399270D01*
X-72773Y-399092D01*
X-72420Y-398930D01*
X-72053Y-398786D01*
X-71672Y-398659D01*
X-71278Y-398548D01*
X-70871Y-398455D01*
X-70450Y-398378D01*
X-70016Y-398319D01*
X-69568Y-398276D01*
X-69107Y-398251D01*
X-68632Y-398242D01*
X-67971Y-398257D01*
X-67342Y-398300D01*
X-66745Y-398371D01*
X-66180Y-398471D01*
X-65647Y-398599D01*
X-65145Y-398756D01*
X-64675Y-398942D01*
X-64237Y-399156D01*
X-63827Y-399402D01*
X-63441Y-399682D01*
X-63079Y-399996D01*
X-62742Y-400345D01*
X-62429Y-400728D01*
X-62140Y-401145D01*
X-61875Y-401596D01*
X-61635Y-402082D01*
X-63740Y-402707D01*
X-63921Y-402372D01*
X-64119Y-402060D01*
X-64334Y-401772D01*
X-64565Y-401507D01*
X-64813Y-401266D01*
X-65077Y-401048D01*
X-65357Y-400854D01*
X-65654Y-400683D01*
X-65968Y-400534D01*
X-66301Y-400405D01*
X-66653Y-400295D01*
X-67023Y-400206D01*
X-67412Y-400136D01*
X-67819Y-400086D01*
X-68245Y-400057D01*
X-68690Y-400047D01*
X-69037Y-400053D01*
X-69375Y-400073D01*
X-69701Y-400107D01*
X-70018Y-400153D01*
X-70324Y-400213D01*
X-70619Y-400287D01*
X-70905Y-400373D01*
X-71180Y-400473D01*
X-71444Y-400587D01*
X-71698Y-400713D01*
X-71942Y-400853D01*
X-72175Y-401006D01*
X-72398Y-401173D01*
X-72610Y-401353D01*
X-72812Y-401546D01*
X-73004Y-401753D01*
X-73354Y-402201D01*
X-73657Y-402693D01*
X-73913Y-403228D01*
X-74123Y-403807D01*
X-74286Y-404430D01*
X-74403Y-405096D01*
X-74473Y-405805D01*
X-74496Y-406558D01*
X-74490Y-406939D01*
X-74471Y-407310D01*
X-74440Y-407671D01*
X-74397Y-408021D01*
X-74341Y-408362D01*
X-74273Y-408692D01*
X-74193Y-409012D01*
X-74100Y-409321D01*
X-73995Y-409621D01*
X-73877Y-409910D01*
X-73605Y-410459D01*
X-73283Y-410967D01*
X-72912Y-411434D01*
X-72496Y-411852D01*
X-72275Y-412041D01*
X-72043Y-412215D01*
X-71803Y-412376D01*
X-71552Y-412523D01*
X-71293Y-412655D01*
X-71023Y-412774D01*
X-70745Y-412879D01*
X-70456Y-412969D01*
X-70159Y-413046D01*
X-69852Y-413109D01*
X-69535Y-413158D01*
X-69209Y-413193D01*
X-68873Y-413214D01*
X-68528Y-413221D01*
X-68132Y-413213D01*
X-67743Y-413190D01*
X-67361Y-413152D01*
X-66985Y-413099D01*
X-66616Y-413031D01*
X-66254Y-412947D01*
X-65899Y-412849D01*
X-65550Y-412735D01*
X-65212Y-412608D01*
X-64892Y-412470D01*
X-64587Y-412322D01*
X-64299Y-412162D01*
X-64028Y-411992D01*
X-63772Y-411811D01*
X-63534Y-411619D01*
X-63312Y-411416D01*
X-63312Y-408478D01*
X-68181Y-408478D01*
X-68181Y-406628D01*
X-61276Y-406628D01*
X-61276Y-412249D01*
X-61609Y-412569D01*
X-61960Y-412871D01*
X-62330Y-413154D01*
X-62717Y-413419D01*
X-63123Y-413665D01*
X-63548Y-413892D01*
X-63990Y-414100D01*
X-64451Y-414290D01*
X-64926Y-414460D01*
X-65411Y-414607D01*
X-65905Y-414731D01*
X-66410Y-414833D01*
X-66925Y-414912D01*
X-67449Y-414968D01*
X-67984Y-415002D01*
X-68528Y-415013D01*
G37*
G36*
X-98135Y-414782D02*
X-100332Y-414782D01*
X-100332Y-400290D01*
X-105930Y-400290D01*
X-105930Y-398485D01*
X-92537Y-398485D01*
X-92537Y-400290D01*
X-98135Y-400290D01*
X-98135Y-414782D01*
G37*
G36*
X-113021Y-415013D02*
X-113525Y-414997D01*
X-114003Y-414946D01*
X-114455Y-414863D01*
X-114881Y-414746D01*
X-115280Y-414595D01*
X-115653Y-414412D01*
X-115999Y-414194D01*
X-116320Y-413943D01*
X-116614Y-413659D01*
X-116882Y-413342D01*
X-117123Y-412991D01*
X-117338Y-412606D01*
X-117527Y-412188D01*
X-117690Y-411737D01*
X-117826Y-411252D01*
X-117936Y-410734D01*
X-115773Y-410375D01*
X-115713Y-410702D01*
X-115637Y-411009D01*
X-115544Y-411299D01*
X-115435Y-411570D01*
X-115310Y-411822D01*
X-115168Y-412056D01*
X-115010Y-412272D01*
X-114836Y-412469D01*
X-114648Y-412645D01*
X-114449Y-412798D01*
X-114238Y-412927D01*
X-114015Y-413033D01*
X-113781Y-413115D01*
X-113535Y-413174D01*
X-113278Y-413209D01*
X-113009Y-413221D01*
X-112716Y-413208D01*
X-112439Y-413169D01*
X-112178Y-413104D01*
X-111933Y-413014D01*
X-111704Y-412898D01*
X-111491Y-412755D01*
X-111294Y-412587D01*
X-111112Y-412394D01*
X-110949Y-412175D01*
X-110809Y-411932D01*
X-110689Y-411665D01*
X-110592Y-411374D01*
X-110516Y-411059D01*
X-110462Y-410721D01*
X-110429Y-410358D01*
X-110418Y-409971D01*
X-110418Y-400290D01*
X-113553Y-400290D01*
X-113553Y-398485D01*
X-108221Y-398485D01*
X-108221Y-409924D01*
X-108241Y-410501D01*
X-108301Y-411047D01*
X-108401Y-411560D01*
X-108542Y-412042D01*
X-108722Y-412493D01*
X-108943Y-412912D01*
X-109204Y-413299D01*
X-109504Y-413654D01*
X-109840Y-413973D01*
X-110206Y-414249D01*
X-110601Y-414482D01*
X-111025Y-414674D01*
X-111480Y-414822D01*
X-111964Y-414928D01*
X-112477Y-414992D01*
X-113021Y-415013D01*
G37*
G36*
X-203042Y178250D02*
X-203524Y178258D01*
X-203992Y178283D01*
X-204448Y178325D01*
X-204890Y178384D01*
X-205318Y178459D01*
X-205734Y178551D01*
X-206136Y178660D01*
X-206524Y178785D01*
X-206900Y178927D01*
X-207262Y179086D01*
X-207611Y179261D01*
X-207946Y179454D01*
X-208268Y179663D01*
X-208577Y179888D01*
X-208872Y180131D01*
X-209154Y180390D01*
X-209421Y180664D01*
X-209671Y180951D01*
X-209903Y181251D01*
X-210118Y181564D01*
X-210316Y181891D01*
X-210497Y182230D01*
X-210660Y182583D01*
X-210807Y182949D01*
X-210936Y183328D01*
X-211048Y183720D01*
X-211142Y184125D01*
X-211220Y184543D01*
X-211280Y184974D01*
X-211323Y185418D01*
X-211349Y185876D01*
X-211358Y186346D01*
X-211342Y186958D01*
X-211296Y187549D01*
X-211219Y188119D01*
X-211110Y188668D01*
X-210971Y189197D01*
X-210801Y189706D01*
X-210600Y190193D01*
X-210369Y190661D01*
X-210107Y191104D01*
X-209818Y191520D01*
X-209501Y191910D01*
X-209156Y192273D01*
X-208782Y192608D01*
X-208381Y192917D01*
X-207952Y193199D01*
X-207495Y193454D01*
X-207013Y193680D01*
X-206509Y193876D01*
X-205985Y194042D01*
X-205439Y194178D01*
X-204871Y194284D01*
X-204283Y194359D01*
X-203673Y194404D01*
X-203042Y194420D01*
X-202412Y194404D01*
X-201803Y194358D01*
X-201214Y194282D01*
X-200644Y194175D01*
X-200095Y194038D01*
X-199565Y193870D01*
X-199055Y193671D01*
X-198565Y193442D01*
X-198099Y193185D01*
X-197661Y192900D01*
X-197251Y192590D01*
X-196868Y192252D01*
X-196513Y191888D01*
X-196186Y191498D01*
X-195887Y191081D01*
X-195616Y190637D01*
X-195375Y190170D01*
X-195166Y189682D01*
X-194989Y189174D01*
X-194844Y188645D01*
X-194731Y188096D01*
X-194651Y187525D01*
X-194603Y186935D01*
X-194587Y186323D01*
X-194603Y185707D01*
X-194650Y185111D01*
X-194730Y184538D01*
X-194841Y183985D01*
X-194984Y183455D01*
X-195159Y182946D01*
X-195366Y182458D01*
X-195604Y181992D01*
X-195873Y181550D01*
X-196170Y181135D01*
X-196496Y180747D01*
X-196849Y180385D01*
X-197231Y180051D01*
X-197642Y179744D01*
X-198081Y179463D01*
X-198548Y179210D01*
X-199040Y178985D01*
X-199551Y178790D01*
X-200083Y178625D01*
X-200634Y178490D01*
X-201206Y178385D01*
X-201798Y178310D01*
X-202410Y178265D01*
X-203042Y178250D01*
G37*
%LPC*%
G36*
X-203042Y180494D02*
X-202663Y180500D01*
X-202295Y180518D01*
X-201937Y180548D01*
X-201588Y180590D01*
X-201250Y180645D01*
X-200921Y180711D01*
X-200293Y180880D01*
X-199705Y181097D01*
X-199156Y181362D01*
X-198647Y181676D01*
X-198178Y182038D01*
X-197756Y182443D01*
X-197567Y182659D01*
X-197391Y182885D01*
X-197230Y183120D01*
X-197082Y183364D01*
X-196949Y183618D01*
X-196829Y183881D01*
X-196724Y184154D01*
X-196632Y184436D01*
X-196555Y184727D01*
X-196492Y185027D01*
X-196443Y185337D01*
X-196408Y185657D01*
X-196386Y185985D01*
X-196379Y186323D01*
X-196386Y186671D01*
X-196407Y187008D01*
X-196441Y187335D01*
X-196488Y187652D01*
X-196549Y187959D01*
X-196624Y188255D01*
X-196713Y188541D01*
X-196815Y188817D01*
X-196930Y189083D01*
X-197059Y189338D01*
X-197202Y189583D01*
X-197359Y189818D01*
X-197529Y190043D01*
X-197712Y190257D01*
X-197909Y190461D01*
X-198120Y190655D01*
X-198578Y191009D01*
X-199080Y191315D01*
X-199628Y191575D01*
X-200221Y191787D01*
X-200859Y191952D01*
X-201541Y192070D01*
X-201899Y192111D01*
X-202269Y192141D01*
X-202650Y192158D01*
X-203042Y192164D01*
X-203417Y192158D01*
X-203782Y192140D01*
X-204136Y192111D01*
X-204481Y192069D01*
X-205139Y191950D01*
X-205757Y191784D01*
X-206333Y191570D01*
X-206869Y191309D01*
X-207364Y191000D01*
X-207818Y190643D01*
X-208225Y190243D01*
X-208408Y190029D01*
X-208577Y189804D01*
X-208733Y189570D01*
X-208876Y189326D01*
X-209004Y189072D01*
X-209120Y188809D01*
X-209221Y188535D01*
X-209309Y188252D01*
X-209384Y187959D01*
X-209445Y187656D01*
X-209492Y187343D01*
X-209526Y187021D01*
X-209547Y186688D01*
X-209553Y186346D01*
X-209547Y186001D01*
X-209527Y185666D01*
X-209493Y185341D01*
X-209446Y185026D01*
X-209386Y184721D01*
X-209313Y184426D01*
X-209226Y184141D01*
X-209125Y183865D01*
X-209012Y183600D01*
X-208885Y183345D01*
X-208744Y183099D01*
X-208590Y182863D01*
X-208423Y182638D01*
X-208243Y182422D01*
X-207841Y182021D01*
X-207392Y181663D01*
X-206900Y181353D01*
X-206364Y181090D01*
X-205786Y180876D01*
X-205164Y180709D01*
X-204837Y180643D01*
X-204500Y180589D01*
X-204151Y180548D01*
X-203792Y180518D01*
X-203422Y180500D01*
X-203042Y180494D01*
G37*
%LPD*%
G36*
X-194818Y197509D02*
X-211115Y197509D01*
X-211115Y204367D01*
X-211095Y205033D01*
X-211034Y205661D01*
X-210934Y206249D01*
X-210794Y206799D01*
X-210613Y207311D01*
X-210393Y207783D01*
X-210132Y208217D01*
X-209831Y208612D01*
X-209493Y208965D01*
X-209123Y209270D01*
X-208720Y209529D01*
X-208284Y209740D01*
X-207815Y209904D01*
X-207313Y210022D01*
X-206778Y210092D01*
X-206211Y210116D01*
X-205647Y210092D01*
X-205113Y210022D01*
X-204609Y209904D01*
X-204135Y209739D01*
X-203690Y209526D01*
X-203274Y209267D01*
X-202889Y208960D01*
X-202533Y208606D01*
X-202213Y208212D01*
X-201936Y207784D01*
X-201701Y207322D01*
X-201509Y206827D01*
X-201360Y206297D01*
X-201253Y205734D01*
X-201189Y205137D01*
X-201168Y204506D01*
X-201168Y199718D01*
X-194818Y199718D01*
X-194818Y197509D01*
G37*
%LPC*%
G36*
X-202914Y199718D02*
X-202914Y204194D01*
X-202927Y204642D01*
X-202965Y205061D01*
X-203029Y205452D01*
X-203119Y205813D01*
X-203234Y206146D01*
X-203375Y206449D01*
X-203541Y206724D01*
X-203733Y206970D01*
X-203950Y207187D01*
X-204193Y207375D01*
X-204461Y207534D01*
X-204756Y207664D01*
X-205075Y207765D01*
X-205420Y207837D01*
X-205791Y207881D01*
X-206188Y207895D01*
X-206570Y207880D01*
X-206928Y207836D01*
X-207261Y207762D01*
X-207569Y207658D01*
X-207853Y207525D01*
X-208112Y207362D01*
X-208346Y207169D01*
X-208556Y206947D01*
X-208741Y206695D01*
X-208901Y206413D01*
X-209037Y206102D01*
X-209148Y205761D01*
X-209234Y205391D01*
X-209296Y204991D01*
X-209333Y204561D01*
X-209345Y204101D01*
X-209345Y199718D01*
X-202914Y199718D01*
G37*
%LPD*%
G36*
X-194818Y146165D02*
X-211115Y146165D01*
X-211115Y148733D01*
X-197143Y157546D01*
X-199097Y157442D01*
X-199841Y157416D01*
X-200428Y157407D01*
X-211115Y157407D01*
X-211115Y159397D01*
X-194818Y159397D01*
X-194818Y156736D01*
X-208697Y148016D01*
X-207575Y148073D01*
X-205644Y148131D01*
X-194818Y148131D01*
X-194818Y146165D01*
G37*
G36*
X-194818Y163259D02*
X-211115Y163259D01*
X-211115Y175623D01*
X-209310Y175623D01*
X-209310Y165468D01*
X-204082Y165468D01*
X-204082Y174929D01*
X-202301Y174929D01*
X-202301Y165468D01*
X-196622Y165468D01*
X-196622Y176097D01*
X-194818Y176097D01*
X-194818Y163259D01*
G37*
G36*
X-196860Y-147674D02*
X-209201Y-147674D01*
X-209201Y-141867D01*
X-209186Y-141361D01*
X-209142Y-140884D01*
X-209070Y-140438D01*
X-208968Y-140020D01*
X-208836Y-139633D01*
X-208676Y-139275D01*
X-208487Y-138947D01*
X-208268Y-138649D01*
X-208023Y-138383D01*
X-207756Y-138152D01*
X-207466Y-137957D01*
X-207152Y-137798D01*
X-206816Y-137674D01*
X-206457Y-137585D01*
X-206076Y-137532D01*
X-205671Y-137514D01*
X-205334Y-137527D01*
X-205011Y-137564D01*
X-204701Y-137627D01*
X-204405Y-137715D01*
X-204123Y-137827D01*
X-203855Y-137965D01*
X-203600Y-138128D01*
X-203359Y-138316D01*
X-203135Y-138526D01*
X-202934Y-138754D01*
X-202753Y-139002D01*
X-202687Y-139113D01*
X-202595Y-139269D01*
X-202458Y-139555D01*
X-202342Y-139860D01*
X-202249Y-140184D01*
X-202176Y-140527D01*
X-199913Y-139036D01*
X-196860Y-137024D01*
X-196860Y-138951D01*
X-201984Y-142156D01*
X-201984Y-146001D01*
X-196860Y-146001D01*
X-196860Y-147674D01*
G37*
%LPC*%
G36*
X-203306Y-146001D02*
X-203306Y-141964D01*
X-203316Y-141642D01*
X-203345Y-141340D01*
X-203393Y-141056D01*
X-203461Y-140791D01*
X-203547Y-140545D01*
X-203654Y-140317D01*
X-203779Y-140109D01*
X-203924Y-139919D01*
X-204086Y-139749D01*
X-204263Y-139602D01*
X-204456Y-139478D01*
X-204665Y-139377D01*
X-204889Y-139298D01*
X-205128Y-139241D01*
X-205383Y-139207D01*
X-205654Y-139196D01*
X-205915Y-139207D01*
X-206160Y-139242D01*
X-206390Y-139299D01*
X-206603Y-139379D01*
X-206800Y-139482D01*
X-206981Y-139607D01*
X-207147Y-139756D01*
X-207296Y-139927D01*
X-207428Y-140120D01*
X-207543Y-140333D01*
X-207640Y-140566D01*
X-207720Y-140820D01*
X-207781Y-141093D01*
X-207825Y-141386D01*
X-207852Y-141700D01*
X-207861Y-142034D01*
X-207861Y-146001D01*
X-203306Y-146001D01*
G37*
%LPD*%
G36*
X-200031Y-165400D02*
X-200179Y-163771D01*
X-199914Y-163723D01*
X-199666Y-163660D01*
X-199435Y-163580D01*
X-199222Y-163485D01*
X-199025Y-163373D01*
X-198845Y-163245D01*
X-198683Y-163101D01*
X-198537Y-162941D01*
X-198409Y-162765D01*
X-198298Y-162573D01*
X-198204Y-162365D01*
X-198127Y-162140D01*
X-198067Y-161900D01*
X-198024Y-161643D01*
X-197998Y-161371D01*
X-197990Y-161082D01*
X-197999Y-160792D01*
X-198027Y-160518D01*
X-198072Y-160261D01*
X-198137Y-160019D01*
X-198219Y-159793D01*
X-198320Y-159583D01*
X-198439Y-159390D01*
X-198577Y-159212D01*
X-198732Y-159053D01*
X-198906Y-158915D01*
X-199097Y-158798D01*
X-199306Y-158703D01*
X-199533Y-158629D01*
X-199777Y-158576D01*
X-200039Y-158544D01*
X-200320Y-158533D01*
X-200565Y-158545D01*
X-200796Y-158582D01*
X-201013Y-158642D01*
X-201216Y-158727D01*
X-201406Y-158836D01*
X-201582Y-158969D01*
X-201744Y-159127D01*
X-201892Y-159308D01*
X-202024Y-159513D01*
X-202139Y-159739D01*
X-202236Y-159986D01*
X-202315Y-160255D01*
X-202377Y-160546D01*
X-202421Y-160858D01*
X-202448Y-161191D01*
X-202457Y-161546D01*
X-202457Y-162440D01*
X-203823Y-162440D01*
X-203823Y-161581D01*
X-203832Y-161266D01*
X-203858Y-160970D01*
X-203902Y-160691D01*
X-203964Y-160431D01*
X-204044Y-160188D01*
X-204141Y-159964D01*
X-204256Y-159759D01*
X-204388Y-159571D01*
X-204536Y-159404D01*
X-204698Y-159259D01*
X-204873Y-159136D01*
X-205061Y-159036D01*
X-205263Y-158958D01*
X-205479Y-158902D01*
X-205709Y-158869D01*
X-205951Y-158857D01*
X-206192Y-158866D01*
X-206420Y-158894D01*
X-206635Y-158939D01*
X-206837Y-159003D01*
X-207026Y-159085D01*
X-207202Y-159185D01*
X-207365Y-159303D01*
X-207515Y-159440D01*
X-207649Y-159594D01*
X-207766Y-159766D01*
X-207864Y-159956D01*
X-207945Y-160163D01*
X-208008Y-160389D01*
X-208053Y-160631D01*
X-208079Y-160892D01*
X-208088Y-161170D01*
X-208080Y-161424D01*
X-208055Y-161666D01*
X-208013Y-161895D01*
X-207955Y-162112D01*
X-207880Y-162317D01*
X-207788Y-162509D01*
X-207679Y-162688D01*
X-207554Y-162856D01*
X-207414Y-163008D01*
X-207260Y-163144D01*
X-207092Y-163263D01*
X-206910Y-163365D01*
X-206715Y-163450D01*
X-206506Y-163518D01*
X-206284Y-163570D01*
X-206048Y-163604D01*
X-206170Y-165190D01*
X-206539Y-165132D01*
X-206886Y-165046D01*
X-207213Y-164931D01*
X-207519Y-164788D01*
X-207804Y-164617D01*
X-208069Y-164417D01*
X-208312Y-164189D01*
X-208535Y-163933D01*
X-208734Y-163653D01*
X-208907Y-163354D01*
X-209053Y-163035D01*
X-209172Y-162697D01*
X-209265Y-162340D01*
X-209332Y-161963D01*
X-209371Y-161567D01*
X-209385Y-161152D01*
X-209371Y-160701D01*
X-209331Y-160275D01*
X-209263Y-159876D01*
X-209169Y-159502D01*
X-209048Y-159154D01*
X-208899Y-158832D01*
X-208724Y-158536D01*
X-208522Y-158266D01*
X-208296Y-158025D01*
X-208048Y-157816D01*
X-207780Y-157639D01*
X-207490Y-157494D01*
X-207178Y-157382D01*
X-206846Y-157301D01*
X-206493Y-157253D01*
X-206118Y-157237D01*
X-205829Y-157247D01*
X-205554Y-157278D01*
X-205293Y-157330D01*
X-205046Y-157402D01*
X-204813Y-157495D01*
X-204593Y-157609D01*
X-204387Y-157743D01*
X-204195Y-157898D01*
X-204018Y-158073D01*
X-203855Y-158266D01*
X-203707Y-158479D01*
X-203575Y-158710D01*
X-203457Y-158959D01*
X-203354Y-159228D01*
X-203266Y-159515D01*
X-203192Y-159821D01*
X-203157Y-159821D01*
X-203110Y-159484D01*
X-203044Y-159167D01*
X-202957Y-158869D01*
X-202851Y-158590D01*
X-202725Y-158330D01*
X-202579Y-158090D01*
X-202414Y-157868D01*
X-202229Y-157666D01*
X-202028Y-157486D01*
X-201814Y-157329D01*
X-201588Y-157197D01*
X-201349Y-157088D01*
X-201097Y-157004D01*
X-200833Y-156944D01*
X-200556Y-156907D01*
X-200267Y-156895D01*
X-199852Y-156912D01*
X-199461Y-156963D01*
X-199095Y-157048D01*
X-198752Y-157167D01*
X-198433Y-157320D01*
X-198139Y-157506D01*
X-197868Y-157727D01*
X-197622Y-157982D01*
X-197402Y-158268D01*
X-197212Y-158583D01*
X-197051Y-158927D01*
X-196919Y-159300D01*
X-196817Y-159702D01*
X-196743Y-160133D01*
X-196700Y-160593D01*
X-196685Y-161082D01*
X-196698Y-161539D01*
X-196738Y-161972D01*
X-196804Y-162381D01*
X-196896Y-162767D01*
X-197015Y-163129D01*
X-197160Y-163467D01*
X-197332Y-163782D01*
X-197530Y-164073D01*
X-197754Y-164338D01*
X-198003Y-164575D01*
X-198278Y-164783D01*
X-198578Y-164963D01*
X-198903Y-165115D01*
X-199254Y-165238D01*
X-199629Y-165333D01*
X-200031Y-165400D01*
G37*
G36*
X-206363Y-155825D02*
X-207537Y-155431D01*
X-206600Y-153093D01*
X-209201Y-153198D01*
X-209201Y-152007D01*
X-206617Y-152121D01*
X-207519Y-149808D01*
X-206363Y-149414D01*
X-205724Y-151884D01*
X-203534Y-150264D01*
X-202903Y-151306D01*
X-205163Y-152620D01*
X-202921Y-153986D01*
X-203552Y-155028D01*
X-205724Y-153373D01*
X-206363Y-155825D01*
G37*
G36*
X-220990Y-147674D02*
X-233331Y-147674D01*
X-233331Y-141867D01*
X-233316Y-141361D01*
X-233272Y-140884D01*
X-233200Y-140438D01*
X-233098Y-140020D01*
X-232966Y-139633D01*
X-232806Y-139275D01*
X-232617Y-138947D01*
X-232398Y-138649D01*
X-232153Y-138383D01*
X-231886Y-138152D01*
X-231596Y-137957D01*
X-231282Y-137798D01*
X-230946Y-137674D01*
X-230587Y-137585D01*
X-230206Y-137532D01*
X-229801Y-137514D01*
X-229464Y-137527D01*
X-229141Y-137564D01*
X-228831Y-137627D01*
X-228535Y-137715D01*
X-228253Y-137827D01*
X-227985Y-137965D01*
X-227730Y-138128D01*
X-227489Y-138316D01*
X-227265Y-138526D01*
X-227064Y-138754D01*
X-226883Y-139002D01*
X-226817Y-139113D01*
X-226725Y-139269D01*
X-226588Y-139555D01*
X-226472Y-139860D01*
X-226379Y-140184D01*
X-226306Y-140527D01*
X-224043Y-139036D01*
X-220990Y-137024D01*
X-220990Y-138951D01*
X-226114Y-142156D01*
X-226114Y-146001D01*
X-220990Y-146001D01*
X-220990Y-147674D01*
G37*
%LPC*%
G36*
X-227436Y-146001D02*
X-227436Y-141964D01*
X-227446Y-141642D01*
X-227475Y-141340D01*
X-227523Y-141056D01*
X-227591Y-140791D01*
X-227677Y-140545D01*
X-227784Y-140317D01*
X-227909Y-140109D01*
X-228054Y-139919D01*
X-228216Y-139749D01*
X-228393Y-139602D01*
X-228586Y-139478D01*
X-228795Y-139377D01*
X-229019Y-139298D01*
X-229258Y-139241D01*
X-229513Y-139207D01*
X-229784Y-139196D01*
X-230045Y-139207D01*
X-230290Y-139242D01*
X-230520Y-139299D01*
X-230733Y-139379D01*
X-230930Y-139482D01*
X-231111Y-139607D01*
X-231277Y-139756D01*
X-231426Y-139927D01*
X-231558Y-140120D01*
X-231673Y-140333D01*
X-231770Y-140566D01*
X-231850Y-140820D01*
X-231911Y-141093D01*
X-231955Y-141386D01*
X-231982Y-141700D01*
X-231991Y-142034D01*
X-231991Y-146001D01*
X-227436Y-146001D01*
G37*
%LPD*%
G36*
X-220990Y-164717D02*
X-222330Y-164717D01*
X-222330Y-161573D01*
X-231824Y-161573D01*
X-229836Y-164358D01*
X-231325Y-164358D01*
X-233331Y-161441D01*
X-233331Y-159987D01*
X-222330Y-159987D01*
X-222330Y-156983D01*
X-220990Y-156983D01*
X-220990Y-164717D01*
G37*
G36*
X-230493Y-155825D02*
X-231667Y-155431D01*
X-230730Y-153093D01*
X-233331Y-153198D01*
X-233331Y-152007D01*
X-230747Y-152121D01*
X-231649Y-149808D01*
X-230493Y-149414D01*
X-229854Y-151884D01*
X-227664Y-150264D01*
X-227033Y-151306D01*
X-229293Y-152620D01*
X-227051Y-153986D01*
X-227682Y-155028D01*
X-229854Y-153373D01*
X-230493Y-155825D01*
G37*
D10*
X-186900Y-215000D02*
X-186900Y-116000D01*
X-129400Y-116000D02*
X-129400Y-215000D01*
X-186900Y-215000D01*
X-186900Y-116000D02*
X-129400Y-116000D01*
X-186900Y242200D02*
X-186900Y366200D01*
X-129400Y366200D02*
X-129400Y242200D01*
X-186900Y242200D01*
X-186900Y366200D02*
X-129400Y366200D01*
X-186900Y-230700D02*
X-186900Y-354700D01*
X-129400Y-354700D02*
X-129400Y-230700D01*
X-129400Y-354700D02*
X-186900Y-354700D01*
X-186900Y-230700D02*
X-129400Y-230700D01*
X-49100Y-440900D02*
X49900Y-440900D01*
X49900Y-383400D02*
X-49100Y-383400D01*
X49900Y-383400D02*
X49900Y-440900D01*
X-49100Y-440900D02*
X-49100Y-383400D01*
X-186900Y127900D02*
X-186900Y226900D01*
X-129400Y226900D02*
X-129400Y127900D01*
X-186900Y127900D01*
X-186900Y226900D02*
X-129400Y226900D01*
D11*
X-193050Y-174000D02*
X-213350Y-174000D01*
X-193050Y-174000D02*
X-193050Y-130800D01*
X-213350Y-130800D01*
X-213350Y-174000D01*
X-203200Y-174000D02*
X-203200Y-179760D01*
X-203200Y-130800D02*
X-203200Y-125040D01*
X-218450Y-174000D02*
X-238750Y-174000D01*
X-218450Y-174000D02*
X-218450Y-130800D01*
X-238750Y-130800D01*
X-238750Y-174000D01*
X-228600Y-174000D02*
X-228600Y-179760D01*
X-228600Y-130800D02*
X-228600Y-125040D01*
X-105000Y366800D02*
X-105000Y369300D01*
X-105000Y-138200D02*
X-105000Y-140700D01*
X105000Y366800D02*
X105000Y369300D01*
X105000Y-138200D02*
X105000Y-140700D01*
X-36600Y-140700D02*
X-105000Y-140700D01*
X36600Y-140700D02*
X105000Y-140700D01*
X-40000Y369300D02*
X-105000Y369300D01*
X-40000Y369300D02*
X-40000Y382300D01*
X40000Y382300D01*
X40000Y369300D01*
X105000Y369300D01*
D12*
X-122900Y355600D02*
X-122898Y355663D01*
X-122892Y355725D01*
X-122882Y355787D01*
X-122869Y355849D01*
X-122851Y355909D01*
X-122830Y355968D01*
X-122805Y356026D01*
X-122776Y356082D01*
X-122744Y356136D01*
X-122709Y356188D01*
X-122671Y356237D01*
X-122629Y356285D01*
X-122585Y356329D01*
X-122537Y356371D01*
X-122488Y356409D01*
X-122436Y356444D01*
X-122382Y356476D01*
X-122326Y356505D01*
X-122268Y356530D01*
X-122209Y356551D01*
X-122149Y356569D01*
X-122087Y356582D01*
X-122025Y356592D01*
X-121963Y356598D01*
X-121900Y356600D01*
X-121837Y356598D01*
X-121775Y356592D01*
X-121713Y356582D01*
X-121651Y356569D01*
X-121591Y356551D01*
X-121532Y356530D01*
X-121474Y356505D01*
X-121418Y356476D01*
X-121364Y356444D01*
X-121312Y356409D01*
X-121263Y356371D01*
X-121215Y356329D01*
X-121171Y356285D01*
X-121129Y356237D01*
X-121091Y356188D01*
X-121056Y356136D01*
X-121024Y356082D01*
X-120995Y356026D01*
X-120970Y355968D01*
X-120949Y355909D01*
X-120931Y355849D01*
X-120918Y355787D01*
X-120908Y355725D01*
X-120902Y355663D01*
X-120900Y355600D01*
X-120902Y355537D01*
X-120908Y355475D01*
X-120918Y355413D01*
X-120931Y355351D01*
X-120949Y355291D01*
X-120970Y355232D01*
X-120995Y355174D01*
X-121024Y355118D01*
X-121056Y355064D01*
X-121091Y355012D01*
X-121129Y354963D01*
X-121171Y354915D01*
X-121215Y354871D01*
X-121263Y354829D01*
X-121312Y354791D01*
X-121364Y354756D01*
X-121418Y354724D01*
X-121474Y354695D01*
X-121532Y354670D01*
X-121591Y354649D01*
X-121651Y354631D01*
X-121713Y354618D01*
X-121775Y354608D01*
X-121837Y354602D01*
X-121900Y354600D01*
X-121963Y354602D01*
X-122025Y354608D01*
X-122087Y354618D01*
X-122149Y354631D01*
X-122209Y354649D01*
X-122268Y354670D01*
X-122326Y354695D01*
X-122382Y354724D01*
X-122436Y354756D01*
X-122488Y354791D01*
X-122537Y354829D01*
X-122585Y354871D01*
X-122629Y354915D01*
X-122671Y354963D01*
X-122709Y355012D01*
X-122744Y355064D01*
X-122776Y355118D01*
X-122805Y355174D01*
X-122830Y355232D01*
X-122851Y355291D01*
X-122869Y355351D01*
X-122882Y355413D01*
X-122892Y355475D01*
X-122898Y355537D01*
X-122900Y355600D01*
D11*
X-101600Y-170440D02*
X-101600Y-373640D01*
X101600Y-373640D02*
X101600Y-170440D01*
D12*
X-77200Y-164758D02*
X-77198Y-164695D01*
X-77192Y-164633D01*
X-77182Y-164571D01*
X-77169Y-164509D01*
X-77151Y-164449D01*
X-77130Y-164390D01*
X-77105Y-164332D01*
X-77076Y-164276D01*
X-77044Y-164222D01*
X-77009Y-164170D01*
X-76971Y-164121D01*
X-76929Y-164073D01*
X-76885Y-164029D01*
X-76837Y-163987D01*
X-76788Y-163949D01*
X-76736Y-163914D01*
X-76682Y-163882D01*
X-76626Y-163853D01*
X-76568Y-163828D01*
X-76509Y-163807D01*
X-76449Y-163789D01*
X-76387Y-163776D01*
X-76325Y-163766D01*
X-76263Y-163760D01*
X-76200Y-163758D01*
X-76137Y-163760D01*
X-76075Y-163766D01*
X-76013Y-163776D01*
X-75951Y-163789D01*
X-75891Y-163807D01*
X-75832Y-163828D01*
X-75774Y-163853D01*
X-75718Y-163882D01*
X-75664Y-163914D01*
X-75612Y-163949D01*
X-75563Y-163987D01*
X-75515Y-164029D01*
X-75471Y-164073D01*
X-75429Y-164121D01*
X-75391Y-164170D01*
X-75356Y-164222D01*
X-75324Y-164276D01*
X-75295Y-164332D01*
X-75270Y-164390D01*
X-75249Y-164449D01*
X-75231Y-164509D01*
X-75218Y-164571D01*
X-75208Y-164633D01*
X-75202Y-164695D01*
X-75200Y-164758D01*
X-75202Y-164821D01*
X-75208Y-164883D01*
X-75218Y-164945D01*
X-75231Y-165007D01*
X-75249Y-165067D01*
X-75270Y-165126D01*
X-75295Y-165184D01*
X-75324Y-165240D01*
X-75356Y-165294D01*
X-75391Y-165346D01*
X-75429Y-165395D01*
X-75471Y-165443D01*
X-75515Y-165487D01*
X-75563Y-165529D01*
X-75612Y-165567D01*
X-75664Y-165602D01*
X-75718Y-165634D01*
X-75774Y-165663D01*
X-75832Y-165688D01*
X-75891Y-165709D01*
X-75951Y-165727D01*
X-76013Y-165740D01*
X-76075Y-165750D01*
X-76137Y-165756D01*
X-76200Y-165758D01*
X-76263Y-165756D01*
X-76325Y-165750D01*
X-76387Y-165740D01*
X-76449Y-165727D01*
X-76509Y-165709D01*
X-76568Y-165688D01*
X-76626Y-165663D01*
X-76682Y-165634D01*
X-76736Y-165602D01*
X-76788Y-165567D01*
X-76837Y-165529D01*
X-76885Y-165487D01*
X-76929Y-165443D01*
X-76971Y-165395D01*
X-77009Y-165346D01*
X-77044Y-165294D01*
X-77076Y-165240D01*
X-77105Y-165184D01*
X-77130Y-165126D01*
X-77151Y-165067D01*
X-77169Y-165007D01*
X-77182Y-164945D01*
X-77192Y-164883D01*
X-77198Y-164821D01*
X-77200Y-164758D01*
D11*
X-65000Y-373640D02*
X65000Y-373640D01*
X65000Y-170440D02*
X-65000Y-170440D01*
X-88900Y-170440D02*
X-101600Y-170440D01*
X88900Y-170440D02*
X101600Y-170440D01*
X-88900Y-373640D02*
X-101600Y-373640D01*
X88900Y-373640D02*
X101600Y-373640D01*
D10*
X-241935Y-78662D02*
X-241935Y53262D01*
X-212338Y-92710D02*
X-189865Y-92710D01*
X-189865Y-75325D01*
X-189865Y67310D02*
X-212338Y67310D01*
X-189865Y67310D02*
X-189865Y49925D01*
D13*
X-196135Y81280D02*
X-196257Y81282D01*
X-196379Y81288D01*
X-196501Y81298D01*
X-196622Y81311D01*
X-196743Y81329D01*
X-196863Y81350D01*
X-196983Y81376D01*
X-197101Y81405D01*
X-197219Y81437D01*
X-197336Y81474D01*
X-197451Y81514D01*
X-197565Y81558D01*
X-197677Y81606D01*
X-197788Y81657D01*
X-197897Y81712D01*
X-198005Y81770D01*
X-198110Y81832D01*
X-198213Y81897D01*
X-198315Y81965D01*
X-198414Y82037D01*
X-198510Y82111D01*
X-198605Y82189D01*
X-198696Y82270D01*
X-198786Y82353D01*
X-198872Y82439D01*
X-198955Y82529D01*
X-199036Y82620D01*
X-199114Y82715D01*
X-199188Y82811D01*
X-199260Y82910D01*
X-199328Y83012D01*
X-199393Y83115D01*
X-199455Y83220D01*
X-199513Y83328D01*
X-199568Y83437D01*
X-199619Y83548D01*
X-199667Y83660D01*
X-199711Y83774D01*
X-199751Y83889D01*
X-199788Y84006D01*
X-199820Y84124D01*
X-199849Y84242D01*
X-199875Y84362D01*
X-199896Y84482D01*
X-199914Y84603D01*
X-199927Y84724D01*
X-199937Y84846D01*
X-199943Y84968D01*
X-199945Y85090D01*
X-199943Y85212D01*
X-199937Y85334D01*
X-199927Y85456D01*
X-199914Y85577D01*
X-199896Y85698D01*
X-199875Y85818D01*
X-199849Y85938D01*
X-199820Y86056D01*
X-199788Y86174D01*
X-199751Y86291D01*
X-199711Y86406D01*
X-199667Y86520D01*
X-199619Y86632D01*
X-199568Y86743D01*
X-199513Y86852D01*
X-199455Y86960D01*
X-199393Y87065D01*
X-199328Y87168D01*
X-199260Y87270D01*
X-199188Y87369D01*
X-199114Y87465D01*
X-199036Y87560D01*
X-198955Y87651D01*
X-198872Y87741D01*
X-198786Y87827D01*
X-198696Y87910D01*
X-198605Y87991D01*
X-198510Y88069D01*
X-198414Y88143D01*
X-198315Y88215D01*
X-198213Y88283D01*
X-198110Y88348D01*
X-198005Y88410D01*
X-197897Y88468D01*
X-197788Y88523D01*
X-197677Y88574D01*
X-197565Y88622D01*
X-197451Y88666D01*
X-197336Y88706D01*
X-197219Y88743D01*
X-197101Y88775D01*
X-196983Y88804D01*
X-196863Y88830D01*
X-196743Y88851D01*
X-196622Y88869D01*
X-196501Y88882D01*
X-196379Y88892D01*
X-196257Y88898D01*
X-196135Y88900D01*
X-196013Y88898D01*
X-195891Y88892D01*
X-195769Y88882D01*
X-195648Y88869D01*
X-195527Y88851D01*
X-195407Y88830D01*
X-195287Y88804D01*
X-195169Y88775D01*
X-195051Y88743D01*
X-194934Y88706D01*
X-194819Y88666D01*
X-194705Y88622D01*
X-194593Y88574D01*
X-194482Y88523D01*
X-194373Y88468D01*
X-194265Y88410D01*
X-194160Y88348D01*
X-194057Y88283D01*
X-193955Y88215D01*
X-193856Y88143D01*
X-193760Y88069D01*
X-193665Y87991D01*
X-193574Y87910D01*
X-193484Y87827D01*
X-193398Y87741D01*
X-193315Y87651D01*
X-193234Y87560D01*
X-193156Y87465D01*
X-193082Y87369D01*
X-193010Y87270D01*
X-192942Y87168D01*
X-192877Y87065D01*
X-192815Y86960D01*
X-192757Y86852D01*
X-192702Y86743D01*
X-192651Y86632D01*
X-192603Y86520D01*
X-192559Y86406D01*
X-192519Y86291D01*
X-192482Y86174D01*
X-192450Y86056D01*
X-192421Y85938D01*
X-192395Y85818D01*
X-192374Y85698D01*
X-192356Y85577D01*
X-192343Y85456D01*
X-192333Y85334D01*
X-192327Y85212D01*
X-192325Y85090D01*
X-192327Y84968D01*
X-192333Y84846D01*
X-192343Y84724D01*
X-192356Y84603D01*
X-192374Y84482D01*
X-192395Y84362D01*
X-192421Y84242D01*
X-192450Y84124D01*
X-192482Y84006D01*
X-192519Y83889D01*
X-192559Y83774D01*
X-192603Y83660D01*
X-192651Y83548D01*
X-192702Y83437D01*
X-192757Y83328D01*
X-192815Y83220D01*
X-192877Y83115D01*
X-192942Y83012D01*
X-193010Y82910D01*
X-193082Y82811D01*
X-193156Y82715D01*
X-193234Y82620D01*
X-193315Y82529D01*
X-193398Y82439D01*
X-193484Y82353D01*
X-193574Y82270D01*
X-193665Y82189D01*
X-193760Y82111D01*
X-193856Y82037D01*
X-193955Y81965D01*
X-194057Y81897D01*
X-194160Y81832D01*
X-194265Y81770D01*
X-194373Y81712D01*
X-194482Y81657D01*
X-194593Y81606D01*
X-194705Y81558D01*
X-194819Y81514D01*
X-194934Y81474D01*
X-195051Y81437D01*
X-195169Y81405D01*
X-195287Y81376D01*
X-195407Y81350D01*
X-195527Y81329D01*
X-195648Y81311D01*
X-195769Y81298D01*
X-195891Y81288D01*
X-196013Y81282D01*
X-196135Y81280D01*
M02*
