G04 EAGLE Gerber RS-274X export*
G75*
%MOMM*%
%FSLAX34Y34*%
%LPD*%
%INSoldermask Bottom*%
%IPPOS*%
%AMOC8*
5,1,8,0,0,1.08239X$1,22.5*%
G01*
G04 Define Apertures*
%ADD10C,3.378200*%
%ADD11C,1.551200*%
%ADD12C,1.463200*%
%ADD13C,2.183200*%
%ADD14C,0.959600*%
D10*
X-227965Y-418465D03*
X100965Y-418465D03*
X-227965Y354965D03*
D11*
X-152400Y-190500D03*
X-152400Y-165500D03*
X-152400Y-140500D03*
X-152400Y266700D03*
X-152400Y291700D03*
X-152400Y316700D03*
X-152400Y341700D03*
X-152400Y-330200D03*
X-152400Y-305200D03*
X-152400Y-280200D03*
X-152400Y-255200D03*
X25400Y-406400D03*
X400Y-406400D03*
X-24600Y-406400D03*
X-152400Y152400D03*
X-152400Y177400D03*
X-152400Y202400D03*
D12*
X-203200Y-188600D03*
X-203200Y-116200D03*
X-228600Y-188600D03*
X-228600Y-116200D03*
D13*
X-76200Y-360940D03*
X-76200Y-335540D03*
X-76200Y-310140D03*
X-76200Y-284740D03*
X-76200Y-259340D03*
X-76200Y-233940D03*
X-76200Y-208540D03*
X-76200Y-183140D03*
X76200Y-183140D03*
X76200Y-208540D03*
X76200Y-233940D03*
X76200Y-259340D03*
X76200Y-284740D03*
X76200Y-310140D03*
X76200Y-335540D03*
X76200Y-360940D03*
D14*
X-25400Y-190500D03*
X-203200Y63500D03*
X-165100Y-114300D03*
X-76200Y177800D03*
X76200Y177800D03*
X-76200Y50800D03*
X76200Y50800D03*
X76200Y-76200D03*
X-76200Y-76200D03*
X0Y-101600D03*
X-177800Y-63500D03*
X-76200Y304800D03*
X76200Y304800D03*
X25400Y88900D03*
X38100Y165100D03*
X-137160Y-60960D03*
X-50800Y-50800D03*
X-127000Y-88900D03*
X-127000Y-114300D03*
M02*
