  0
SECTION
  2
HEADER
  9
$ACADVER
  1
AC2.22
  9
$INSBASE
 10
0.0
 20
0.0
 30
0.0
  9
$EXTMIN
 10
0.0
 20
0.0
 30
0.0
  9
$EXTMAX
 10
0.0
 20
0.0
 30
0.0
  9
$LIMMIN
 10
0.0
 20
0.0
  9
$LIMMAX
 10
12.0
 20
9.0
  9
$ORTHOMODE
 70
     0
  9
$REGENMODE
 70
     1
  9
$FILLMODE
 70
     1
  9
$QTEXTMODE
 70
     0
  9
$MIRRTEXT
 70
     0
  9
$DRAGMODE
 70
     2
  9
$LTSCALE
 40
1.0
  9
$OSMODE
 70
    37
  9
$ATTMODE
 70
     1
  9
$TEXTSIZE
 40
0.2
  9
$TRACEWID
 40
0.05
  9
$TEXTSTYLE
  7
STANDARD
  9
$CLAYER
  8
0
  9
$CELTYPE
  6
BYLAYER
  9
$CECOLOR
 62
   256
  9
$DIMSCALE
 40
1.0
  9
$DIMASZ
 40
0.18
  9
$DIMEXO
 40
0.0625
  9
$DIMDLI
 40
0.38
  9
$DIMRND
 40
0.0
  9
$DIMDLE
 40
0.0
  9
$DIMEXE
 40
0.18
  9
$DIMTP
 40
0.0
  9
$DIMTM
 40
0.0
  9
$DIMTXT
 40
0.18
  9
$DIMCEN
 40
0.09
  9
$DIMTSZ
 40
0.0
  9
$DIMTOL
 70
     0
  9
$DIMLIM
 70
     0
  9
$DIMTIH
 70
     1
  9
$DIMTOH
 70
     1
  9
$DIMTAD
 70
     0
  9
$DIMZIN
 70
     0
  9
$DIMBLK
  1

  9
$DIMASO
 70
     1
  9
$DIMSHO
 70
     1
  9
$DIMPOST
  1

  9
$DIMAPOST
  1

  9
$DIMALT
 70
     0
  9
$DIMALTD
 70
     2
  9
$DIMALTF
 40
25.4
  9
$DIMLFAC
 40
1.0
  9
$DIMTOFL
 70
     0
  9
$DIMTVP
 40
0.0
  9
$DIMTIX
 70
     0
  9
$DIMSOXD
 70
     0
  9
$DIMSAH
 70
     0
  9
$DIMBLK1
  1

  9
$DIMBLK2
  1

  9
$DIMSTYLE
  2
STANDARD
  9
$LUNITS
 70
     2
  9
$LUPREC
 70
     4
  9
$SKETCHINC
 40
0.1
  9
$FILLETRAD
 40
0.0
  9
$AUNITS
 70
     0
  9
$AUPREC
 70
     0
  9
$MENU
  1
.
  9
$ELEVATION
 40
0.0
  9
$THICKNESS
 40
0.0
  9
$LIMCHECK
 70
     0
  9
$BLIPMODE
 70
     0
  9
$CHAMFERA
 40
0.0
  9
$CHAMFERB
 40
0.0
  9
$SKPOLY
 70
     0
  9
$TDCREATE
 40
2460583.700219907332
  9
$TDUPDATE
 40
2460583.700219907332
  9
$TDINDWG
 40
0.0
  9
$TDUSRTIMER
 40
0.0
  9
$USRTIMER
 70
     1
  9
$ANGBASE
 50
0.0
  9
$ANGDIR
 70
     0
  9
$PDMODE
 70
     0
  9
$PDSIZE
 40
0.0
  9
$PLINEWID
 40
0.0
  9
$COORDS
 70
     1
  9
$SPLFRAME
 70
     0
  9
$SPLINETYPE
 70
     6
  9
$SPLINESEGS
 70
     8
  9
$ATTDIA
 70
     1
  9
$ATTREQ
 70
     1
  9
$HANDLING
 70
     1
  9
$HANDSEED
  5
3BE
  9
$SURFTAB1
 70
     6
  9
$SURFTAB2
 70
     6
  9
$SURFTYPE
 70
     6
  9
$SURFU
 70
     6
  9
$SURFV
 70
     6
  9
$UCSNAME
  2

  9
$UCSORG
 10
0.0
 20
0.0
 30
0.0
  9
$UCSXDIR
 10
1.0
 20
0.0
 30
0.0
  9
$UCSYDIR
 10
0.0
 20
1.0
 30
0.0
  9
$USERI1
 70
     0
  9
$USERI2
 70
     0
  9
$USERI3
 70
     0
  9
$USERI4
 70
     0
  9
$USERI5
 70
     0
  9
$USERR1
 40
0.0
  9
$USERR2
 40
0.0
  9
$USERR3
 40
0.0
  9
$USERR4
 40
0.0
  9
$USERR5
 40
0.0
  9
$WORLDVIEW
 70
     1
  9
$AXISMODE
 70
     0
  9
$AXISUNIT
 10
0.0
 20
0.0
  9
$FASTZOOM
 70
     1
  9
$GRIDMODE
 70
     0
  9
$GRIDUNIT
 10
1.0
 20
1.0
  9
$SNAPANG
 50
0.0
  9
$SNAPBASE
 10
0.0
 20
0.0
  9
$SNAPISOPAIR
 70
     0
  9
$SNAPMODE
 70
     0
  9
$SNAPSTYLE
 70
     0
  9
$SNAPUNIT
 10
1.0
 20
1.0
  9
$VIEWCTR
 10
0.0
 20
0.0
  9
$VIEWDIR
 10
0.0
 20
0.0
 30
1.0
  9
$VIEWSIZE
 40
1.0
  0
ENDSEC
  0
SECTION
  2
TABLES
  0
TABLE
  2
APPID
100
AcDbSymbolTable
 70
     0
  0
APPID
  5
1
100
AcDbSymbolTableRecord
100
AcDbRegAppTableRecord
  2
ACAD
 70
     0
  0
APPID
  5
2
100
AcDbSymbolTableRecord
100
AcDbRegAppTableRecord
  2
ACADANNOTATIVE
 70
     0
  0
APPID
  5
4
100
AcDbSymbolTableRecord
100
AcDbRegAppTableRecord
  2
ACAD_MLEADERVER
 70
     0
  0
APPID
  5
3
100
AcDbSymbolTableRecord
100
AcDbRegAppTableRecord
  2
ACAD_NAV_VCDISPLAY
 70
     0
  0
ENDTAB
  0
TABLE
  2
BLOCK_RECORD
100
AcDbSymbolTable
 70
     0
  0
BLOCK_RECORD
  5
5
100
AcDbSymbolTableRecord
100
AcDbBlockTableRecord
  2
*MODEL_SPACE
 70
     0
  0
BLOCK_RECORD
  5
6
100
AcDbSymbolTableRecord
100
AcDbBlockTableRecord
  2
*PAPER_SPACE
 70
     0
  0
ENDTAB
  0
TABLE
  2
DIMSTYLE
100
AcDbSymbolTable
 70
     0
  0
DIMSTYLE
  5
A
100
AcDbSymbolTableRecord
100
AcDbDimStyleTableRecord
  2
ANNOTATIVE
 70
     0
  3

  4

  6

  7

 40
1.0
 41
0.18
 42
0.0625
 43
0.38
 44
0.18
 45
0.0
 46
0.0
 47
0.0
 48
0.0
 71
     0
 72
     0
 73
     1
 74
     1
 75
     0
 76
     0
 77
     0
 78
     0
140
0.18
141
0.09
142
0.0
143
25.4
144
1.0
145
0.0
146
1.0
147
0.09
170
     0
171
     2
172
     0
173
     0
174
     0
175
     0
176
     0
177
     0
178
     0
  0
DIMSTYLE
  5
9
100
AcDbSymbolTableRecord
100
AcDbDimStyleTableRecord
  2
STANDARD
 70
     0
  3

  4

  6

  7

 40
1.0
 41
0.18
 42
0.0625
 43
0.38
 44
0.18
 45
0.0
 46
0.0
 47
0.0
 48
0.0
 71
     0
 72
     0
 73
     1
 74
     1
 75
     0
 76
     0
 77
     0
 78
     0
140
0.18
141
0.09
142
0.0
143
25.4
144
1.0
145
0.0
146
1.0
147
0.09
170
     0
171
     2
172
     0
173
     0
174
     0
175
     0
176
     0
177
     0
178
     0
  0
ENDTAB
  0
TABLE
  2
LAYER
100
AcDbSymbolTable
 70
     0
  0
LAYER
  5
7
100
AcDbSymbolTableRecord
100
AcDbLayerTableRecord
  2
0
 70
     0
 62
     7
  6
CONTINUOUS
  0
ENDTAB
  0
TABLE
  2
LTYPE
100
AcDbSymbolTable
 70
     0
  0
LTYPE
  5
C
100
AcDbSymbolTableRecord
100
AcDbLinetypeTableRecord
  2
BYBLOCK
 70
     0
  3

 72
    65
 73
     0
 40
0.0
  0
LTYPE
  5
B
100
AcDbSymbolTableRecord
100
AcDbLinetypeTableRecord
  2
BYLAYER
 70
     0
  3

 72
    65
 73
     0
 40
0.0
  0
LTYPE
  5
8
100
AcDbSymbolTableRecord
100
AcDbLinetypeTableRecord
  2
CONTINUOUS
 70
     0
  3

 72
    65
 73
     0
 40
0.0
  0
ENDTAB
  0
TABLE
  2
STYLE
100
AcDbSymbolTable
 70
     0
  0
STYLE
  5
E
100
AcDbSymbolTableRecord
100
AcDbTextStyleTableRecord
  2
ANNOTATIVE
 70
     0
 40
0.0
 41
1.0
 50
0.0
 71
     0
 42
0.2
  3
txt
  4

  0
STYLE
  5
D
100
AcDbSymbolTableRecord
100
AcDbTextStyleTableRecord
  2
STANDARD
 70
     0
 40
0.0
 41
1.0
 50
0.0
 71
     0
 42
0.2
  3
txt
  4

  0
ENDTAB
  0
TABLE
  2
VPORT
100
AcDbSymbolTable
 70
     0
  0
VPORT
  5
F
100
AcDbSymbolTableRecord
100
AcDbViewportTableRecord
  2
*ACTIVE
 70
     0
 10
0.0
 20
0.0
 11
1.0
 21
1.0
 12
0.0
 22
0.0
 13
0.0
 23
0.0
 14
1.0
 24
1.0
 15
1.0
 25
1.0
 16
0.0
 26
0.0
 36
1.0
 17
0.0
 27
0.0
 37
0.0
 40
1.0
 41
1.0
 42
50.0
 43
0.0
 44
0.0
 50
0.0
 51
0.0
 71
     0
 72
  1000
 73
     1
 74
     3
 75
     0
 76
     0
 77
     0
 78
     0
  0
ENDTAB
  0
ENDSEC
  0
SECTION
  2
BLOCKS
  0
BLOCK
  5
10
  8
0
  2
aperture_id_14
 70
     0
 10
0.0
 20
0.0
 30
0.0
  1

  0
LINE
100
AcDbEntity
  8
0
100
AcDbLine
 10
1.397
 20
0.5461
 30
0.0
 11
-1.397
 21
0.5461
 31
0.0
  0
LINE
100
AcDbEntity
  8
0
100
AcDbLine
 10
-1.397
 20
0.5461
 30
0.0
 11
-1.397
 21
-0.5461
 31
0.0
  0
LINE
100
AcDbEntity
  8
0
100
AcDbLine
 10
-1.397
 20
-0.5461
 30
0.0
 11
1.397
 21
-0.5461
 31
0.0
  0
LINE
100
AcDbEntity
  8
0
100
AcDbLine
 10
1.397
 20
-0.5461
 30
0.0
 11
1.397
 21
0.5461
 31
0.0
  0
ENDBLK
  5
10
  8
0
  0
BLOCK
  5
11
  8
0
  2
aperture_id_11
 70
     0
 10
0.0
 20
0.0
 30
0.0
  1

  0
CIRCLE
100
AcDbEntity
  8
0
100
AcDbCircle
 10
0.0
 20
0.0
 30
0.0
 40
1.1
  0
ENDBLK
  5
11
  8
0
  0
BLOCK
  5
12
  8
0
  2
aperture_id_12
 70
     0
 10
0.0
 20
0.0
 30
0.0
  1

  0
CIRCLE
100
AcDbEntity
  8
0
100
AcDbCircle
 10
0.0
 20
0.0
 30
0.0
 40
1.05
  0
ENDBLK
  5
12
  8
0
  0
BLOCK
  5
13
  8
0
  2
aperture_id_15
 70
     0
 10
0.0
 20
0.0
 30
0.0
  1

  0
CIRCLE
100
AcDbEntity
  8
0
100
AcDbCircle
 10
0.0
 20
0.0
 30
0.0
 40
0.254
  0
ENDBLK
  5
13
  8
0
  0
BLOCK
  5
14
  8
0
  2
aperture_id_13
 70
     0
 10
0.0
 20
0.0
 30
0.0
  1

  0
LINE
100
AcDbEntity
  8
0
100
AcDbLine
 10
0.8509
 20
0.3048
 30
0.0
 11
-0.8509
 21
0.3048
 31
0.0
  0
LINE
100
AcDbEntity
  8
0
100
AcDbLine
 10
-0.8509
 20
0.3048
 30
0.0
 11
-0.8509
 21
-0.3048
 31
0.0
  0
LINE
100
AcDbEntity
  8
0
100
AcDbLine
 10
-0.8509
 20
-0.3048
 30
0.0
 11
0.8509
 21
-0.3048
 31
0.0
  0
LINE
100
AcDbEntity
  8
0
100
AcDbLine
 10
0.8509
 20
-0.3048
 30
0.0
 11
0.8509
 21
0.3048
 31
0.0
  0
ENDBLK
  5
14
  8
0
  0
BLOCK
  5
15
  8
0
  2
aperture_id_10
 70
     0
 10
0.0
 20
0.0
 30
0.0
  1

  0
CIRCLE
100
AcDbEntity
  8
0
100
AcDbCircle
 10
0.0
 20
0.0
 30
0.0
 40
0.6
  0
ENDBLK
  5
15
  8
0
  0
ENDSEC
  0
SECTION
  2
ENTITIES
  0
LINE
  5
16
100
AcDbEntity
  8
0
100
AcDbLine
 10
-8.2369
 20
-8.4181
 30
0.0
 11
-8.2897
 21
-8.425
 31
0.0
  0
LINE
  5
17
100
AcDbEntity
  8
0
100
AcDbLine
 10
-8.2897
 20
-8.425
 30
0.0
 11
-11.295
 21
-8.425
 31
0.0
  0
LINE
  5
18
100
AcDbEntity
  8
0
100
AcDbLine
 10
-11.295
 20
-8.425
 30
0.0
 11
-11.295
 21
-6.815
 31
0.0
  0
LINE
  5
19
100
AcDbEntity
  8
0
100
AcDbLine
 10
-11.295
 20
-6.815
 30
0.0
 11
-8.2897
 21
-6.815
 31
0.0
  0
LINE
  5
1A
100
AcDbEntity
  8
0
100
AcDbLine
 10
-8.2897
 20
-6.815
 30
0.0
 11
-8.2369
 21
-6.8219
 31
0.0
  0
LINE
  5
1B
100
AcDbEntity
  8
0
100
AcDbLine
 10
-8.2369
 20
-6.8219
 30
0.0
 11
-8.1875
 21
-6.8424
 31
0.0
  0
LINE
  5
1C
100
AcDbEntity
  8
0
100
AcDbLine
 10
-8.1875
 20
-6.8424
 30
0.0
 11
-8.145
 21
-6.875
 31
0.0
  0
LINE
  5
1D
100
AcDbEntity
  8
0
100
AcDbLine
 10
-8.145
 20
-6.875
 30
0.0
 11
-8.1124
 21
-6.9175
 31
0.0
  0
LINE
  5
1E
100
AcDbEntity
  8
0
100
AcDbLine
 10
-8.1124
 20
-6.9175
 30
0.0
 11
-8.0919
 21
-6.9669
 31
0.0
  0
LINE
  5
1F
100
AcDbEntity
  8
0
100
AcDbLine
 10
-8.0919
 20
-6.9669
 30
0.0
 11
-8.085
 21
-7.0197
 31
0.0
  0
LINE
  5
20
100
AcDbEntity
  8
0
100
AcDbLine
 10
-8.085
 20
-7.0197
 30
0.0
 11
-8.085
 21
-8.2203
 31
0.0
  0
LINE
  5
21
100
AcDbEntity
  8
0
100
AcDbLine
 10
-8.085
 20
-8.2203
 30
0.0
 11
-8.0919
 21
-8.2731
 31
0.0
  0
LINE
  5
22
100
AcDbEntity
  8
0
100
AcDbLine
 10
-8.0919
 20
-8.2731
 30
0.0
 11
-8.1124
 21
-8.3225
 31
0.0
  0
LINE
  5
23
100
AcDbEntity
  8
0
100
AcDbLine
 10
-8.1124
 20
-8.3225
 30
0.0
 11
-8.145
 21
-8.365
 31
0.0
  0
LINE
  5
24
100
AcDbEntity
  8
0
100
AcDbLine
 10
-8.145
 20
-8.365
 30
0.0
 11
-8.1875
 21
-8.3976
 31
0.0
  0
LINE
  5
25
100
AcDbEntity
  8
0
100
AcDbLine
 10
-8.1875
 20
-8.3976
 30
0.0
 11
-8.2369
 21
-8.4181
 31
0.0
  0
LINE
  5
26
100
AcDbEntity
  8
0
100
AcDbLine
 10
-8.2369
 20
4.2819
 30
0.0
 11
-8.2897
 21
4.275
 31
0.0
  0
LINE
  5
27
100
AcDbEntity
  8
0
100
AcDbLine
 10
-8.2897
 20
4.275
 30
0.0
 11
-11.295
 21
4.275
 31
0.0
  0
LINE
  5
28
100
AcDbEntity
  8
0
100
AcDbLine
 10
-11.295
 20
4.275
 30
0.0
 11
-11.295
 21
5.885
 31
0.0
  0
LINE
  5
29
100
AcDbEntity
  8
0
100
AcDbLine
 10
-11.295
 20
5.885
 30
0.0
 11
-8.2897
 21
5.885
 31
0.0
  0
LINE
  5
2A
100
AcDbEntity
  8
0
100
AcDbLine
 10
-8.2897
 20
5.885
 30
0.0
 11
-8.2369
 21
5.8781
 31
0.0
  0
LINE
  5
2B
100
AcDbEntity
  8
0
100
AcDbLine
 10
-8.2369
 20
5.8781
 30
0.0
 11
-8.1875
 21
5.8576
 31
0.0
  0
LINE
  5
2C
100
AcDbEntity
  8
0
100
AcDbLine
 10
-8.1875
 20
5.8576
 30
0.0
 11
-8.145
 21
5.825
 31
0.0
  0
LINE
  5
2D
100
AcDbEntity
  8
0
100
AcDbLine
 10
-8.145
 20
5.825
 30
0.0
 11
-8.1124
 21
5.7825
 31
0.0
  0
LINE
  5
2E
100
AcDbEntity
  8
0
100
AcDbLine
 10
-8.1124
 20
5.7825
 30
0.0
 11
-8.0919
 21
5.7331
 31
0.0
  0
LINE
  5
2F
100
AcDbEntity
  8
0
100
AcDbLine
 10
-8.0919
 20
5.7331
 30
0.0
 11
-8.085
 21
5.6803
 31
0.0
  0
LINE
  5
30
100
AcDbEntity
  8
0
100
AcDbLine
 10
-8.085
 20
5.6803
 30
0.0
 11
-8.085
 21
4.4797
 31
0.0
  0
LINE
  5
31
100
AcDbEntity
  8
0
100
AcDbLine
 10
-8.085
 20
4.4797
 30
0.0
 11
-8.0919
 21
4.4269
 31
0.0
  0
LINE
  5
32
100
AcDbEntity
  8
0
100
AcDbLine
 10
-8.0919
 20
4.4269
 30
0.0
 11
-8.1124
 21
4.3775
 31
0.0
  0
LINE
  5
33
100
AcDbEntity
  8
0
100
AcDbLine
 10
-8.1124
 20
4.3775
 30
0.0
 11
-8.145
 21
4.335
 31
0.0
  0
LINE
  5
34
100
AcDbEntity
  8
0
100
AcDbLine
 10
-8.145
 20
4.335
 30
0.0
 11
-8.1875
 21
4.3024
 31
0.0
  0
LINE
  5
35
100
AcDbEntity
  8
0
100
AcDbLine
 10
-8.1875
 20
4.3024
 30
0.0
 11
-8.2369
 21
4.2819
 31
0.0
  0
LINE
  5
36
100
AcDbEntity
  8
0
100
AcDbLine
 10
-8.2369
 20
16.9819
 30
0.0
 11
-8.2897
 21
16.975
 31
0.0
  0
LINE
  5
37
100
AcDbEntity
  8
0
100
AcDbLine
 10
-8.2897
 20
16.975
 30
0.0
 11
-11.295
 21
16.975
 31
0.0
  0
LINE
  5
38
100
AcDbEntity
  8
0
100
AcDbLine
 10
-11.295
 20
16.975
 30
0.0
 11
-11.295
 21
18.585
 31
0.0
  0
LINE
  5
39
100
AcDbEntity
  8
0
100
AcDbLine
 10
-11.295
 20
18.585
 30
0.0
 11
-8.2897
 21
18.585
 31
0.0
  0
LINE
  5
3A
100
AcDbEntity
  8
0
100
AcDbLine
 10
-8.2897
 20
18.585
 30
0.0
 11
-8.2369
 21
18.5781
 31
0.0
  0
LINE
  5
3B
100
AcDbEntity
  8
0
100
AcDbLine
 10
-8.2369
 20
18.5781
 30
0.0
 11
-8.1875
 21
18.5576
 31
0.0
  0
LINE
  5
3C
100
AcDbEntity
  8
0
100
AcDbLine
 10
-8.1875
 20
18.5576
 30
0.0
 11
-8.145
 21
18.525
 31
0.0
  0
LINE
  5
3D
100
AcDbEntity
  8
0
100
AcDbLine
 10
-8.145
 20
18.525
 30
0.0
 11
-8.1124
 21
18.4825
 31
0.0
  0
LINE
  5
3E
100
AcDbEntity
  8
0
100
AcDbLine
 10
-8.1124
 20
18.4825
 30
0.0
 11
-8.0919
 21
18.4331
 31
0.0
  0
LINE
  5
3F
100
AcDbEntity
  8
0
100
AcDbLine
 10
-8.0919
 20
18.4331
 30
0.0
 11
-8.085
 21
18.3803
 31
0.0
  0
LINE
  5
40
100
AcDbEntity
  8
0
100
AcDbLine
 10
-8.085
 20
18.3803
 30
0.0
 11
-8.085
 21
17.1797
 31
0.0
  0
LINE
  5
41
100
AcDbEntity
  8
0
100
AcDbLine
 10
-8.085
 20
17.1797
 30
0.0
 11
-8.0919
 21
17.1269
 31
0.0
  0
LINE
  5
42
100
AcDbEntity
  8
0
100
AcDbLine
 10
-8.0919
 20
17.1269
 30
0.0
 11
-8.1124
 21
17.0775
 31
0.0
  0
LINE
  5
43
100
AcDbEntity
  8
0
100
AcDbLine
 10
-8.1124
 20
17.0775
 30
0.0
 11
-8.145
 21
17.035
 31
0.0
  0
LINE
  5
44
100
AcDbEntity
  8
0
100
AcDbLine
 10
-8.145
 20
17.035
 30
0.0
 11
-8.1875
 21
17.0024
 31
0.0
  0
LINE
  5
45
100
AcDbEntity
  8
0
100
AcDbLine
 10
-8.1875
 20
17.0024
 30
0.0
 11
-8.2369
 21
16.9819
 31
0.0
  0
LINE
  5
46
100
AcDbEntity
  8
0
100
AcDbLine
 10
-8.2369
 20
29.6819
 30
0.0
 11
-8.2897
 21
29.675
 31
0.0
  0
LINE
  5
47
100
AcDbEntity
  8
0
100
AcDbLine
 10
-8.2897
 20
29.675
 30
0.0
 11
-11.295
 21
29.675
 31
0.0
  0
LINE
  5
48
100
AcDbEntity
  8
0
100
AcDbLine
 10
-11.295
 20
29.675
 30
0.0
 11
-11.295
 21
31.285
 31
0.0
  0
LINE
  5
49
100
AcDbEntity
  8
0
100
AcDbLine
 10
-11.295
 20
31.285
 30
0.0
 11
-8.2897
 21
31.285
 31
0.0
  0
LINE
  5
4A
100
AcDbEntity
  8
0
100
AcDbLine
 10
-8.2897
 20
31.285
 30
0.0
 11
-8.2369
 21
31.2781
 31
0.0
  0
LINE
  5
4B
100
AcDbEntity
  8
0
100
AcDbLine
 10
-8.2369
 20
31.2781
 30
0.0
 11
-8.1875
 21
31.2576
 31
0.0
  0
LINE
  5
4C
100
AcDbEntity
  8
0
100
AcDbLine
 10
-8.1875
 20
31.2576
 30
0.0
 11
-8.145
 21
31.225
 31
0.0
  0
LINE
  5
4D
100
AcDbEntity
  8
0
100
AcDbLine
 10
-8.145
 20
31.225
 30
0.0
 11
-8.1124
 21
31.1825
 31
0.0
  0
LINE
  5
4E
100
AcDbEntity
  8
0
100
AcDbLine
 10
-8.1124
 20
31.1825
 30
0.0
 11
-8.0919
 21
31.1331
 31
0.0
  0
LINE
  5
4F
100
AcDbEntity
  8
0
100
AcDbLine
 10
-8.0919
 20
31.1331
 30
0.0
 11
-8.085
 21
31.0803
 31
0.0
  0
LINE
  5
50
100
AcDbEntity
  8
0
100
AcDbLine
 10
-8.085
 20
31.0803
 30
0.0
 11
-8.085
 21
29.8797
 31
0.0
  0
LINE
  5
51
100
AcDbEntity
  8
0
100
AcDbLine
 10
-8.085
 20
29.8797
 30
0.0
 11
-8.0919
 21
29.8269
 31
0.0
  0
LINE
  5
52
100
AcDbEntity
  8
0
100
AcDbLine
 10
-8.0919
 20
29.8269
 30
0.0
 11
-8.1124
 21
29.7775
 31
0.0
  0
LINE
  5
53
100
AcDbEntity
  8
0
100
AcDbLine
 10
-8.1124
 20
29.7775
 30
0.0
 11
-8.145
 21
29.735
 31
0.0
  0
LINE
  5
54
100
AcDbEntity
  8
0
100
AcDbLine
 10
-8.145
 20
29.735
 30
0.0
 11
-8.1875
 21
29.7024
 31
0.0
  0
LINE
  5
55
100
AcDbEntity
  8
0
100
AcDbLine
 10
-8.1875
 20
29.7024
 30
0.0
 11
-8.2369
 21
29.6819
 31
0.0
  0
LINE
  5
56
100
AcDbEntity
  8
0
100
AcDbLine
 10
0.805
 20
-11.8697
 30
0.0
 11
0.805
 21
-14.875
 31
0.0
  0
LINE
  5
57
100
AcDbEntity
  8
0
100
AcDbLine
 10
0.805
 20
-14.875
 30
0.0
 11
-0.805
 21
-14.875
 31
0.0
  0
LINE
  5
58
100
AcDbEntity
  8
0
100
AcDbLine
 10
-0.805
 20
-14.875
 30
0.0
 11
-0.805
 21
-11.8697
 31
0.0
  0
LINE
  5
59
100
AcDbEntity
  8
0
100
AcDbLine
 10
-0.805
 20
-11.8697
 30
0.0
 11
-0.7981
 21
-11.8169
 31
0.0
  0
LINE
  5
5A
100
AcDbEntity
  8
0
100
AcDbLine
 10
-0.7981
 20
-11.8169
 30
0.0
 11
-0.7776
 21
-11.7675
 31
0.0
  0
LINE
  5
5B
100
AcDbEntity
  8
0
100
AcDbLine
 10
-0.7776
 20
-11.7675
 30
0.0
 11
-0.745
 21
-11.725
 31
0.0
  0
LINE
  5
5C
100
AcDbEntity
  8
0
100
AcDbLine
 10
-0.745
 20
-11.725
 30
0.0
 11
-0.7025
 21
-11.6924
 31
0.0
  0
LINE
  5
5D
100
AcDbEntity
  8
0
100
AcDbLine
 10
-0.7025
 20
-11.6924
 30
0.0
 11
-0.6531
 21
-11.6719
 31
0.0
  0
LINE
  5
5E
100
AcDbEntity
  8
0
100
AcDbLine
 10
-0.6531
 20
-11.6719
 30
0.0
 11
-0.6003
 21
-11.665
 31
0.0
  0
LINE
  5
5F
100
AcDbEntity
  8
0
100
AcDbLine
 10
-0.6003
 20
-11.665
 30
0.0
 11
0.6003
 21
-11.665
 31
0.0
  0
LINE
  5
60
100
AcDbEntity
  8
0
100
AcDbLine
 10
0.6003
 20
-11.665
 30
0.0
 11
0.6531
 21
-11.6719
 31
0.0
  0
LINE
  5
61
100
AcDbEntity
  8
0
100
AcDbLine
 10
0.6531
 20
-11.6719
 30
0.0
 11
0.7025
 21
-11.6924
 31
0.0
  0
LINE
  5
62
100
AcDbEntity
  8
0
100
AcDbLine
 10
0.7025
 20
-11.6924
 30
0.0
 11
0.745
 21
-11.725
 31
0.0
  0
LINE
  5
63
100
AcDbEntity
  8
0
100
AcDbLine
 10
0.745
 20
-11.725
 30
0.0
 11
0.7776
 21
-11.7675
 31
0.0
  0
LINE
  5
64
100
AcDbEntity
  8
0
100
AcDbLine
 10
0.7776
 20
-11.7675
 30
0.0
 11
0.7981
 21
-11.8169
 31
0.0
  0
LINE
  5
65
100
AcDbEntity
  8
0
100
AcDbLine
 10
0.7981
 20
-11.8169
 30
0.0
 11
0.805
 21
-11.8697
 31
0.0
  0
LINE
  5
66
100
AcDbEntity
  8
0
100
AcDbLine
 10
11.295
 20
-6.815
 30
0.0
 11
11.295
 21
-8.425
 31
0.0
  0
LINE
  5
67
100
AcDbEntity
  8
0
100
AcDbLine
 10
11.295
 20
-8.425
 30
0.0
 11
8.2897
 21
-8.425
 31
0.0
  0
LINE
  5
68
100
AcDbEntity
  8
0
100
AcDbLine
 10
8.2897
 20
-8.425
 30
0.0
 11
8.2369
 21
-8.4181
 31
0.0
  0
LINE
  5
69
100
AcDbEntity
  8
0
100
AcDbLine
 10
8.2369
 20
-8.4181
 30
0.0
 11
8.1875
 21
-8.3976
 31
0.0
  0
LINE
  5
6A
100
AcDbEntity
  8
0
100
AcDbLine
 10
8.1875
 20
-8.3976
 30
0.0
 11
8.145
 21
-8.365
 31
0.0
  0
LINE
  5
6B
100
AcDbEntity
  8
0
100
AcDbLine
 10
8.145
 20
-8.365
 30
0.0
 11
8.1124
 21
-8.3225
 31
0.0
  0
LINE
  5
6C
100
AcDbEntity
  8
0
100
AcDbLine
 10
8.1124
 20
-8.3225
 30
0.0
 11
8.0919
 21
-8.2731
 31
0.0
  0
LINE
  5
6D
100
AcDbEntity
  8
0
100
AcDbLine
 10
8.0919
 20
-8.2731
 30
0.0
 11
8.085
 21
-8.2203
 31
0.0
  0
LINE
  5
6E
100
AcDbEntity
  8
0
100
AcDbLine
 10
8.085
 20
-8.2203
 30
0.0
 11
8.085
 21
-7.0197
 31
0.0
  0
LINE
  5
6F
100
AcDbEntity
  8
0
100
AcDbLine
 10
8.085
 20
-7.0197
 30
0.0
 11
8.0919
 21
-6.9669
 31
0.0
  0
LINE
  5
70
100
AcDbEntity
  8
0
100
AcDbLine
 10
8.0919
 20
-6.9669
 30
0.0
 11
8.1124
 21
-6.9175
 31
0.0
  0
LINE
  5
71
100
AcDbEntity
  8
0
100
AcDbLine
 10
8.1124
 20
-6.9175
 30
0.0
 11
8.145
 21
-6.875
 31
0.0
  0
LINE
  5
72
100
AcDbEntity
  8
0
100
AcDbLine
 10
8.145
 20
-6.875
 30
0.0
 11
8.1875
 21
-6.8424
 31
0.0
  0
LINE
  5
73
100
AcDbEntity
  8
0
100
AcDbLine
 10
8.1875
 20
-6.8424
 30
0.0
 11
8.2369
 21
-6.8219
 31
0.0
  0
LINE
  5
74
100
AcDbEntity
  8
0
100
AcDbLine
 10
8.2369
 20
-6.8219
 30
0.0
 11
8.2897
 21
-6.815
 31
0.0
  0
LINE
  5
75
100
AcDbEntity
  8
0
100
AcDbLine
 10
8.2897
 20
-6.815
 30
0.0
 11
11.295
 21
-6.815
 31
0.0
  0
LINE
  5
76
100
AcDbEntity
  8
0
100
AcDbLine
 10
11.295
 20
5.885
 30
0.0
 11
11.295
 21
4.275
 31
0.0
  0
LINE
  5
77
100
AcDbEntity
  8
0
100
AcDbLine
 10
11.295
 20
4.275
 30
0.0
 11
8.2897
 21
4.275
 31
0.0
  0
LINE
  5
78
100
AcDbEntity
  8
0
100
AcDbLine
 10
8.2897
 20
4.275
 30
0.0
 11
8.2369
 21
4.2819
 31
0.0
  0
LINE
  5
79
100
AcDbEntity
  8
0
100
AcDbLine
 10
8.2369
 20
4.2819
 30
0.0
 11
8.1875
 21
4.3024
 31
0.0
  0
LINE
  5
7A
100
AcDbEntity
  8
0
100
AcDbLine
 10
8.1875
 20
4.3024
 30
0.0
 11
8.145
 21
4.335
 31
0.0
  0
LINE
  5
7B
100
AcDbEntity
  8
0
100
AcDbLine
 10
8.145
 20
4.335
 30
0.0
 11
8.1124
 21
4.3775
 31
0.0
  0
LINE
  5
7C
100
AcDbEntity
  8
0
100
AcDbLine
 10
8.1124
 20
4.3775
 30
0.0
 11
8.0919
 21
4.4269
 31
0.0
  0
LINE
  5
7D
100
AcDbEntity
  8
0
100
AcDbLine
 10
8.0919
 20
4.4269
 30
0.0
 11
8.085
 21
4.4797
 31
0.0
  0
LINE
  5
7E
100
AcDbEntity
  8
0
100
AcDbLine
 10
8.085
 20
4.4797
 30
0.0
 11
8.085
 21
5.6803
 31
0.0
  0
LINE
  5
7F
100
AcDbEntity
  8
0
100
AcDbLine
 10
8.085
 20
5.6803
 30
0.0
 11
8.0919
 21
5.7331
 31
0.0
  0
LINE
  5
80
100
AcDbEntity
  8
0
100
AcDbLine
 10
8.0919
 20
5.7331
 30
0.0
 11
8.1124
 21
5.7825
 31
0.0
  0
LINE
  5
81
100
AcDbEntity
  8
0
100
AcDbLine
 10
8.1124
 20
5.7825
 30
0.0
 11
8.145
 21
5.825
 31
0.0
  0
LINE
  5
82
100
AcDbEntity
  8
0
100
AcDbLine
 10
8.145
 20
5.825
 30
0.0
 11
8.1875
 21
5.8576
 31
0.0
  0
LINE
  5
83
100
AcDbEntity
  8
0
100
AcDbLine
 10
8.1875
 20
5.8576
 30
0.0
 11
8.2369
 21
5.8781
 31
0.0
  0
LINE
  5
84
100
AcDbEntity
  8
0
100
AcDbLine
 10
8.2369
 20
5.8781
 30
0.0
 11
8.2897
 21
5.885
 31
0.0
  0
LINE
  5
85
100
AcDbEntity
  8
0
100
AcDbLine
 10
8.2897
 20
5.885
 30
0.0
 11
11.295
 21
5.885
 31
0.0
  0
LINE
  5
86
100
AcDbEntity
  8
0
100
AcDbLine
 10
11.295
 20
18.585
 30
0.0
 11
11.295
 21
16.975
 31
0.0
  0
LINE
  5
87
100
AcDbEntity
  8
0
100
AcDbLine
 10
11.295
 20
16.975
 30
0.0
 11
8.2897
 21
16.975
 31
0.0
  0
LINE
  5
88
100
AcDbEntity
  8
0
100
AcDbLine
 10
8.2897
 20
16.975
 30
0.0
 11
8.2369
 21
16.9819
 31
0.0
  0
LINE
  5
89
100
AcDbEntity
  8
0
100
AcDbLine
 10
8.2369
 20
16.9819
 30
0.0
 11
8.1875
 21
17.0024
 31
0.0
  0
LINE
  5
8A
100
AcDbEntity
  8
0
100
AcDbLine
 10
8.1875
 20
17.0024
 30
0.0
 11
8.145
 21
17.035
 31
0.0
  0
LINE
  5
8B
100
AcDbEntity
  8
0
100
AcDbLine
 10
8.145
 20
17.035
 30
0.0
 11
8.1124
 21
17.0775
 31
0.0
  0
LINE
  5
8C
100
AcDbEntity
  8
0
100
AcDbLine
 10
8.1124
 20
17.0775
 30
0.0
 11
8.0919
 21
17.1269
 31
0.0
  0
LINE
  5
8D
100
AcDbEntity
  8
0
100
AcDbLine
 10
8.0919
 20
17.1269
 30
0.0
 11
8.085
 21
17.1797
 31
0.0
  0
LINE
  5
8E
100
AcDbEntity
  8
0
100
AcDbLine
 10
8.085
 20
17.1797
 30
0.0
 11
8.085
 21
18.3803
 31
0.0
  0
LINE
  5
8F
100
AcDbEntity
  8
0
100
AcDbLine
 10
8.085
 20
18.3803
 30
0.0
 11
8.0919
 21
18.4331
 31
0.0
  0
LINE
  5
90
100
AcDbEntity
  8
0
100
AcDbLine
 10
8.0919
 20
18.4331
 30
0.0
 11
8.1124
 21
18.4825
 31
0.0
  0
LINE
  5
91
100
AcDbEntity
  8
0
100
AcDbLine
 10
8.1124
 20
18.4825
 30
0.0
 11
8.145
 21
18.525
 31
0.0
  0
LINE
  5
92
100
AcDbEntity
  8
0
100
AcDbLine
 10
8.145
 20
18.525
 30
0.0
 11
8.1875
 21
18.5576
 31
0.0
  0
LINE
  5
93
100
AcDbEntity
  8
0
100
AcDbLine
 10
8.1875
 20
18.5576
 30
0.0
 11
8.2369
 21
18.5781
 31
0.0
  0
LINE
  5
94
100
AcDbEntity
  8
0
100
AcDbLine
 10
8.2369
 20
18.5781
 30
0.0
 11
8.2897
 21
18.585
 31
0.0
  0
LINE
  5
95
100
AcDbEntity
  8
0
100
AcDbLine
 10
8.2897
 20
18.585
 30
0.0
 11
11.295
 21
18.585
 31
0.0
  0
LINE
  5
96
100
AcDbEntity
  8
0
100
AcDbLine
 10
11.295
 20
31.285
 30
0.0
 11
11.295
 21
29.675
 31
0.0
  0
LINE
  5
97
100
AcDbEntity
  8
0
100
AcDbLine
 10
11.295
 20
29.675
 30
0.0
 11
8.2897
 21
29.675
 31
0.0
  0
LINE
  5
98
100
AcDbEntity
  8
0
100
AcDbLine
 10
8.2897
 20
29.675
 30
0.0
 11
8.2369
 21
29.6819
 31
0.0
  0
LINE
  5
99
100
AcDbEntity
  8
0
100
AcDbLine
 10
8.2369
 20
29.6819
 30
0.0
 11
8.1875
 21
29.7024
 31
0.0
  0
LINE
  5
9A
100
AcDbEntity
  8
0
100
AcDbLine
 10
8.1875
 20
29.7024
 30
0.0
 11
8.145
 21
29.735
 31
0.0
  0
LINE
  5
9B
100
AcDbEntity
  8
0
100
AcDbLine
 10
8.145
 20
29.735
 30
0.0
 11
8.1124
 21
29.7775
 31
0.0
  0
LINE
  5
9C
100
AcDbEntity
  8
0
100
AcDbLine
 10
8.1124
 20
29.7775
 30
0.0
 11
8.0919
 21
29.8269
 31
0.0
  0
LINE
  5
9D
100
AcDbEntity
  8
0
100
AcDbLine
 10
8.0919
 20
29.8269
 30
0.0
 11
8.085
 21
29.8797
 31
0.0
  0
LINE
  5
9E
100
AcDbEntity
  8
0
100
AcDbLine
 10
8.085
 20
29.8797
 30
0.0
 11
8.085
 21
31.0803
 31
0.0
  0
LINE
  5
9F
100
AcDbEntity
  8
0
100
AcDbLine
 10
8.085
 20
31.0803
 30
0.0
 11
8.0919
 21
31.1331
 31
0.0
  0
LINE
  5
A0
100
AcDbEntity
  8
0
100
AcDbLine
 10
8.0919
 20
31.1331
 30
0.0
 11
8.1124
 21
31.1825
 31
0.0
  0
LINE
  5
A1
100
AcDbEntity
  8
0
100
AcDbLine
 10
8.1124
 20
31.1825
 30
0.0
 11
8.145
 21
31.225
 31
0.0
  0
LINE
  5
A2
100
AcDbEntity
  8
0
100
AcDbLine
 10
8.145
 20
31.225
 30
0.0
 11
8.1875
 21
31.2576
 31
0.0
  0
LINE
  5
A3
100
AcDbEntity
  8
0
100
AcDbLine
 10
8.1875
 20
31.2576
 30
0.0
 11
8.2369
 21
31.2781
 31
0.0
  0
LINE
  5
A4
100
AcDbEntity
  8
0
100
AcDbLine
 10
8.2369
 20
31.2781
 30
0.0
 11
8.2897
 21
31.285
 31
0.0
  0
LINE
  5
A5
100
AcDbEntity
  8
0
100
AcDbLine
 10
8.2897
 20
31.285
 30
0.0
 11
11.295
 21
31.285
 31
0.0
  0
LINE
  5
A6
100
AcDbEntity
  8
0
100
AcDbLine
 10
-8.7329
 20
-13.4896
 30
0.0
 11
-8.8898
 21
-13.505
 31
0.0
  0
LINE
  5
A7
100
AcDbEntity
  8
0
100
AcDbLine
 10
-8.8898
 20
-13.505
 30
0.0
 11
-11.295
 21
-13.505
 31
0.0
  0
LINE
  5
A8
100
AcDbEntity
  8
0
100
AcDbLine
 10
-11.295
 20
-13.505
 30
0.0
 11
-11.295
 21
-11.895
 31
0.0
  0
LINE
  5
A9
100
AcDbEntity
  8
0
100
AcDbLine
 10
-11.295
 20
-11.895
 30
0.0
 11
-8.8898
 21
-11.895
 31
0.0
  0
LINE
  5
AA
100
AcDbEntity
  8
0
100
AcDbLine
 10
-8.8898
 20
-11.895
 30
0.0
 11
-8.7329
 21
-11.9104
 31
0.0
  0
LINE
  5
AB
100
AcDbEntity
  8
0
100
AcDbLine
 10
-8.7329
 20
-11.9104
 30
0.0
 11
-8.5819
 21
-11.9563
 31
0.0
  0
LINE
  5
AC
100
AcDbEntity
  8
0
100
AcDbLine
 10
-8.5819
 20
-11.9563
 30
0.0
 11
-8.4428
 21
-12.0306
 31
0.0
  0
LINE
  5
AD
100
AcDbEntity
  8
0
100
AcDbLine
 10
-8.4428
 20
-12.0306
 30
0.0
 11
-8.3208
 21
-12.1308
 31
0.0
  0
LINE
  5
AE
100
AcDbEntity
  8
0
100
AcDbLine
 10
-8.3208
 20
-12.1308
 30
0.0
 11
-8.2206
 21
-12.2528
 31
0.0
  0
LINE
  5
AF
100
AcDbEntity
  8
0
100
AcDbLine
 10
-8.2206
 20
-12.2528
 30
0.0
 11
-8.1463
 21
-12.3919
 31
0.0
  0
LINE
  5
B0
100
AcDbEntity
  8
0
100
AcDbLine
 10
-8.1463
 20
-12.3919
 30
0.0
 11
-8.1004
 21
-12.5429
 31
0.0
  0
LINE
  5
B1
100
AcDbEntity
  8
0
100
AcDbLine
 10
-8.1004
 20
-12.5429
 30
0.0
 11
-8.085
 21
-12.7
 31
0.0
  0
LINE
  5
B2
100
AcDbEntity
  8
0
100
AcDbLine
 10
-8.085
 20
-12.7
 30
0.0
 11
-8.1004
 21
-12.8571
 31
0.0
  0
LINE
  5
B3
100
AcDbEntity
  8
0
100
AcDbLine
 10
-8.1004
 20
-12.8571
 30
0.0
 11
-8.1463
 21
-13.0081
 31
0.0
  0
LINE
  5
B4
100
AcDbEntity
  8
0
100
AcDbLine
 10
-8.1463
 20
-13.0081
 30
0.0
 11
-8.2206
 21
-13.1472
 31
0.0
  0
LINE
  5
B5
100
AcDbEntity
  8
0
100
AcDbLine
 10
-8.2206
 20
-13.1472
 30
0.0
 11
-8.3208
 21
-13.2692
 31
0.0
  0
LINE
  5
B6
100
AcDbEntity
  8
0
100
AcDbLine
 10
-8.3208
 20
-13.2692
 30
0.0
 11
-8.4428
 21
-13.3694
 31
0.0
  0
LINE
  5
B7
100
AcDbEntity
  8
0
100
AcDbLine
 10
-8.4428
 20
-13.3694
 30
0.0
 11
-8.5819
 21
-13.4437
 31
0.0
  0
LINE
  5
B8
100
AcDbEntity
  8
0
100
AcDbLine
 10
-8.5819
 20
-13.4437
 30
0.0
 11
-8.7329
 21
-13.4896
 31
0.0
  0
LINE
  5
B9
100
AcDbEntity
  8
0
100
AcDbLine
 10
-8.7329
 20
-10.9496
 30
0.0
 11
-8.8898
 21
-10.965
 31
0.0
  0
LINE
  5
BA
100
AcDbEntity
  8
0
100
AcDbLine
 10
-8.8898
 20
-10.965
 30
0.0
 11
-11.295
 21
-10.965
 31
0.0
  0
LINE
  5
BB
100
AcDbEntity
  8
0
100
AcDbLine
 10
-11.295
 20
-10.965
 30
0.0
 11
-11.295
 21
-9.355
 31
0.0
  0
LINE
  5
BC
100
AcDbEntity
  8
0
100
AcDbLine
 10
-11.295
 20
-9.355
 30
0.0
 11
-8.8898
 21
-9.355
 31
0.0
  0
LINE
  5
BD
100
AcDbEntity
  8
0
100
AcDbLine
 10
-8.8898
 20
-9.355
 30
0.0
 11
-8.7329
 21
-9.3704
 31
0.0
  0
LINE
  5
BE
100
AcDbEntity
  8
0
100
AcDbLine
 10
-8.7329
 20
-9.3704
 30
0.0
 11
-8.5819
 21
-9.4163
 31
0.0
  0
LINE
  5
BF
100
AcDbEntity
  8
0
100
AcDbLine
 10
-8.5819
 20
-9.4163
 30
0.0
 11
-8.4428
 21
-9.4906
 31
0.0
  0
LINE
  5
C0
100
AcDbEntity
  8
0
100
AcDbLine
 10
-8.4428
 20
-9.4906
 30
0.0
 11
-8.3208
 21
-9.5908
 31
0.0
  0
LINE
  5
C1
100
AcDbEntity
  8
0
100
AcDbLine
 10
-8.3208
 20
-9.5908
 30
0.0
 11
-8.2206
 21
-9.7128
 31
0.0
  0
LINE
  5
C2
100
AcDbEntity
  8
0
100
AcDbLine
 10
-8.2206
 20
-9.7128
 30
0.0
 11
-8.1463
 21
-9.8519
 31
0.0
  0
LINE
  5
C3
100
AcDbEntity
  8
0
100
AcDbLine
 10
-8.1463
 20
-9.8519
 30
0.0
 11
-8.1004
 21
-10.0029
 31
0.0
  0
LINE
  5
C4
100
AcDbEntity
  8
0
100
AcDbLine
 10
-8.1004
 20
-10.0029
 30
0.0
 11
-8.085
 21
-10.16
 31
0.0
  0
LINE
  5
C5
100
AcDbEntity
  8
0
100
AcDbLine
 10
-8.085
 20
-10.16
 30
0.0
 11
-8.1004
 21
-10.3171
 31
0.0
  0
LINE
  5
C6
100
AcDbEntity
  8
0
100
AcDbLine
 10
-8.1004
 20
-10.3171
 30
0.0
 11
-8.1463
 21
-10.4681
 31
0.0
  0
LINE
  5
C7
100
AcDbEntity
  8
0
100
AcDbLine
 10
-8.1463
 20
-10.4681
 30
0.0
 11
-8.2206
 21
-10.6072
 31
0.0
  0
LINE
  5
C8
100
AcDbEntity
  8
0
100
AcDbLine
 10
-8.2206
 20
-10.6072
 30
0.0
 11
-8.3208
 21
-10.7292
 31
0.0
  0
LINE
  5
C9
100
AcDbEntity
  8
0
100
AcDbLine
 10
-8.3208
 20
-10.7292
 30
0.0
 11
-8.4428
 21
-10.8294
 31
0.0
  0
LINE
  5
CA
100
AcDbEntity
  8
0
100
AcDbLine
 10
-8.4428
 20
-10.8294
 30
0.0
 11
-8.5819
 21
-10.9037
 31
0.0
  0
LINE
  5
CB
100
AcDbEntity
  8
0
100
AcDbLine
 10
-8.5819
 20
-10.9037
 30
0.0
 11
-8.7329
 21
-10.9496
 31
0.0
  0
LINE
  5
CC
100
AcDbEntity
  8
0
100
AcDbLine
 10
-8.7329
 20
-5.8696
 30
0.0
 11
-8.8898
 21
-5.885
 31
0.0
  0
LINE
  5
CD
100
AcDbEntity
  8
0
100
AcDbLine
 10
-8.8898
 20
-5.885
 30
0.0
 11
-11.295
 21
-5.885
 31
0.0
  0
LINE
  5
CE
100
AcDbEntity
  8
0
100
AcDbLine
 10
-11.295
 20
-5.885
 30
0.0
 11
-11.295
 21
-4.275
 31
0.0
  0
LINE
  5
CF
100
AcDbEntity
  8
0
100
AcDbLine
 10
-11.295
 20
-4.275
 30
0.0
 11
-8.8898
 21
-4.275
 31
0.0
  0
LINE
  5
D0
100
AcDbEntity
  8
0
100
AcDbLine
 10
-8.8898
 20
-4.275
 30
0.0
 11
-8.7329
 21
-4.2904
 31
0.0
  0
LINE
  5
D1
100
AcDbEntity
  8
0
100
AcDbLine
 10
-8.7329
 20
-4.2904
 30
0.0
 11
-8.5819
 21
-4.3363
 31
0.0
  0
LINE
  5
D2
100
AcDbEntity
  8
0
100
AcDbLine
 10
-8.5819
 20
-4.3363
 30
0.0
 11
-8.4428
 21
-4.4106
 31
0.0
  0
LINE
  5
D3
100
AcDbEntity
  8
0
100
AcDbLine
 10
-8.4428
 20
-4.4106
 30
0.0
 11
-8.3208
 21
-4.5108
 31
0.0
  0
LINE
  5
D4
100
AcDbEntity
  8
0
100
AcDbLine
 10
-8.3208
 20
-4.5108
 30
0.0
 11
-8.2206
 21
-4.6328
 31
0.0
  0
LINE
  5
D5
100
AcDbEntity
  8
0
100
AcDbLine
 10
-8.2206
 20
-4.6328
 30
0.0
 11
-8.1463
 21
-4.7719
 31
0.0
  0
LINE
  5
D6
100
AcDbEntity
  8
0
100
AcDbLine
 10
-8.1463
 20
-4.7719
 30
0.0
 11
-8.1004
 21
-4.9229
 31
0.0
  0
LINE
  5
D7
100
AcDbEntity
  8
0
100
AcDbLine
 10
-8.1004
 20
-4.9229
 30
0.0
 11
-8.085
 21
-5.08
 31
0.0
  0
LINE
  5
D8
100
AcDbEntity
  8
0
100
AcDbLine
 10
-8.085
 20
-5.08
 30
0.0
 11
-8.1004
 21
-5.2371
 31
0.0
  0
LINE
  5
D9
100
AcDbEntity
  8
0
100
AcDbLine
 10
-8.1004
 20
-5.2371
 30
0.0
 11
-8.1463
 21
-5.3881
 31
0.0
  0
LINE
  5
DA
100
AcDbEntity
  8
0
100
AcDbLine
 10
-8.1463
 20
-5.3881
 30
0.0
 11
-8.2206
 21
-5.5272
 31
0.0
  0
LINE
  5
DB
100
AcDbEntity
  8
0
100
AcDbLine
 10
-8.2206
 20
-5.5272
 30
0.0
 11
-8.3208
 21
-5.6492
 31
0.0
  0
LINE
  5
DC
100
AcDbEntity
  8
0
100
AcDbLine
 10
-8.3208
 20
-5.6492
 30
0.0
 11
-8.4428
 21
-5.7494
 31
0.0
  0
LINE
  5
DD
100
AcDbEntity
  8
0
100
AcDbLine
 10
-8.4428
 20
-5.7494
 30
0.0
 11
-8.5819
 21
-5.8237
 31
0.0
  0
LINE
  5
DE
100
AcDbEntity
  8
0
100
AcDbLine
 10
-8.5819
 20
-5.8237
 30
0.0
 11
-8.7329
 21
-5.8696
 31
0.0
  0
LINE
  5
DF
100
AcDbEntity
  8
0
100
AcDbLine
 10
-8.7329
 20
-3.3296
 30
0.0
 11
-8.8898
 21
-3.345
 31
0.0
  0
LINE
  5
E0
100
AcDbEntity
  8
0
100
AcDbLine
 10
-8.8898
 20
-3.345
 30
0.0
 11
-11.295
 21
-3.345
 31
0.0
  0
LINE
  5
E1
100
AcDbEntity
  8
0
100
AcDbLine
 10
-11.295
 20
-3.345
 30
0.0
 11
-11.295
 21
-1.735
 31
0.0
  0
LINE
  5
E2
100
AcDbEntity
  8
0
100
AcDbLine
 10
-11.295
 20
-1.735
 30
0.0
 11
-8.8898
 21
-1.735
 31
0.0
  0
LINE
  5
E3
100
AcDbEntity
  8
0
100
AcDbLine
 10
-8.8898
 20
-1.735
 30
0.0
 11
-8.7329
 21
-1.7504
 31
0.0
  0
LINE
  5
E4
100
AcDbEntity
  8
0
100
AcDbLine
 10
-8.7329
 20
-1.7504
 30
0.0
 11
-8.5819
 21
-1.7963
 31
0.0
  0
LINE
  5
E5
100
AcDbEntity
  8
0
100
AcDbLine
 10
-8.5819
 20
-1.7963
 30
0.0
 11
-8.4428
 21
-1.8706
 31
0.0
  0
LINE
  5
E6
100
AcDbEntity
  8
0
100
AcDbLine
 10
-8.4428
 20
-1.8706
 30
0.0
 11
-8.3208
 21
-1.9708
 31
0.0
  0
LINE
  5
E7
100
AcDbEntity
  8
0
100
AcDbLine
 10
-8.3208
 20
-1.9708
 30
0.0
 11
-8.2206
 21
-2.0928
 31
0.0
  0
LINE
  5
E8
100
AcDbEntity
  8
0
100
AcDbLine
 10
-8.2206
 20
-2.0928
 30
0.0
 11
-8.1463
 21
-2.2319
 31
0.0
  0
LINE
  5
E9
100
AcDbEntity
  8
0
100
AcDbLine
 10
-8.1463
 20
-2.2319
 30
0.0
 11
-8.1004
 21
-2.3829
 31
0.0
  0
LINE
  5
EA
100
AcDbEntity
  8
0
100
AcDbLine
 10
-8.1004
 20
-2.3829
 30
0.0
 11
-8.085
 21
-2.54
 31
0.0
  0
LINE
  5
EB
100
AcDbEntity
  8
0
100
AcDbLine
 10
-8.085
 20
-2.54
 30
0.0
 11
-8.1004
 21
-2.6971
 31
0.0
  0
LINE
  5
EC
100
AcDbEntity
  8
0
100
AcDbLine
 10
-8.1004
 20
-2.6971
 30
0.0
 11
-8.1463
 21
-2.8481
 31
0.0
  0
LINE
  5
ED
100
AcDbEntity
  8
0
100
AcDbLine
 10
-8.1463
 20
-2.8481
 30
0.0
 11
-8.2206
 21
-2.9872
 31
0.0
  0
LINE
  5
EE
100
AcDbEntity
  8
0
100
AcDbLine
 10
-8.2206
 20
-2.9872
 30
0.0
 11
-8.3208
 21
-3.1092
 31
0.0
  0
LINE
  5
EF
100
AcDbEntity
  8
0
100
AcDbLine
 10
-8.3208
 20
-3.1092
 30
0.0
 11
-8.4428
 21
-3.2094
 31
0.0
  0
LINE
  5
F0
100
AcDbEntity
  8
0
100
AcDbLine
 10
-8.4428
 20
-3.2094
 30
0.0
 11
-8.5819
 21
-3.2837
 31
0.0
  0
LINE
  5
F1
100
AcDbEntity
  8
0
100
AcDbLine
 10
-8.5819
 20
-3.2837
 30
0.0
 11
-8.7329
 21
-3.3296
 31
0.0
  0
LINE
  5
F2
100
AcDbEntity
  8
0
100
AcDbLine
 10
-8.7329
 20
-0.7896
 30
0.0
 11
-8.8898
 21
-0.805
 31
0.0
  0
LINE
  5
F3
100
AcDbEntity
  8
0
100
AcDbLine
 10
-8.8898
 20
-0.805
 30
0.0
 11
-11.295
 21
-0.805
 31
0.0
  0
LINE
  5
F4
100
AcDbEntity
  8
0
100
AcDbLine
 10
-11.295
 20
-0.805
 30
0.0
 11
-11.295
 21
0.805
 31
0.0
  0
LINE
  5
F5
100
AcDbEntity
  8
0
100
AcDbLine
 10
-11.295
 20
0.805
 30
0.0
 11
-8.8898
 21
0.805
 31
0.0
  0
LINE
  5
F6
100
AcDbEntity
  8
0
100
AcDbLine
 10
-8.8898
 20
0.805
 30
0.0
 11
-8.7329
 21
0.7896
 31
0.0
  0
LINE
  5
F7
100
AcDbEntity
  8
0
100
AcDbLine
 10
-8.7329
 20
0.7896
 30
0.0
 11
-8.5819
 21
0.7437
 31
0.0
  0
LINE
  5
F8
100
AcDbEntity
  8
0
100
AcDbLine
 10
-8.5819
 20
0.7437
 30
0.0
 11
-8.4428
 21
0.6694
 31
0.0
  0
LINE
  5
F9
100
AcDbEntity
  8
0
100
AcDbLine
 10
-8.4428
 20
0.6694
 30
0.0
 11
-8.3208
 21
0.5692
 31
0.0
  0
LINE
  5
FA
100
AcDbEntity
  8
0
100
AcDbLine
 10
-8.3208
 20
0.5692
 30
0.0
 11
-8.2206
 21
0.4472
 31
0.0
  0
LINE
  5
FB
100
AcDbEntity
  8
0
100
AcDbLine
 10
-8.2206
 20
0.4472
 30
0.0
 11
-8.1463
 21
0.3081
 31
0.0
  0
LINE
  5
FC
100
AcDbEntity
  8
0
100
AcDbLine
 10
-8.1463
 20
0.3081
 30
0.0
 11
-8.1004
 21
0.1571
 31
0.0
  0
LINE
  5
FD
100
AcDbEntity
  8
0
100
AcDbLine
 10
-8.1004
 20
0.1571
 30
0.0
 11
-8.085
 21
0.0
 31
0.0
  0
LINE
  5
FE
100
AcDbEntity
  8
0
100
AcDbLine
 10
-8.085
 20
0.0
 30
0.0
 11
-8.1004
 21
-0.1571
 31
0.0
  0
LINE
  5
FF
100
AcDbEntity
  8
0
100
AcDbLine
 10
-8.1004
 20
-0.1571
 30
0.0
 11
-8.1463
 21
-0.3081
 31
0.0
  0
LINE
  5
100
100
AcDbEntity
  8
0
100
AcDbLine
 10
-8.1463
 20
-0.3081
 30
0.0
 11
-8.2206
 21
-0.4472
 31
0.0
  0
LINE
  5
101
100
AcDbEntity
  8
0
100
AcDbLine
 10
-8.2206
 20
-0.4472
 30
0.0
 11
-8.3208
 21
-0.5692
 31
0.0
  0
LINE
  5
102
100
AcDbEntity
  8
0
100
AcDbLine
 10
-8.3208
 20
-0.5692
 30
0.0
 11
-8.4428
 21
-0.6694
 31
0.0
  0
LINE
  5
103
100
AcDbEntity
  8
0
100
AcDbLine
 10
-8.4428
 20
-0.6694
 30
0.0
 11
-8.5819
 21
-0.7437
 31
0.0
  0
LINE
  5
104
100
AcDbEntity
  8
0
100
AcDbLine
 10
-8.5819
 20
-0.7437
 30
0.0
 11
-8.7329
 21
-0.7896
 31
0.0
  0
LINE
  5
105
100
AcDbEntity
  8
0
100
AcDbLine
 10
-8.7329
 20
1.7504
 30
0.0
 11
-8.8898
 21
1.735
 31
0.0
  0
LINE
  5
106
100
AcDbEntity
  8
0
100
AcDbLine
 10
-8.8898
 20
1.735
 30
0.0
 11
-11.295
 21
1.735
 31
0.0
  0
LINE
  5
107
100
AcDbEntity
  8
0
100
AcDbLine
 10
-11.295
 20
1.735
 30
0.0
 11
-11.295
 21
3.345
 31
0.0
  0
LINE
  5
108
100
AcDbEntity
  8
0
100
AcDbLine
 10
-11.295
 20
3.345
 30
0.0
 11
-8.8898
 21
3.345
 31
0.0
  0
LINE
  5
109
100
AcDbEntity
  8
0
100
AcDbLine
 10
-8.8898
 20
3.345
 30
0.0
 11
-8.7329
 21
3.3296
 31
0.0
  0
LINE
  5
10A
100
AcDbEntity
  8
0
100
AcDbLine
 10
-8.7329
 20
3.3296
 30
0.0
 11
-8.5819
 21
3.2837
 31
0.0
  0
LINE
  5
10B
100
AcDbEntity
  8
0
100
AcDbLine
 10
-8.5819
 20
3.2837
 30
0.0
 11
-8.4428
 21
3.2094
 31
0.0
  0
LINE
  5
10C
100
AcDbEntity
  8
0
100
AcDbLine
 10
-8.4428
 20
3.2094
 30
0.0
 11
-8.3208
 21
3.1092
 31
0.0
  0
LINE
  5
10D
100
AcDbEntity
  8
0
100
AcDbLine
 10
-8.3208
 20
3.1092
 30
0.0
 11
-8.2206
 21
2.9872
 31
0.0
  0
LINE
  5
10E
100
AcDbEntity
  8
0
100
AcDbLine
 10
-8.2206
 20
2.9872
 30
0.0
 11
-8.1463
 21
2.8481
 31
0.0
  0
LINE
  5
10F
100
AcDbEntity
  8
0
100
AcDbLine
 10
-8.1463
 20
2.8481
 30
0.0
 11
-8.1004
 21
2.6971
 31
0.0
  0
LINE
  5
110
100
AcDbEntity
  8
0
100
AcDbLine
 10
-8.1004
 20
2.6971
 30
0.0
 11
-8.085
 21
2.54
 31
0.0
  0
LINE
  5
111
100
AcDbEntity
  8
0
100
AcDbLine
 10
-8.085
 20
2.54
 30
0.0
 11
-8.1004
 21
2.3829
 31
0.0
  0
LINE
  5
112
100
AcDbEntity
  8
0
100
AcDbLine
 10
-8.1004
 20
2.3829
 30
0.0
 11
-8.1463
 21
2.2319
 31
0.0
  0
LINE
  5
113
100
AcDbEntity
  8
0
100
AcDbLine
 10
-8.1463
 20
2.2319
 30
0.0
 11
-8.2206
 21
2.0928
 31
0.0
  0
LINE
  5
114
100
AcDbEntity
  8
0
100
AcDbLine
 10
-8.2206
 20
2.0928
 30
0.0
 11
-8.3208
 21
1.9708
 31
0.0
  0
LINE
  5
115
100
AcDbEntity
  8
0
100
AcDbLine
 10
-8.3208
 20
1.9708
 30
0.0
 11
-8.4428
 21
1.8706
 31
0.0
  0
LINE
  5
116
100
AcDbEntity
  8
0
100
AcDbLine
 10
-8.4428
 20
1.8706
 30
0.0
 11
-8.5819
 21
1.7963
 31
0.0
  0
LINE
  5
117
100
AcDbEntity
  8
0
100
AcDbLine
 10
-8.5819
 20
1.7963
 30
0.0
 11
-8.7329
 21
1.7504
 31
0.0
  0
LINE
  5
118
100
AcDbEntity
  8
0
100
AcDbLine
 10
-8.7329
 20
6.8304
 30
0.0
 11
-8.8898
 21
6.815
 31
0.0
  0
LINE
  5
119
100
AcDbEntity
  8
0
100
AcDbLine
 10
-8.8898
 20
6.815
 30
0.0
 11
-11.295
 21
6.815
 31
0.0
  0
LINE
  5
11A
100
AcDbEntity
  8
0
100
AcDbLine
 10
-11.295
 20
6.815
 30
0.0
 11
-11.295
 21
8.425
 31
0.0
  0
LINE
  5
11B
100
AcDbEntity
  8
0
100
AcDbLine
 10
-11.295
 20
8.425
 30
0.0
 11
-8.8898
 21
8.425
 31
0.0
  0
LINE
  5
11C
100
AcDbEntity
  8
0
100
AcDbLine
 10
-8.8898
 20
8.425
 30
0.0
 11
-8.7329
 21
8.4096
 31
0.0
  0
LINE
  5
11D
100
AcDbEntity
  8
0
100
AcDbLine
 10
-8.7329
 20
8.4096
 30
0.0
 11
-8.5819
 21
8.3637
 31
0.0
  0
LINE
  5
11E
100
AcDbEntity
  8
0
100
AcDbLine
 10
-8.5819
 20
8.3637
 30
0.0
 11
-8.4428
 21
8.2894
 31
0.0
  0
LINE
  5
11F
100
AcDbEntity
  8
0
100
AcDbLine
 10
-8.4428
 20
8.2894
 30
0.0
 11
-8.3208
 21
8.1892
 31
0.0
  0
LINE
  5
120
100
AcDbEntity
  8
0
100
AcDbLine
 10
-8.3208
 20
8.1892
 30
0.0
 11
-8.2206
 21
8.0672
 31
0.0
  0
LINE
  5
121
100
AcDbEntity
  8
0
100
AcDbLine
 10
-8.2206
 20
8.0672
 30
0.0
 11
-8.1463
 21
7.9281
 31
0.0
  0
LINE
  5
122
100
AcDbEntity
  8
0
100
AcDbLine
 10
-8.1463
 20
7.9281
 30
0.0
 11
-8.1004
 21
7.7771
 31
0.0
  0
LINE
  5
123
100
AcDbEntity
  8
0
100
AcDbLine
 10
-8.1004
 20
7.7771
 30
0.0
 11
-8.085
 21
7.62
 31
0.0
  0
LINE
  5
124
100
AcDbEntity
  8
0
100
AcDbLine
 10
-8.085
 20
7.62
 30
0.0
 11
-8.1004
 21
7.4629
 31
0.0
  0
LINE
  5
125
100
AcDbEntity
  8
0
100
AcDbLine
 10
-8.1004
 20
7.4629
 30
0.0
 11
-8.1463
 21
7.3119
 31
0.0
  0
LINE
  5
126
100
AcDbEntity
  8
0
100
AcDbLine
 10
-8.1463
 20
7.3119
 30
0.0
 11
-8.2206
 21
7.1728
 31
0.0
  0
LINE
  5
127
100
AcDbEntity
  8
0
100
AcDbLine
 10
-8.2206
 20
7.1728
 30
0.0
 11
-8.3208
 21
7.0508
 31
0.0
  0
LINE
  5
128
100
AcDbEntity
  8
0
100
AcDbLine
 10
-8.3208
 20
7.0508
 30
0.0
 11
-8.4428
 21
6.9506
 31
0.0
  0
LINE
  5
129
100
AcDbEntity
  8
0
100
AcDbLine
 10
-8.4428
 20
6.9506
 30
0.0
 11
-8.5819
 21
6.8763
 31
0.0
  0
LINE
  5
12A
100
AcDbEntity
  8
0
100
AcDbLine
 10
-8.5819
 20
6.8763
 30
0.0
 11
-8.7329
 21
6.8304
 31
0.0
  0
LINE
  5
12B
100
AcDbEntity
  8
0
100
AcDbLine
 10
-8.7329
 20
9.3704
 30
0.0
 11
-8.8898
 21
9.355
 31
0.0
  0
LINE
  5
12C
100
AcDbEntity
  8
0
100
AcDbLine
 10
-8.8898
 20
9.355
 30
0.0
 11
-11.295
 21
9.355
 31
0.0
  0
LINE
  5
12D
100
AcDbEntity
  8
0
100
AcDbLine
 10
-11.295
 20
9.355
 30
0.0
 11
-11.295
 21
10.965
 31
0.0
  0
LINE
  5
12E
100
AcDbEntity
  8
0
100
AcDbLine
 10
-11.295
 20
10.965
 30
0.0
 11
-8.8898
 21
10.965
 31
0.0
  0
LINE
  5
12F
100
AcDbEntity
  8
0
100
AcDbLine
 10
-8.8898
 20
10.965
 30
0.0
 11
-8.7329
 21
10.9496
 31
0.0
  0
LINE
  5
130
100
AcDbEntity
  8
0
100
AcDbLine
 10
-8.7329
 20
10.9496
 30
0.0
 11
-8.5819
 21
10.9037
 31
0.0
  0
LINE
  5
131
100
AcDbEntity
  8
0
100
AcDbLine
 10
-8.5819
 20
10.9037
 30
0.0
 11
-8.4428
 21
10.8294
 31
0.0
  0
LINE
  5
132
100
AcDbEntity
  8
0
100
AcDbLine
 10
-8.4428
 20
10.8294
 30
0.0
 11
-8.3208
 21
10.7292
 31
0.0
  0
LINE
  5
133
100
AcDbEntity
  8
0
100
AcDbLine
 10
-8.3208
 20
10.7292
 30
0.0
 11
-8.2206
 21
10.6072
 31
0.0
  0
LINE
  5
134
100
AcDbEntity
  8
0
100
AcDbLine
 10
-8.2206
 20
10.6072
 30
0.0
 11
-8.1463
 21
10.4681
 31
0.0
  0
LINE
  5
135
100
AcDbEntity
  8
0
100
AcDbLine
 10
-8.1463
 20
10.4681
 30
0.0
 11
-8.1004
 21
10.3171
 31
0.0
  0
LINE
  5
136
100
AcDbEntity
  8
0
100
AcDbLine
 10
-8.1004
 20
10.3171
 30
0.0
 11
-8.085
 21
10.16
 31
0.0
  0
LINE
  5
137
100
AcDbEntity
  8
0
100
AcDbLine
 10
-8.085
 20
10.16
 30
0.0
 11
-8.1004
 21
10.0029
 31
0.0
  0
LINE
  5
138
100
AcDbEntity
  8
0
100
AcDbLine
 10
-8.1004
 20
10.0029
 30
0.0
 11
-8.1463
 21
9.8519
 31
0.0
  0
LINE
  5
139
100
AcDbEntity
  8
0
100
AcDbLine
 10
-8.1463
 20
9.8519
 30
0.0
 11
-8.2206
 21
9.7128
 31
0.0
  0
LINE
  5
13A
100
AcDbEntity
  8
0
100
AcDbLine
 10
-8.2206
 20
9.7128
 30
0.0
 11
-8.3208
 21
9.5908
 31
0.0
  0
LINE
  5
13B
100
AcDbEntity
  8
0
100
AcDbLine
 10
-8.3208
 20
9.5908
 30
0.0
 11
-8.4428
 21
9.4906
 31
0.0
  0
LINE
  5
13C
100
AcDbEntity
  8
0
100
AcDbLine
 10
-8.4428
 20
9.4906
 30
0.0
 11
-8.5819
 21
9.4163
 31
0.0
  0
LINE
  5
13D
100
AcDbEntity
  8
0
100
AcDbLine
 10
-8.5819
 20
9.4163
 30
0.0
 11
-8.7329
 21
9.3704
 31
0.0
  0
LINE
  5
13E
100
AcDbEntity
  8
0
100
AcDbLine
 10
-8.7329
 20
11.9104
 30
0.0
 11
-8.8898
 21
11.895
 31
0.0
  0
LINE
  5
13F
100
AcDbEntity
  8
0
100
AcDbLine
 10
-8.8898
 20
11.895
 30
0.0
 11
-11.295
 21
11.895
 31
0.0
  0
LINE
  5
140
100
AcDbEntity
  8
0
100
AcDbLine
 10
-11.295
 20
11.895
 30
0.0
 11
-11.295
 21
13.505
 31
0.0
  0
LINE
  5
141
100
AcDbEntity
  8
0
100
AcDbLine
 10
-11.295
 20
13.505
 30
0.0
 11
-8.8898
 21
13.505
 31
0.0
  0
LINE
  5
142
100
AcDbEntity
  8
0
100
AcDbLine
 10
-8.8898
 20
13.505
 30
0.0
 11
-8.7329
 21
13.4896
 31
0.0
  0
LINE
  5
143
100
AcDbEntity
  8
0
100
AcDbLine
 10
-8.7329
 20
13.4896
 30
0.0
 11
-8.5819
 21
13.4437
 31
0.0
  0
LINE
  5
144
100
AcDbEntity
  8
0
100
AcDbLine
 10
-8.5819
 20
13.4437
 30
0.0
 11
-8.4428
 21
13.3694
 31
0.0
  0
LINE
  5
145
100
AcDbEntity
  8
0
100
AcDbLine
 10
-8.4428
 20
13.3694
 30
0.0
 11
-8.3208
 21
13.2692
 31
0.0
  0
LINE
  5
146
100
AcDbEntity
  8
0
100
AcDbLine
 10
-8.3208
 20
13.2692
 30
0.0
 11
-8.2206
 21
13.1472
 31
0.0
  0
LINE
  5
147
100
AcDbEntity
  8
0
100
AcDbLine
 10
-8.2206
 20
13.1472
 30
0.0
 11
-8.1463
 21
13.0081
 31
0.0
  0
LINE
  5
148
100
AcDbEntity
  8
0
100
AcDbLine
 10
-8.1463
 20
13.0081
 30
0.0
 11
-8.1004
 21
12.8571
 31
0.0
  0
LINE
  5
149
100
AcDbEntity
  8
0
100
AcDbLine
 10
-8.1004
 20
12.8571
 30
0.0
 11
-8.085
 21
12.7
 31
0.0
  0
LINE
  5
14A
100
AcDbEntity
  8
0
100
AcDbLine
 10
-8.085
 20
12.7
 30
0.0
 11
-8.1004
 21
12.5429
 31
0.0
  0
LINE
  5
14B
100
AcDbEntity
  8
0
100
AcDbLine
 10
-8.1004
 20
12.5429
 30
0.0
 11
-8.1463
 21
12.3919
 31
0.0
  0
LINE
  5
14C
100
AcDbEntity
  8
0
100
AcDbLine
 10
-8.1463
 20
12.3919
 30
0.0
 11
-8.2206
 21
12.2528
 31
0.0
  0
LINE
  5
14D
100
AcDbEntity
  8
0
100
AcDbLine
 10
-8.2206
 20
12.2528
 30
0.0
 11
-8.3208
 21
12.1308
 31
0.0
  0
LINE
  5
14E
100
AcDbEntity
  8
0
100
AcDbLine
 10
-8.3208
 20
12.1308
 30
0.0
 11
-8.4428
 21
12.0306
 31
0.0
  0
LINE
  5
14F
100
AcDbEntity
  8
0
100
AcDbLine
 10
-8.4428
 20
12.0306
 30
0.0
 11
-8.5819
 21
11.9563
 31
0.0
  0
LINE
  5
150
100
AcDbEntity
  8
0
100
AcDbLine
 10
-8.5819
 20
11.9563
 30
0.0
 11
-8.7329
 21
11.9104
 31
0.0
  0
LINE
  5
151
100
AcDbEntity
  8
0
100
AcDbLine
 10
-8.7329
 20
14.4504
 30
0.0
 11
-8.8898
 21
14.435
 31
0.0
  0
LINE
  5
152
100
AcDbEntity
  8
0
100
AcDbLine
 10
-8.8898
 20
14.435
 30
0.0
 11
-11.295
 21
14.435
 31
0.0
  0
LINE
  5
153
100
AcDbEntity
  8
0
100
AcDbLine
 10
-11.295
 20
14.435
 30
0.0
 11
-11.295
 21
16.045
 31
0.0
  0
LINE
  5
154
100
AcDbEntity
  8
0
100
AcDbLine
 10
-11.295
 20
16.045
 30
0.0
 11
-8.8898
 21
16.045
 31
0.0
  0
LINE
  5
155
100
AcDbEntity
  8
0
100
AcDbLine
 10
-8.8898
 20
16.045
 30
0.0
 11
-8.7329
 21
16.0296
 31
0.0
  0
LINE
  5
156
100
AcDbEntity
  8
0
100
AcDbLine
 10
-8.7329
 20
16.0296
 30
0.0
 11
-8.5819
 21
15.9837
 31
0.0
  0
LINE
  5
157
100
AcDbEntity
  8
0
100
AcDbLine
 10
-8.5819
 20
15.9837
 30
0.0
 11
-8.4428
 21
15.9094
 31
0.0
  0
LINE
  5
158
100
AcDbEntity
  8
0
100
AcDbLine
 10
-8.4428
 20
15.9094
 30
0.0
 11
-8.3208
 21
15.8092
 31
0.0
  0
LINE
  5
159
100
AcDbEntity
  8
0
100
AcDbLine
 10
-8.3208
 20
15.8092
 30
0.0
 11
-8.2206
 21
15.6872
 31
0.0
  0
LINE
  5
15A
100
AcDbEntity
  8
0
100
AcDbLine
 10
-8.2206
 20
15.6872
 30
0.0
 11
-8.1463
 21
15.5481
 31
0.0
  0
LINE
  5
15B
100
AcDbEntity
  8
0
100
AcDbLine
 10
-8.1463
 20
15.5481
 30
0.0
 11
-8.1004
 21
15.3971
 31
0.0
  0
LINE
  5
15C
100
AcDbEntity
  8
0
100
AcDbLine
 10
-8.1004
 20
15.3971
 30
0.0
 11
-8.085
 21
15.24
 31
0.0
  0
LINE
  5
15D
100
AcDbEntity
  8
0
100
AcDbLine
 10
-8.085
 20
15.24
 30
0.0
 11
-8.1004
 21
15.0829
 31
0.0
  0
LINE
  5
15E
100
AcDbEntity
  8
0
100
AcDbLine
 10
-8.1004
 20
15.0829
 30
0.0
 11
-8.1463
 21
14.9319
 31
0.0
  0
LINE
  5
15F
100
AcDbEntity
  8
0
100
AcDbLine
 10
-8.1463
 20
14.9319
 30
0.0
 11
-8.2206
 21
14.7928
 31
0.0
  0
LINE
  5
160
100
AcDbEntity
  8
0
100
AcDbLine
 10
-8.2206
 20
14.7928
 30
0.0
 11
-8.3208
 21
14.6708
 31
0.0
  0
LINE
  5
161
100
AcDbEntity
  8
0
100
AcDbLine
 10
-8.3208
 20
14.6708
 30
0.0
 11
-8.4428
 21
14.5706
 31
0.0
  0
LINE
  5
162
100
AcDbEntity
  8
0
100
AcDbLine
 10
-8.4428
 20
14.5706
 30
0.0
 11
-8.5819
 21
14.4963
 31
0.0
  0
LINE
  5
163
100
AcDbEntity
  8
0
100
AcDbLine
 10
-8.5819
 20
14.4963
 30
0.0
 11
-8.7329
 21
14.4504
 31
0.0
  0
LINE
  5
164
100
AcDbEntity
  8
0
100
AcDbLine
 10
-8.7329
 20
19.5304
 30
0.0
 11
-8.8898
 21
19.515
 31
0.0
  0
LINE
  5
165
100
AcDbEntity
  8
0
100
AcDbLine
 10
-8.8898
 20
19.515
 30
0.0
 11
-11.295
 21
19.515
 31
0.0
  0
LINE
  5
166
100
AcDbEntity
  8
0
100
AcDbLine
 10
-11.295
 20
19.515
 30
0.0
 11
-11.295
 21
21.125
 31
0.0
  0
LINE
  5
167
100
AcDbEntity
  8
0
100
AcDbLine
 10
-11.295
 20
21.125
 30
0.0
 11
-8.8898
 21
21.125
 31
0.0
  0
LINE
  5
168
100
AcDbEntity
  8
0
100
AcDbLine
 10
-8.8898
 20
21.125
 30
0.0
 11
-8.7329
 21
21.1096
 31
0.0
  0
LINE
  5
169
100
AcDbEntity
  8
0
100
AcDbLine
 10
-8.7329
 20
21.1096
 30
0.0
 11
-8.5819
 21
21.0637
 31
0.0
  0
LINE
  5
16A
100
AcDbEntity
  8
0
100
AcDbLine
 10
-8.5819
 20
21.0637
 30
0.0
 11
-8.4428
 21
20.9894
 31
0.0
  0
LINE
  5
16B
100
AcDbEntity
  8
0
100
AcDbLine
 10
-8.4428
 20
20.9894
 30
0.0
 11
-8.3208
 21
20.8892
 31
0.0
  0
LINE
  5
16C
100
AcDbEntity
  8
0
100
AcDbLine
 10
-8.3208
 20
20.8892
 30
0.0
 11
-8.2206
 21
20.7672
 31
0.0
  0
LINE
  5
16D
100
AcDbEntity
  8
0
100
AcDbLine
 10
-8.2206
 20
20.7672
 30
0.0
 11
-8.1463
 21
20.6281
 31
0.0
  0
LINE
  5
16E
100
AcDbEntity
  8
0
100
AcDbLine
 10
-8.1463
 20
20.6281
 30
0.0
 11
-8.1004
 21
20.4771
 31
0.0
  0
LINE
  5
16F
100
AcDbEntity
  8
0
100
AcDbLine
 10
-8.1004
 20
20.4771
 30
0.0
 11
-8.085
 21
20.32
 31
0.0
  0
LINE
  5
170
100
AcDbEntity
  8
0
100
AcDbLine
 10
-8.085
 20
20.32
 30
0.0
 11
-8.1004
 21
20.1629
 31
0.0
  0
LINE
  5
171
100
AcDbEntity
  8
0
100
AcDbLine
 10
-8.1004
 20
20.1629
 30
0.0
 11
-8.1463
 21
20.0119
 31
0.0
  0
LINE
  5
172
100
AcDbEntity
  8
0
100
AcDbLine
 10
-8.1463
 20
20.0119
 30
0.0
 11
-8.2206
 21
19.8728
 31
0.0
  0
LINE
  5
173
100
AcDbEntity
  8
0
100
AcDbLine
 10
-8.2206
 20
19.8728
 30
0.0
 11
-8.3208
 21
19.7508
 31
0.0
  0
LINE
  5
174
100
AcDbEntity
  8
0
100
AcDbLine
 10
-8.3208
 20
19.7508
 30
0.0
 11
-8.4428
 21
19.6506
 31
0.0
  0
LINE
  5
175
100
AcDbEntity
  8
0
100
AcDbLine
 10
-8.4428
 20
19.6506
 30
0.0
 11
-8.5819
 21
19.5763
 31
0.0
  0
LINE
  5
176
100
AcDbEntity
  8
0
100
AcDbLine
 10
-8.5819
 20
19.5763
 30
0.0
 11
-8.7329
 21
19.5304
 31
0.0
  0
LINE
  5
177
100
AcDbEntity
  8
0
100
AcDbLine
 10
-8.7329
 20
22.0704
 30
0.0
 11
-8.8898
 21
22.055
 31
0.0
  0
LINE
  5
178
100
AcDbEntity
  8
0
100
AcDbLine
 10
-8.8898
 20
22.055
 30
0.0
 11
-11.295
 21
22.055
 31
0.0
  0
LINE
  5
179
100
AcDbEntity
  8
0
100
AcDbLine
 10
-11.295
 20
22.055
 30
0.0
 11
-11.295
 21
23.665
 31
0.0
  0
LINE
  5
17A
100
AcDbEntity
  8
0
100
AcDbLine
 10
-11.295
 20
23.665
 30
0.0
 11
-8.8898
 21
23.665
 31
0.0
  0
LINE
  5
17B
100
AcDbEntity
  8
0
100
AcDbLine
 10
-8.8898
 20
23.665
 30
0.0
 11
-8.7329
 21
23.6496
 31
0.0
  0
LINE
  5
17C
100
AcDbEntity
  8
0
100
AcDbLine
 10
-8.7329
 20
23.6496
 30
0.0
 11
-8.5819
 21
23.6037
 31
0.0
  0
LINE
  5
17D
100
AcDbEntity
  8
0
100
AcDbLine
 10
-8.5819
 20
23.6037
 30
0.0
 11
-8.4428
 21
23.5294
 31
0.0
  0
LINE
  5
17E
100
AcDbEntity
  8
0
100
AcDbLine
 10
-8.4428
 20
23.5294
 30
0.0
 11
-8.3208
 21
23.4292
 31
0.0
  0
LINE
  5
17F
100
AcDbEntity
  8
0
100
AcDbLine
 10
-8.3208
 20
23.4292
 30
0.0
 11
-8.2206
 21
23.3072
 31
0.0
  0
LINE
  5
180
100
AcDbEntity
  8
0
100
AcDbLine
 10
-8.2206
 20
23.3072
 30
0.0
 11
-8.1463
 21
23.1681
 31
0.0
  0
LINE
  5
181
100
AcDbEntity
  8
0
100
AcDbLine
 10
-8.1463
 20
23.1681
 30
0.0
 11
-8.1004
 21
23.0171
 31
0.0
  0
LINE
  5
182
100
AcDbEntity
  8
0
100
AcDbLine
 10
-8.1004
 20
23.0171
 30
0.0
 11
-8.085
 21
22.86
 31
0.0
  0
LINE
  5
183
100
AcDbEntity
  8
0
100
AcDbLine
 10
-8.085
 20
22.86
 30
0.0
 11
-8.1004
 21
22.7029
 31
0.0
  0
LINE
  5
184
100
AcDbEntity
  8
0
100
AcDbLine
 10
-8.1004
 20
22.7029
 30
0.0
 11
-8.1463
 21
22.5519
 31
0.0
  0
LINE
  5
185
100
AcDbEntity
  8
0
100
AcDbLine
 10
-8.1463
 20
22.5519
 30
0.0
 11
-8.2206
 21
22.4128
 31
0.0
  0
LINE
  5
186
100
AcDbEntity
  8
0
100
AcDbLine
 10
-8.2206
 20
22.4128
 30
0.0
 11
-8.3208
 21
22.2908
 31
0.0
  0
LINE
  5
187
100
AcDbEntity
  8
0
100
AcDbLine
 10
-8.3208
 20
22.2908
 30
0.0
 11
-8.4428
 21
22.1906
 31
0.0
  0
LINE
  5
188
100
AcDbEntity
  8
0
100
AcDbLine
 10
-8.4428
 20
22.1906
 30
0.0
 11
-8.5819
 21
22.1163
 31
0.0
  0
LINE
  5
189
100
AcDbEntity
  8
0
100
AcDbLine
 10
-8.5819
 20
22.1163
 30
0.0
 11
-8.7329
 21
22.0704
 31
0.0
  0
LINE
  5
18A
100
AcDbEntity
  8
0
100
AcDbLine
 10
-8.7329
 20
24.6104
 30
0.0
 11
-8.8898
 21
24.595
 31
0.0
  0
LINE
  5
18B
100
AcDbEntity
  8
0
100
AcDbLine
 10
-8.8898
 20
24.595
 30
0.0
 11
-11.295
 21
24.595
 31
0.0
  0
LINE
  5
18C
100
AcDbEntity
  8
0
100
AcDbLine
 10
-11.295
 20
24.595
 30
0.0
 11
-11.295
 21
26.205
 31
0.0
  0
LINE
  5
18D
100
AcDbEntity
  8
0
100
AcDbLine
 10
-11.295
 20
26.205
 30
0.0
 11
-8.8898
 21
26.205
 31
0.0
  0
LINE
  5
18E
100
AcDbEntity
  8
0
100
AcDbLine
 10
-8.8898
 20
26.205
 30
0.0
 11
-8.7329
 21
26.1896
 31
0.0
  0
LINE
  5
18F
100
AcDbEntity
  8
0
100
AcDbLine
 10
-8.7329
 20
26.1896
 30
0.0
 11
-8.5819
 21
26.1437
 31
0.0
  0
LINE
  5
190
100
AcDbEntity
  8
0
100
AcDbLine
 10
-8.5819
 20
26.1437
 30
0.0
 11
-8.4428
 21
26.0694
 31
0.0
  0
LINE
  5
191
100
AcDbEntity
  8
0
100
AcDbLine
 10
-8.4428
 20
26.0694
 30
0.0
 11
-8.3208
 21
25.9692
 31
0.0
  0
LINE
  5
192
100
AcDbEntity
  8
0
100
AcDbLine
 10
-8.3208
 20
25.9692
 30
0.0
 11
-8.2206
 21
25.8472
 31
0.0
  0
LINE
  5
193
100
AcDbEntity
  8
0
100
AcDbLine
 10
-8.2206
 20
25.8472
 30
0.0
 11
-8.1463
 21
25.7081
 31
0.0
  0
LINE
  5
194
100
AcDbEntity
  8
0
100
AcDbLine
 10
-8.1463
 20
25.7081
 30
0.0
 11
-8.1004
 21
25.5571
 31
0.0
  0
LINE
  5
195
100
AcDbEntity
  8
0
100
AcDbLine
 10
-8.1004
 20
25.5571
 30
0.0
 11
-8.085
 21
25.4
 31
0.0
  0
LINE
  5
196
100
AcDbEntity
  8
0
100
AcDbLine
 10
-8.085
 20
25.4
 30
0.0
 11
-8.1004
 21
25.2429
 31
0.0
  0
LINE
  5
197
100
AcDbEntity
  8
0
100
AcDbLine
 10
-8.1004
 20
25.2429
 30
0.0
 11
-8.1463
 21
25.0919
 31
0.0
  0
LINE
  5
198
100
AcDbEntity
  8
0
100
AcDbLine
 10
-8.1463
 20
25.0919
 30
0.0
 11
-8.2206
 21
24.9528
 31
0.0
  0
LINE
  5
199
100
AcDbEntity
  8
0
100
AcDbLine
 10
-8.2206
 20
24.9528
 30
0.0
 11
-8.3208
 21
24.8308
 31
0.0
  0
LINE
  5
19A
100
AcDbEntity
  8
0
100
AcDbLine
 10
-8.3208
 20
24.8308
 30
0.0
 11
-8.4428
 21
24.7306
 31
0.0
  0
LINE
  5
19B
100
AcDbEntity
  8
0
100
AcDbLine
 10
-8.4428
 20
24.7306
 30
0.0
 11
-8.5819
 21
24.6563
 31
0.0
  0
LINE
  5
19C
100
AcDbEntity
  8
0
100
AcDbLine
 10
-8.5819
 20
24.6563
 30
0.0
 11
-8.7329
 21
24.6104
 31
0.0
  0
LINE
  5
19D
100
AcDbEntity
  8
0
100
AcDbLine
 10
-8.7329
 20
27.1504
 30
0.0
 11
-8.8898
 21
27.135
 31
0.0
  0
LINE
  5
19E
100
AcDbEntity
  8
0
100
AcDbLine
 10
-8.8898
 20
27.135
 30
0.0
 11
-11.295
 21
27.135
 31
0.0
  0
LINE
  5
19F
100
AcDbEntity
  8
0
100
AcDbLine
 10
-11.295
 20
27.135
 30
0.0
 11
-11.295
 21
28.745
 31
0.0
  0
LINE
  5
1A0
100
AcDbEntity
  8
0
100
AcDbLine
 10
-11.295
 20
28.745
 30
0.0
 11
-8.8898
 21
28.745
 31
0.0
  0
LINE
  5
1A1
100
AcDbEntity
  8
0
100
AcDbLine
 10
-8.8898
 20
28.745
 30
0.0
 11
-8.7329
 21
28.7296
 31
0.0
  0
LINE
  5
1A2
100
AcDbEntity
  8
0
100
AcDbLine
 10
-8.7329
 20
28.7296
 30
0.0
 11
-8.5819
 21
28.6837
 31
0.0
  0
LINE
  5
1A3
100
AcDbEntity
  8
0
100
AcDbLine
 10
-8.5819
 20
28.6837
 30
0.0
 11
-8.4428
 21
28.6094
 31
0.0
  0
LINE
  5
1A4
100
AcDbEntity
  8
0
100
AcDbLine
 10
-8.4428
 20
28.6094
 30
0.0
 11
-8.3208
 21
28.5092
 31
0.0
  0
LINE
  5
1A5
100
AcDbEntity
  8
0
100
AcDbLine
 10
-8.3208
 20
28.5092
 30
0.0
 11
-8.2206
 21
28.3872
 31
0.0
  0
LINE
  5
1A6
100
AcDbEntity
  8
0
100
AcDbLine
 10
-8.2206
 20
28.3872
 30
0.0
 11
-8.1463
 21
28.2481
 31
0.0
  0
LINE
  5
1A7
100
AcDbEntity
  8
0
100
AcDbLine
 10
-8.1463
 20
28.2481
 30
0.0
 11
-8.1004
 21
28.0971
 31
0.0
  0
LINE
  5
1A8
100
AcDbEntity
  8
0
100
AcDbLine
 10
-8.1004
 20
28.0971
 30
0.0
 11
-8.085
 21
27.94
 31
0.0
  0
LINE
  5
1A9
100
AcDbEntity
  8
0
100
AcDbLine
 10
-8.085
 20
27.94
 30
0.0
 11
-8.1004
 21
27.7829
 31
0.0
  0
LINE
  5
1AA
100
AcDbEntity
  8
0
100
AcDbLine
 10
-8.1004
 20
27.7829
 30
0.0
 11
-8.1463
 21
27.6319
 31
0.0
  0
LINE
  5
1AB
100
AcDbEntity
  8
0
100
AcDbLine
 10
-8.1463
 20
27.6319
 30
0.0
 11
-8.2206
 21
27.4928
 31
0.0
  0
LINE
  5
1AC
100
AcDbEntity
  8
0
100
AcDbLine
 10
-8.2206
 20
27.4928
 30
0.0
 11
-8.3208
 21
27.3708
 31
0.0
  0
LINE
  5
1AD
100
AcDbEntity
  8
0
100
AcDbLine
 10
-8.3208
 20
27.3708
 30
0.0
 11
-8.4428
 21
27.2706
 31
0.0
  0
LINE
  5
1AE
100
AcDbEntity
  8
0
100
AcDbLine
 10
-8.4428
 20
27.2706
 30
0.0
 11
-8.5819
 21
27.1963
 31
0.0
  0
LINE
  5
1AF
100
AcDbEntity
  8
0
100
AcDbLine
 10
-8.5819
 20
27.1963
 30
0.0
 11
-8.7329
 21
27.1504
 31
0.0
  0
LINE
  5
1B0
100
AcDbEntity
  8
0
100
AcDbLine
 10
-8.7329
 20
32.2304
 30
0.0
 11
-8.8898
 21
32.215
 31
0.0
  0
LINE
  5
1B1
100
AcDbEntity
  8
0
100
AcDbLine
 10
-8.8898
 20
32.215
 30
0.0
 11
-11.295
 21
32.215
 31
0.0
  0
LINE
  5
1B2
100
AcDbEntity
  8
0
100
AcDbLine
 10
-11.295
 20
32.215
 30
0.0
 11
-11.295
 21
33.825
 31
0.0
  0
LINE
  5
1B3
100
AcDbEntity
  8
0
100
AcDbLine
 10
-11.295
 20
33.825
 30
0.0
 11
-8.8898
 21
33.825
 31
0.0
  0
LINE
  5
1B4
100
AcDbEntity
  8
0
100
AcDbLine
 10
-8.8898
 20
33.825
 30
0.0
 11
-8.7329
 21
33.8096
 31
0.0
  0
LINE
  5
1B5
100
AcDbEntity
  8
0
100
AcDbLine
 10
-8.7329
 20
33.8096
 30
0.0
 11
-8.5819
 21
33.7637
 31
0.0
  0
LINE
  5
1B6
100
AcDbEntity
  8
0
100
AcDbLine
 10
-8.5819
 20
33.7637
 30
0.0
 11
-8.4428
 21
33.6894
 31
0.0
  0
LINE
  5
1B7
100
AcDbEntity
  8
0
100
AcDbLine
 10
-8.4428
 20
33.6894
 30
0.0
 11
-8.3208
 21
33.5892
 31
0.0
  0
LINE
  5
1B8
100
AcDbEntity
  8
0
100
AcDbLine
 10
-8.3208
 20
33.5892
 30
0.0
 11
-8.2206
 21
33.4672
 31
0.0
  0
LINE
  5
1B9
100
AcDbEntity
  8
0
100
AcDbLine
 10
-8.2206
 20
33.4672
 30
0.0
 11
-8.1463
 21
33.3281
 31
0.0
  0
LINE
  5
1BA
100
AcDbEntity
  8
0
100
AcDbLine
 10
-8.1463
 20
33.3281
 30
0.0
 11
-8.1004
 21
33.1771
 31
0.0
  0
LINE
  5
1BB
100
AcDbEntity
  8
0
100
AcDbLine
 10
-8.1004
 20
33.1771
 30
0.0
 11
-8.085
 21
33.02
 31
0.0
  0
LINE
  5
1BC
100
AcDbEntity
  8
0
100
AcDbLine
 10
-8.085
 20
33.02
 30
0.0
 11
-8.1004
 21
32.8629
 31
0.0
  0
LINE
  5
1BD
100
AcDbEntity
  8
0
100
AcDbLine
 10
-8.1004
 20
32.8629
 30
0.0
 11
-8.1463
 21
32.7119
 31
0.0
  0
LINE
  5
1BE
100
AcDbEntity
  8
0
100
AcDbLine
 10
-8.1463
 20
32.7119
 30
0.0
 11
-8.2206
 21
32.5728
 31
0.0
  0
LINE
  5
1BF
100
AcDbEntity
  8
0
100
AcDbLine
 10
-8.2206
 20
32.5728
 30
0.0
 11
-8.3208
 21
32.4508
 31
0.0
  0
LINE
  5
1C0
100
AcDbEntity
  8
0
100
AcDbLine
 10
-8.3208
 20
32.4508
 30
0.0
 11
-8.4428
 21
32.3506
 31
0.0
  0
LINE
  5
1C1
100
AcDbEntity
  8
0
100
AcDbLine
 10
-8.4428
 20
32.3506
 30
0.0
 11
-8.5819
 21
32.2763
 31
0.0
  0
LINE
  5
1C2
100
AcDbEntity
  8
0
100
AcDbLine
 10
-8.5819
 20
32.2763
 30
0.0
 11
-8.7329
 21
32.2304
 31
0.0
  0
LINE
  5
1C3
100
AcDbEntity
  8
0
100
AcDbLine
 10
-8.7329
 20
34.7704
 30
0.0
 11
-8.8898
 21
34.755
 31
0.0
  0
LINE
  5
1C4
100
AcDbEntity
  8
0
100
AcDbLine
 10
-8.8898
 20
34.755
 30
0.0
 11
-11.295
 21
34.755
 31
0.0
  0
LINE
  5
1C5
100
AcDbEntity
  8
0
100
AcDbLine
 10
-11.295
 20
34.755
 30
0.0
 11
-11.295
 21
36.365
 31
0.0
  0
LINE
  5
1C6
100
AcDbEntity
  8
0
100
AcDbLine
 10
-11.295
 20
36.365
 30
0.0
 11
-8.8898
 21
36.365
 31
0.0
  0
LINE
  5
1C7
100
AcDbEntity
  8
0
100
AcDbLine
 10
-8.8898
 20
36.365
 30
0.0
 11
-8.7329
 21
36.3496
 31
0.0
  0
LINE
  5
1C8
100
AcDbEntity
  8
0
100
AcDbLine
 10
-8.7329
 20
36.3496
 30
0.0
 11
-8.5819
 21
36.3037
 31
0.0
  0
LINE
  5
1C9
100
AcDbEntity
  8
0
100
AcDbLine
 10
-8.5819
 20
36.3037
 30
0.0
 11
-8.4428
 21
36.2294
 31
0.0
  0
LINE
  5
1CA
100
AcDbEntity
  8
0
100
AcDbLine
 10
-8.4428
 20
36.2294
 30
0.0
 11
-8.3208
 21
36.1292
 31
0.0
  0
LINE
  5
1CB
100
AcDbEntity
  8
0
100
AcDbLine
 10
-8.3208
 20
36.1292
 30
0.0
 11
-8.2206
 21
36.0072
 31
0.0
  0
LINE
  5
1CC
100
AcDbEntity
  8
0
100
AcDbLine
 10
-8.2206
 20
36.0072
 30
0.0
 11
-8.1463
 21
35.8681
 31
0.0
  0
LINE
  5
1CD
100
AcDbEntity
  8
0
100
AcDbLine
 10
-8.1463
 20
35.8681
 30
0.0
 11
-8.1004
 21
35.7171
 31
0.0
  0
LINE
  5
1CE
100
AcDbEntity
  8
0
100
AcDbLine
 10
-8.1004
 20
35.7171
 30
0.0
 11
-8.085
 21
35.56
 31
0.0
  0
LINE
  5
1CF
100
AcDbEntity
  8
0
100
AcDbLine
 10
-8.085
 20
35.56
 30
0.0
 11
-8.1004
 21
35.4029
 31
0.0
  0
LINE
  5
1D0
100
AcDbEntity
  8
0
100
AcDbLine
 10
-8.1004
 20
35.4029
 30
0.0
 11
-8.1463
 21
35.2519
 31
0.0
  0
LINE
  5
1D1
100
AcDbEntity
  8
0
100
AcDbLine
 10
-8.1463
 20
35.2519
 30
0.0
 11
-8.2206
 21
35.1128
 31
0.0
  0
LINE
  5
1D2
100
AcDbEntity
  8
0
100
AcDbLine
 10
-8.2206
 20
35.1128
 30
0.0
 11
-8.3208
 21
34.9908
 31
0.0
  0
LINE
  5
1D3
100
AcDbEntity
  8
0
100
AcDbLine
 10
-8.3208
 20
34.9908
 30
0.0
 11
-8.4428
 21
34.8906
 31
0.0
  0
LINE
  5
1D4
100
AcDbEntity
  8
0
100
AcDbLine
 10
-8.4428
 20
34.8906
 30
0.0
 11
-8.5819
 21
34.8163
 31
0.0
  0
LINE
  5
1D5
100
AcDbEntity
  8
0
100
AcDbLine
 10
-8.5819
 20
34.8163
 30
0.0
 11
-8.7329
 21
34.7704
 31
0.0
  0
LINE
  5
1D6
100
AcDbEntity
  8
0
100
AcDbLine
 10
-1.735
 20
-12.4698
 30
0.0
 11
-1.735
 21
-14.875
 31
0.0
  0
LINE
  5
1D7
100
AcDbEntity
  8
0
100
AcDbLine
 10
-1.735
 20
-14.875
 30
0.0
 11
-3.345
 21
-14.875
 31
0.0
  0
LINE
  5
1D8
100
AcDbEntity
  8
0
100
AcDbLine
 10
-3.345
 20
-14.875
 30
0.0
 11
-3.345
 21
-12.4698
 31
0.0
  0
LINE
  5
1D9
100
AcDbEntity
  8
0
100
AcDbLine
 10
-3.345
 20
-12.4698
 30
0.0
 11
-3.3296
 21
-12.3129
 31
0.0
  0
LINE
  5
1DA
100
AcDbEntity
  8
0
100
AcDbLine
 10
-3.3296
 20
-12.3129
 30
0.0
 11
-3.2837
 21
-12.1619
 31
0.0
  0
LINE
  5
1DB
100
AcDbEntity
  8
0
100
AcDbLine
 10
-3.2837
 20
-12.1619
 30
0.0
 11
-3.2094
 21
-12.0228
 31
0.0
  0
LINE
  5
1DC
100
AcDbEntity
  8
0
100
AcDbLine
 10
-3.2094
 20
-12.0228
 30
0.0
 11
-3.1092
 21
-11.9008
 31
0.0
  0
LINE
  5
1DD
100
AcDbEntity
  8
0
100
AcDbLine
 10
-3.1092
 20
-11.9008
 30
0.0
 11
-2.9872
 21
-11.8006
 31
0.0
  0
LINE
  5
1DE
100
AcDbEntity
  8
0
100
AcDbLine
 10
-2.9872
 20
-11.8006
 30
0.0
 11
-2.8481
 21
-11.7263
 31
0.0
  0
LINE
  5
1DF
100
AcDbEntity
  8
0
100
AcDbLine
 10
-2.8481
 20
-11.7263
 30
0.0
 11
-2.6971
 21
-11.6804
 31
0.0
  0
LINE
  5
1E0
100
AcDbEntity
  8
0
100
AcDbLine
 10
-2.6971
 20
-11.6804
 30
0.0
 11
-2.54
 21
-11.665
 31
0.0
  0
LINE
  5
1E1
100
AcDbEntity
  8
0
100
AcDbLine
 10
-2.54
 20
-11.665
 30
0.0
 11
-2.3829
 21
-11.6804
 31
0.0
  0
LINE
  5
1E2
100
AcDbEntity
  8
0
100
AcDbLine
 10
-2.3829
 20
-11.6804
 30
0.0
 11
-2.2319
 21
-11.7263
 31
0.0
  0
LINE
  5
1E3
100
AcDbEntity
  8
0
100
AcDbLine
 10
-2.2319
 20
-11.7263
 30
0.0
 11
-2.0928
 21
-11.8006
 31
0.0
  0
LINE
  5
1E4
100
AcDbEntity
  8
0
100
AcDbLine
 10
-2.0928
 20
-11.8006
 30
0.0
 11
-1.9708
 21
-11.9008
 31
0.0
  0
LINE
  5
1E5
100
AcDbEntity
  8
0
100
AcDbLine
 10
-1.9708
 20
-11.9008
 30
0.0
 11
-1.8706
 21
-12.0228
 31
0.0
  0
LINE
  5
1E6
100
AcDbEntity
  8
0
100
AcDbLine
 10
-1.8706
 20
-12.0228
 30
0.0
 11
-1.7963
 21
-12.1619
 31
0.0
  0
LINE
  5
1E7
100
AcDbEntity
  8
0
100
AcDbLine
 10
-1.7963
 20
-12.1619
 30
0.0
 11
-1.7504
 21
-12.3129
 31
0.0
  0
LINE
  5
1E8
100
AcDbEntity
  8
0
100
AcDbLine
 10
-1.7504
 20
-12.3129
 30
0.0
 11
-1.735
 21
-12.4698
 31
0.0
  0
LINE
  5
1E9
100
AcDbEntity
  8
0
100
AcDbLine
 10
3.345
 20
-12.4698
 30
0.0
 11
3.345
 21
-14.875
 31
0.0
  0
LINE
  5
1EA
100
AcDbEntity
  8
0
100
AcDbLine
 10
3.345
 20
-14.875
 30
0.0
 11
1.735
 21
-14.875
 31
0.0
  0
LINE
  5
1EB
100
AcDbEntity
  8
0
100
AcDbLine
 10
1.735
 20
-14.875
 30
0.0
 11
1.735
 21
-12.4698
 31
0.0
  0
LINE
  5
1EC
100
AcDbEntity
  8
0
100
AcDbLine
 10
1.735
 20
-12.4698
 30
0.0
 11
1.7504
 21
-12.3129
 31
0.0
  0
LINE
  5
1ED
100
AcDbEntity
  8
0
100
AcDbLine
 10
1.7504
 20
-12.3129
 30
0.0
 11
1.7963
 21
-12.1619
 31
0.0
  0
LINE
  5
1EE
100
AcDbEntity
  8
0
100
AcDbLine
 10
1.7963
 20
-12.1619
 30
0.0
 11
1.8706
 21
-12.0228
 31
0.0
  0
LINE
  5
1EF
100
AcDbEntity
  8
0
100
AcDbLine
 10
1.8706
 20
-12.0228
 30
0.0
 11
1.9708
 21
-11.9008
 31
0.0
  0
LINE
  5
1F0
100
AcDbEntity
  8
0
100
AcDbLine
 10
1.9708
 20
-11.9008
 30
0.0
 11
2.0928
 21
-11.8006
 31
0.0
  0
LINE
  5
1F1
100
AcDbEntity
  8
0
100
AcDbLine
 10
2.0928
 20
-11.8006
 30
0.0
 11
2.2319
 21
-11.7263
 31
0.0
  0
LINE
  5
1F2
100
AcDbEntity
  8
0
100
AcDbLine
 10
2.2319
 20
-11.7263
 30
0.0
 11
2.3829
 21
-11.6804
 31
0.0
  0
LINE
  5
1F3
100
AcDbEntity
  8
0
100
AcDbLine
 10
2.3829
 20
-11.6804
 30
0.0
 11
2.54
 21
-11.665
 31
0.0
  0
LINE
  5
1F4
100
AcDbEntity
  8
0
100
AcDbLine
 10
2.54
 20
-11.665
 30
0.0
 11
2.6971
 21
-11.6804
 31
0.0
  0
LINE
  5
1F5
100
AcDbEntity
  8
0
100
AcDbLine
 10
2.6971
 20
-11.6804
 30
0.0
 11
2.8481
 21
-11.7263
 31
0.0
  0
LINE
  5
1F6
100
AcDbEntity
  8
0
100
AcDbLine
 10
2.8481
 20
-11.7263
 30
0.0
 11
2.9872
 21
-11.8006
 31
0.0
  0
LINE
  5
1F7
100
AcDbEntity
  8
0
100
AcDbLine
 10
2.9872
 20
-11.8006
 30
0.0
 11
3.1092
 21
-11.9008
 31
0.0
  0
LINE
  5
1F8
100
AcDbEntity
  8
0
100
AcDbLine
 10
3.1092
 20
-11.9008
 30
0.0
 11
3.2094
 21
-12.0228
 31
0.0
  0
LINE
  5
1F9
100
AcDbEntity
  8
0
100
AcDbLine
 10
3.2094
 20
-12.0228
 30
0.0
 11
3.2837
 21
-12.1619
 31
0.0
  0
LINE
  5
1FA
100
AcDbEntity
  8
0
100
AcDbLine
 10
3.2837
 20
-12.1619
 30
0.0
 11
3.3296
 21
-12.3129
 31
0.0
  0
LINE
  5
1FB
100
AcDbEntity
  8
0
100
AcDbLine
 10
3.3296
 20
-12.3129
 30
0.0
 11
3.345
 21
-12.4698
 31
0.0
  0
LINE
  5
1FC
100
AcDbEntity
  8
0
100
AcDbLine
 10
11.295
 20
-11.895
 30
0.0
 11
11.295
 21
-13.505
 31
0.0
  0
LINE
  5
1FD
100
AcDbEntity
  8
0
100
AcDbLine
 10
11.295
 20
-13.505
 30
0.0
 11
8.8898
 21
-13.505
 31
0.0
  0
LINE
  5
1FE
100
AcDbEntity
  8
0
100
AcDbLine
 10
8.8898
 20
-13.505
 30
0.0
 11
8.7329
 21
-13.4896
 31
0.0
  0
LINE
  5
1FF
100
AcDbEntity
  8
0
100
AcDbLine
 10
8.7329
 20
-13.4896
 30
0.0
 11
8.5819
 21
-13.4437
 31
0.0
  0
LINE
  5
200
100
AcDbEntity
  8
0
100
AcDbLine
 10
8.5819
 20
-13.4437
 30
0.0
 11
8.4428
 21
-13.3694
 31
0.0
  0
LINE
  5
201
100
AcDbEntity
  8
0
100
AcDbLine
 10
8.4428
 20
-13.3694
 30
0.0
 11
8.3208
 21
-13.2692
 31
0.0
  0
LINE
  5
202
100
AcDbEntity
  8
0
100
AcDbLine
 10
8.3208
 20
-13.2692
 30
0.0
 11
8.2206
 21
-13.1472
 31
0.0
  0
LINE
  5
203
100
AcDbEntity
  8
0
100
AcDbLine
 10
8.2206
 20
-13.1472
 30
0.0
 11
8.1463
 21
-13.0081
 31
0.0
  0
LINE
  5
204
100
AcDbEntity
  8
0
100
AcDbLine
 10
8.1463
 20
-13.0081
 30
0.0
 11
8.1004
 21
-12.8571
 31
0.0
  0
LINE
  5
205
100
AcDbEntity
  8
0
100
AcDbLine
 10
8.1004
 20
-12.8571
 30
0.0
 11
8.085
 21
-12.7
 31
0.0
  0
LINE
  5
206
100
AcDbEntity
  8
0
100
AcDbLine
 10
8.085
 20
-12.7
 30
0.0
 11
8.1004
 21
-12.5429
 31
0.0
  0
LINE
  5
207
100
AcDbEntity
  8
0
100
AcDbLine
 10
8.1004
 20
-12.5429
 30
0.0
 11
8.1463
 21
-12.3919
 31
0.0
  0
LINE
  5
208
100
AcDbEntity
  8
0
100
AcDbLine
 10
8.1463
 20
-12.3919
 30
0.0
 11
8.2206
 21
-12.2528
 31
0.0
  0
LINE
  5
209
100
AcDbEntity
  8
0
100
AcDbLine
 10
8.2206
 20
-12.2528
 30
0.0
 11
8.3208
 21
-12.1308
 31
0.0
  0
LINE
  5
20A
100
AcDbEntity
  8
0
100
AcDbLine
 10
8.3208
 20
-12.1308
 30
0.0
 11
8.4428
 21
-12.0306
 31
0.0
  0
LINE
  5
20B
100
AcDbEntity
  8
0
100
AcDbLine
 10
8.4428
 20
-12.0306
 30
0.0
 11
8.5819
 21
-11.9563
 31
0.0
  0
LINE
  5
20C
100
AcDbEntity
  8
0
100
AcDbLine
 10
8.5819
 20
-11.9563
 30
0.0
 11
8.7329
 21
-11.9104
 31
0.0
  0
LINE
  5
20D
100
AcDbEntity
  8
0
100
AcDbLine
 10
8.7329
 20
-11.9104
 30
0.0
 11
8.8898
 21
-11.895
 31
0.0
  0
LINE
  5
20E
100
AcDbEntity
  8
0
100
AcDbLine
 10
8.8898
 20
-11.895
 30
0.0
 11
11.295
 21
-11.895
 31
0.0
  0
LINE
  5
20F
100
AcDbEntity
  8
0
100
AcDbLine
 10
11.295
 20
-9.355
 30
0.0
 11
11.295
 21
-10.965
 31
0.0
  0
LINE
  5
210
100
AcDbEntity
  8
0
100
AcDbLine
 10
11.295
 20
-10.965
 30
0.0
 11
8.8898
 21
-10.965
 31
0.0
  0
LINE
  5
211
100
AcDbEntity
  8
0
100
AcDbLine
 10
8.8898
 20
-10.965
 30
0.0
 11
8.7329
 21
-10.9496
 31
0.0
  0
LINE
  5
212
100
AcDbEntity
  8
0
100
AcDbLine
 10
8.7329
 20
-10.9496
 30
0.0
 11
8.5819
 21
-10.9037
 31
0.0
  0
LINE
  5
213
100
AcDbEntity
  8
0
100
AcDbLine
 10
8.5819
 20
-10.9037
 30
0.0
 11
8.4428
 21
-10.8294
 31
0.0
  0
LINE
  5
214
100
AcDbEntity
  8
0
100
AcDbLine
 10
8.4428
 20
-10.8294
 30
0.0
 11
8.3208
 21
-10.7292
 31
0.0
  0
LINE
  5
215
100
AcDbEntity
  8
0
100
AcDbLine
 10
8.3208
 20
-10.7292
 30
0.0
 11
8.2206
 21
-10.6072
 31
0.0
  0
LINE
  5
216
100
AcDbEntity
  8
0
100
AcDbLine
 10
8.2206
 20
-10.6072
 30
0.0
 11
8.1463
 21
-10.4681
 31
0.0
  0
LINE
  5
217
100
AcDbEntity
  8
0
100
AcDbLine
 10
8.1463
 20
-10.4681
 30
0.0
 11
8.1004
 21
-10.3171
 31
0.0
  0
LINE
  5
218
100
AcDbEntity
  8
0
100
AcDbLine
 10
8.1004
 20
-10.3171
 30
0.0
 11
8.085
 21
-10.16
 31
0.0
  0
LINE
  5
219
100
AcDbEntity
  8
0
100
AcDbLine
 10
8.085
 20
-10.16
 30
0.0
 11
8.1004
 21
-10.0029
 31
0.0
  0
LINE
  5
21A
100
AcDbEntity
  8
0
100
AcDbLine
 10
8.1004
 20
-10.0029
 30
0.0
 11
8.1463
 21
-9.8519
 31
0.0
  0
LINE
  5
21B
100
AcDbEntity
  8
0
100
AcDbLine
 10
8.1463
 20
-9.8519
 30
0.0
 11
8.2206
 21
-9.7128
 31
0.0
  0
LINE
  5
21C
100
AcDbEntity
  8
0
100
AcDbLine
 10
8.2206
 20
-9.7128
 30
0.0
 11
8.3208
 21
-9.5908
 31
0.0
  0
LINE
  5
21D
100
AcDbEntity
  8
0
100
AcDbLine
 10
8.3208
 20
-9.5908
 30
0.0
 11
8.4428
 21
-9.4906
 31
0.0
  0
LINE
  5
21E
100
AcDbEntity
  8
0
100
AcDbLine
 10
8.4428
 20
-9.4906
 30
0.0
 11
8.5819
 21
-9.4163
 31
0.0
  0
LINE
  5
21F
100
AcDbEntity
  8
0
100
AcDbLine
 10
8.5819
 20
-9.4163
 30
0.0
 11
8.7329
 21
-9.3704
 31
0.0
  0
LINE
  5
220
100
AcDbEntity
  8
0
100
AcDbLine
 10
8.7329
 20
-9.3704
 30
0.0
 11
8.8898
 21
-9.355
 31
0.0
  0
LINE
  5
221
100
AcDbEntity
  8
0
100
AcDbLine
 10
8.8898
 20
-9.355
 30
0.0
 11
11.295
 21
-9.355
 31
0.0
  0
LINE
  5
222
100
AcDbEntity
  8
0
100
AcDbLine
 10
11.295
 20
-4.275
 30
0.0
 11
11.295
 21
-5.885
 31
0.0
  0
LINE
  5
223
100
AcDbEntity
  8
0
100
AcDbLine
 10
11.295
 20
-5.885
 30
0.0
 11
8.8898
 21
-5.885
 31
0.0
  0
LINE
  5
224
100
AcDbEntity
  8
0
100
AcDbLine
 10
8.8898
 20
-5.885
 30
0.0
 11
8.7329
 21
-5.8696
 31
0.0
  0
LINE
  5
225
100
AcDbEntity
  8
0
100
AcDbLine
 10
8.7329
 20
-5.8696
 30
0.0
 11
8.5819
 21
-5.8237
 31
0.0
  0
LINE
  5
226
100
AcDbEntity
  8
0
100
AcDbLine
 10
8.5819
 20
-5.8237
 30
0.0
 11
8.4428
 21
-5.7494
 31
0.0
  0
LINE
  5
227
100
AcDbEntity
  8
0
100
AcDbLine
 10
8.4428
 20
-5.7494
 30
0.0
 11
8.3208
 21
-5.6492
 31
0.0
  0
LINE
  5
228
100
AcDbEntity
  8
0
100
AcDbLine
 10
8.3208
 20
-5.6492
 30
0.0
 11
8.2206
 21
-5.5272
 31
0.0
  0
LINE
  5
229
100
AcDbEntity
  8
0
100
AcDbLine
 10
8.2206
 20
-5.5272
 30
0.0
 11
8.1463
 21
-5.3881
 31
0.0
  0
LINE
  5
22A
100
AcDbEntity
  8
0
100
AcDbLine
 10
8.1463
 20
-5.3881
 30
0.0
 11
8.1004
 21
-5.2371
 31
0.0
  0
LINE
  5
22B
100
AcDbEntity
  8
0
100
AcDbLine
 10
8.1004
 20
-5.2371
 30
0.0
 11
8.085
 21
-5.08
 31
0.0
  0
LINE
  5
22C
100
AcDbEntity
  8
0
100
AcDbLine
 10
8.085
 20
-5.08
 30
0.0
 11
8.1004
 21
-4.9229
 31
0.0
  0
LINE
  5
22D
100
AcDbEntity
  8
0
100
AcDbLine
 10
8.1004
 20
-4.9229
 30
0.0
 11
8.1463
 21
-4.7719
 31
0.0
  0
LINE
  5
22E
100
AcDbEntity
  8
0
100
AcDbLine
 10
8.1463
 20
-4.7719
 30
0.0
 11
8.2206
 21
-4.6328
 31
0.0
  0
LINE
  5
22F
100
AcDbEntity
  8
0
100
AcDbLine
 10
8.2206
 20
-4.6328
 30
0.0
 11
8.3208
 21
-4.5108
 31
0.0
  0
LINE
  5
230
100
AcDbEntity
  8
0
100
AcDbLine
 10
8.3208
 20
-4.5108
 30
0.0
 11
8.4428
 21
-4.4106
 31
0.0
  0
LINE
  5
231
100
AcDbEntity
  8
0
100
AcDbLine
 10
8.4428
 20
-4.4106
 30
0.0
 11
8.5819
 21
-4.3363
 31
0.0
  0
LINE
  5
232
100
AcDbEntity
  8
0
100
AcDbLine
 10
8.5819
 20
-4.3363
 30
0.0
 11
8.7329
 21
-4.2904
 31
0.0
  0
LINE
  5
233
100
AcDbEntity
  8
0
100
AcDbLine
 10
8.7329
 20
-4.2904
 30
0.0
 11
8.8898
 21
-4.275
 31
0.0
  0
LINE
  5
234
100
AcDbEntity
  8
0
100
AcDbLine
 10
8.8898
 20
-4.275
 30
0.0
 11
11.295
 21
-4.275
 31
0.0
  0
LINE
  5
235
100
AcDbEntity
  8
0
100
AcDbLine
 10
11.295
 20
-1.735
 30
0.0
 11
11.295
 21
-3.345
 31
0.0
  0
LINE
  5
236
100
AcDbEntity
  8
0
100
AcDbLine
 10
11.295
 20
-3.345
 30
0.0
 11
8.8898
 21
-3.345
 31
0.0
  0
LINE
  5
237
100
AcDbEntity
  8
0
100
AcDbLine
 10
8.8898
 20
-3.345
 30
0.0
 11
8.7329
 21
-3.3296
 31
0.0
  0
LINE
  5
238
100
AcDbEntity
  8
0
100
AcDbLine
 10
8.7329
 20
-3.3296
 30
0.0
 11
8.5819
 21
-3.2837
 31
0.0
  0
LINE
  5
239
100
AcDbEntity
  8
0
100
AcDbLine
 10
8.5819
 20
-3.2837
 30
0.0
 11
8.4428
 21
-3.2094
 31
0.0
  0
LINE
  5
23A
100
AcDbEntity
  8
0
100
AcDbLine
 10
8.4428
 20
-3.2094
 30
0.0
 11
8.3208
 21
-3.1092
 31
0.0
  0
LINE
  5
23B
100
AcDbEntity
  8
0
100
AcDbLine
 10
8.3208
 20
-3.1092
 30
0.0
 11
8.2206
 21
-2.9872
 31
0.0
  0
LINE
  5
23C
100
AcDbEntity
  8
0
100
AcDbLine
 10
8.2206
 20
-2.9872
 30
0.0
 11
8.1463
 21
-2.8481
 31
0.0
  0
LINE
  5
23D
100
AcDbEntity
  8
0
100
AcDbLine
 10
8.1463
 20
-2.8481
 30
0.0
 11
8.1004
 21
-2.6971
 31
0.0
  0
LINE
  5
23E
100
AcDbEntity
  8
0
100
AcDbLine
 10
8.1004
 20
-2.6971
 30
0.0
 11
8.085
 21
-2.54
 31
0.0
  0
LINE
  5
23F
100
AcDbEntity
  8
0
100
AcDbLine
 10
8.085
 20
-2.54
 30
0.0
 11
8.1004
 21
-2.3829
 31
0.0
  0
LINE
  5
240
100
AcDbEntity
  8
0
100
AcDbLine
 10
8.1004
 20
-2.3829
 30
0.0
 11
8.1463
 21
-2.2319
 31
0.0
  0
LINE
  5
241
100
AcDbEntity
  8
0
100
AcDbLine
 10
8.1463
 20
-2.2319
 30
0.0
 11
8.2206
 21
-2.0928
 31
0.0
  0
LINE
  5
242
100
AcDbEntity
  8
0
100
AcDbLine
 10
8.2206
 20
-2.0928
 30
0.0
 11
8.3208
 21
-1.9708
 31
0.0
  0
LINE
  5
243
100
AcDbEntity
  8
0
100
AcDbLine
 10
8.3208
 20
-1.9708
 30
0.0
 11
8.4428
 21
-1.8706
 31
0.0
  0
LINE
  5
244
100
AcDbEntity
  8
0
100
AcDbLine
 10
8.4428
 20
-1.8706
 30
0.0
 11
8.5819
 21
-1.7963
 31
0.0
  0
LINE
  5
245
100
AcDbEntity
  8
0
100
AcDbLine
 10
8.5819
 20
-1.7963
 30
0.0
 11
8.7329
 21
-1.7504
 31
0.0
  0
LINE
  5
246
100
AcDbEntity
  8
0
100
AcDbLine
 10
8.7329
 20
-1.7504
 30
0.0
 11
8.8898
 21
-1.735
 31
0.0
  0
LINE
  5
247
100
AcDbEntity
  8
0
100
AcDbLine
 10
8.8898
 20
-1.735
 30
0.0
 11
11.295
 21
-1.735
 31
0.0
  0
LINE
  5
248
100
AcDbEntity
  8
0
100
AcDbLine
 10
11.295
 20
0.805
 30
0.0
 11
11.295
 21
-0.805
 31
0.0
  0
LINE
  5
249
100
AcDbEntity
  8
0
100
AcDbLine
 10
11.295
 20
-0.805
 30
0.0
 11
8.8898
 21
-0.805
 31
0.0
  0
LINE
  5
24A
100
AcDbEntity
  8
0
100
AcDbLine
 10
8.8898
 20
-0.805
 30
0.0
 11
8.7329
 21
-0.7896
 31
0.0
  0
LINE
  5
24B
100
AcDbEntity
  8
0
100
AcDbLine
 10
8.7329
 20
-0.7896
 30
0.0
 11
8.5819
 21
-0.7437
 31
0.0
  0
LINE
  5
24C
100
AcDbEntity
  8
0
100
AcDbLine
 10
8.5819
 20
-0.7437
 30
0.0
 11
8.4428
 21
-0.6694
 31
0.0
  0
LINE
  5
24D
100
AcDbEntity
  8
0
100
AcDbLine
 10
8.4428
 20
-0.6694
 30
0.0
 11
8.3208
 21
-0.5692
 31
0.0
  0
LINE
  5
24E
100
AcDbEntity
  8
0
100
AcDbLine
 10
8.3208
 20
-0.5692
 30
0.0
 11
8.2206
 21
-0.4472
 31
0.0
  0
LINE
  5
24F
100
AcDbEntity
  8
0
100
AcDbLine
 10
8.2206
 20
-0.4472
 30
0.0
 11
8.1463
 21
-0.3081
 31
0.0
  0
LINE
  5
250
100
AcDbEntity
  8
0
100
AcDbLine
 10
8.1463
 20
-0.3081
 30
0.0
 11
8.1004
 21
-0.1571
 31
0.0
  0
LINE
  5
251
100
AcDbEntity
  8
0
100
AcDbLine
 10
8.1004
 20
-0.1571
 30
0.0
 11
8.085
 21
0.0
 31
0.0
  0
LINE
  5
252
100
AcDbEntity
  8
0
100
AcDbLine
 10
8.085
 20
0.0
 30
0.0
 11
8.1004
 21
0.1571
 31
0.0
  0
LINE
  5
253
100
AcDbEntity
  8
0
100
AcDbLine
 10
8.1004
 20
0.1571
 30
0.0
 11
8.1463
 21
0.3081
 31
0.0
  0
LINE
  5
254
100
AcDbEntity
  8
0
100
AcDbLine
 10
8.1463
 20
0.3081
 30
0.0
 11
8.2206
 21
0.4472
 31
0.0
  0
LINE
  5
255
100
AcDbEntity
  8
0
100
AcDbLine
 10
8.2206
 20
0.4472
 30
0.0
 11
8.3208
 21
0.5692
 31
0.0
  0
LINE
  5
256
100
AcDbEntity
  8
0
100
AcDbLine
 10
8.3208
 20
0.5692
 30
0.0
 11
8.4428
 21
0.6694
 31
0.0
  0
LINE
  5
257
100
AcDbEntity
  8
0
100
AcDbLine
 10
8.4428
 20
0.6694
 30
0.0
 11
8.5819
 21
0.7437
 31
0.0
  0
LINE
  5
258
100
AcDbEntity
  8
0
100
AcDbLine
 10
8.5819
 20
0.7437
 30
0.0
 11
8.7329
 21
0.7896
 31
0.0
  0
LINE
  5
259
100
AcDbEntity
  8
0
100
AcDbLine
 10
8.7329
 20
0.7896
 30
0.0
 11
8.8898
 21
0.805
 31
0.0
  0
LINE
  5
25A
100
AcDbEntity
  8
0
100
AcDbLine
 10
8.8898
 20
0.805
 30
0.0
 11
11.295
 21
0.805
 31
0.0
  0
LINE
  5
25B
100
AcDbEntity
  8
0
100
AcDbLine
 10
11.295
 20
3.345
 30
0.0
 11
11.295
 21
1.735
 31
0.0
  0
LINE
  5
25C
100
AcDbEntity
  8
0
100
AcDbLine
 10
11.295
 20
1.735
 30
0.0
 11
8.8898
 21
1.735
 31
0.0
  0
LINE
  5
25D
100
AcDbEntity
  8
0
100
AcDbLine
 10
8.8898
 20
1.735
 30
0.0
 11
8.7329
 21
1.7504
 31
0.0
  0
LINE
  5
25E
100
AcDbEntity
  8
0
100
AcDbLine
 10
8.7329
 20
1.7504
 30
0.0
 11
8.5819
 21
1.7963
 31
0.0
  0
LINE
  5
25F
100
AcDbEntity
  8
0
100
AcDbLine
 10
8.5819
 20
1.7963
 30
0.0
 11
8.4428
 21
1.8706
 31
0.0
  0
LINE
  5
260
100
AcDbEntity
  8
0
100
AcDbLine
 10
8.4428
 20
1.8706
 30
0.0
 11
8.3208
 21
1.9708
 31
0.0
  0
LINE
  5
261
100
AcDbEntity
  8
0
100
AcDbLine
 10
8.3208
 20
1.9708
 30
0.0
 11
8.2206
 21
2.0928
 31
0.0
  0
LINE
  5
262
100
AcDbEntity
  8
0
100
AcDbLine
 10
8.2206
 20
2.0928
 30
0.0
 11
8.1463
 21
2.2319
 31
0.0
  0
LINE
  5
263
100
AcDbEntity
  8
0
100
AcDbLine
 10
8.1463
 20
2.2319
 30
0.0
 11
8.1004
 21
2.3829
 31
0.0
  0
LINE
  5
264
100
AcDbEntity
  8
0
100
AcDbLine
 10
8.1004
 20
2.3829
 30
0.0
 11
8.085
 21
2.54
 31
0.0
  0
LINE
  5
265
100
AcDbEntity
  8
0
100
AcDbLine
 10
8.085
 20
2.54
 30
0.0
 11
8.1004
 21
2.6971
 31
0.0
  0
LINE
  5
266
100
AcDbEntity
  8
0
100
AcDbLine
 10
8.1004
 20
2.6971
 30
0.0
 11
8.1463
 21
2.8481
 31
0.0
  0
LINE
  5
267
100
AcDbEntity
  8
0
100
AcDbLine
 10
8.1463
 20
2.8481
 30
0.0
 11
8.2206
 21
2.9872
 31
0.0
  0
LINE
  5
268
100
AcDbEntity
  8
0
100
AcDbLine
 10
8.2206
 20
2.9872
 30
0.0
 11
8.3208
 21
3.1092
 31
0.0
  0
LINE
  5
269
100
AcDbEntity
  8
0
100
AcDbLine
 10
8.3208
 20
3.1092
 30
0.0
 11
8.4428
 21
3.2094
 31
0.0
  0
LINE
  5
26A
100
AcDbEntity
  8
0
100
AcDbLine
 10
8.4428
 20
3.2094
 30
0.0
 11
8.5819
 21
3.2837
 31
0.0
  0
LINE
  5
26B
100
AcDbEntity
  8
0
100
AcDbLine
 10
8.5819
 20
3.2837
 30
0.0
 11
8.7329
 21
3.3296
 31
0.0
  0
LINE
  5
26C
100
AcDbEntity
  8
0
100
AcDbLine
 10
8.7329
 20
3.3296
 30
0.0
 11
8.8898
 21
3.345
 31
0.0
  0
LINE
  5
26D
100
AcDbEntity
  8
0
100
AcDbLine
 10
8.8898
 20
3.345
 30
0.0
 11
11.295
 21
3.345
 31
0.0
  0
LINE
  5
26E
100
AcDbEntity
  8
0
100
AcDbLine
 10
11.295
 20
8.425
 30
0.0
 11
11.295
 21
6.815
 31
0.0
  0
LINE
  5
26F
100
AcDbEntity
  8
0
100
AcDbLine
 10
11.295
 20
6.815
 30
0.0
 11
8.8898
 21
6.815
 31
0.0
  0
LINE
  5
270
100
AcDbEntity
  8
0
100
AcDbLine
 10
8.8898
 20
6.815
 30
0.0
 11
8.7329
 21
6.8304
 31
0.0
  0
LINE
  5
271
100
AcDbEntity
  8
0
100
AcDbLine
 10
8.7329
 20
6.8304
 30
0.0
 11
8.5819
 21
6.8763
 31
0.0
  0
LINE
  5
272
100
AcDbEntity
  8
0
100
AcDbLine
 10
8.5819
 20
6.8763
 30
0.0
 11
8.4428
 21
6.9506
 31
0.0
  0
LINE
  5
273
100
AcDbEntity
  8
0
100
AcDbLine
 10
8.4428
 20
6.9506
 30
0.0
 11
8.3208
 21
7.0508
 31
0.0
  0
LINE
  5
274
100
AcDbEntity
  8
0
100
AcDbLine
 10
8.3208
 20
7.0508
 30
0.0
 11
8.2206
 21
7.1728
 31
0.0
  0
LINE
  5
275
100
AcDbEntity
  8
0
100
AcDbLine
 10
8.2206
 20
7.1728
 30
0.0
 11
8.1463
 21
7.3119
 31
0.0
  0
LINE
  5
276
100
AcDbEntity
  8
0
100
AcDbLine
 10
8.1463
 20
7.3119
 30
0.0
 11
8.1004
 21
7.4629
 31
0.0
  0
LINE
  5
277
100
AcDbEntity
  8
0
100
AcDbLine
 10
8.1004
 20
7.4629
 30
0.0
 11
8.085
 21
7.62
 31
0.0
  0
LINE
  5
278
100
AcDbEntity
  8
0
100
AcDbLine
 10
8.085
 20
7.62
 30
0.0
 11
8.1004
 21
7.7771
 31
0.0
  0
LINE
  5
279
100
AcDbEntity
  8
0
100
AcDbLine
 10
8.1004
 20
7.7771
 30
0.0
 11
8.1463
 21
7.9281
 31
0.0
  0
LINE
  5
27A
100
AcDbEntity
  8
0
100
AcDbLine
 10
8.1463
 20
7.9281
 30
0.0
 11
8.2206
 21
8.0672
 31
0.0
  0
LINE
  5
27B
100
AcDbEntity
  8
0
100
AcDbLine
 10
8.2206
 20
8.0672
 30
0.0
 11
8.3208
 21
8.1892
 31
0.0
  0
LINE
  5
27C
100
AcDbEntity
  8
0
100
AcDbLine
 10
8.3208
 20
8.1892
 30
0.0
 11
8.4428
 21
8.2894
 31
0.0
  0
LINE
  5
27D
100
AcDbEntity
  8
0
100
AcDbLine
 10
8.4428
 20
8.2894
 30
0.0
 11
8.5819
 21
8.3637
 31
0.0
  0
LINE
  5
27E
100
AcDbEntity
  8
0
100
AcDbLine
 10
8.5819
 20
8.3637
 30
0.0
 11
8.7329
 21
8.4096
 31
0.0
  0
LINE
  5
27F
100
AcDbEntity
  8
0
100
AcDbLine
 10
8.7329
 20
8.4096
 30
0.0
 11
8.8898
 21
8.425
 31
0.0
  0
LINE
  5
280
100
AcDbEntity
  8
0
100
AcDbLine
 10
8.8898
 20
8.425
 30
0.0
 11
11.295
 21
8.425
 31
0.0
  0
LINE
  5
281
100
AcDbEntity
  8
0
100
AcDbLine
 10
11.295
 20
10.965
 30
0.0
 11
11.295
 21
9.355
 31
0.0
  0
LINE
  5
282
100
AcDbEntity
  8
0
100
AcDbLine
 10
11.295
 20
9.355
 30
0.0
 11
8.8898
 21
9.355
 31
0.0
  0
LINE
  5
283
100
AcDbEntity
  8
0
100
AcDbLine
 10
8.8898
 20
9.355
 30
0.0
 11
8.7329
 21
9.3704
 31
0.0
  0
LINE
  5
284
100
AcDbEntity
  8
0
100
AcDbLine
 10
8.7329
 20
9.3704
 30
0.0
 11
8.5819
 21
9.4163
 31
0.0
  0
LINE
  5
285
100
AcDbEntity
  8
0
100
AcDbLine
 10
8.5819
 20
9.4163
 30
0.0
 11
8.4428
 21
9.4906
 31
0.0
  0
LINE
  5
286
100
AcDbEntity
  8
0
100
AcDbLine
 10
8.4428
 20
9.4906
 30
0.0
 11
8.3208
 21
9.5908
 31
0.0
  0
LINE
  5
287
100
AcDbEntity
  8
0
100
AcDbLine
 10
8.3208
 20
9.5908
 30
0.0
 11
8.2206
 21
9.7128
 31
0.0
  0
LINE
  5
288
100
AcDbEntity
  8
0
100
AcDbLine
 10
8.2206
 20
9.7128
 30
0.0
 11
8.1463
 21
9.8519
 31
0.0
  0
LINE
  5
289
100
AcDbEntity
  8
0
100
AcDbLine
 10
8.1463
 20
9.8519
 30
0.0
 11
8.1004
 21
10.0029
 31
0.0
  0
LINE
  5
28A
100
AcDbEntity
  8
0
100
AcDbLine
 10
8.1004
 20
10.0029
 30
0.0
 11
8.085
 21
10.16
 31
0.0
  0
LINE
  5
28B
100
AcDbEntity
  8
0
100
AcDbLine
 10
8.085
 20
10.16
 30
0.0
 11
8.1004
 21
10.3171
 31
0.0
  0
LINE
  5
28C
100
AcDbEntity
  8
0
100
AcDbLine
 10
8.1004
 20
10.3171
 30
0.0
 11
8.1463
 21
10.4681
 31
0.0
  0
LINE
  5
28D
100
AcDbEntity
  8
0
100
AcDbLine
 10
8.1463
 20
10.4681
 30
0.0
 11
8.2206
 21
10.6072
 31
0.0
  0
LINE
  5
28E
100
AcDbEntity
  8
0
100
AcDbLine
 10
8.2206
 20
10.6072
 30
0.0
 11
8.3208
 21
10.7292
 31
0.0
  0
LINE
  5
28F
100
AcDbEntity
  8
0
100
AcDbLine
 10
8.3208
 20
10.7292
 30
0.0
 11
8.4428
 21
10.8294
 31
0.0
  0
LINE
  5
290
100
AcDbEntity
  8
0
100
AcDbLine
 10
8.4428
 20
10.8294
 30
0.0
 11
8.5819
 21
10.9037
 31
0.0
  0
LINE
  5
291
100
AcDbEntity
  8
0
100
AcDbLine
 10
8.5819
 20
10.9037
 30
0.0
 11
8.7329
 21
10.9496
 31
0.0
  0
LINE
  5
292
100
AcDbEntity
  8
0
100
AcDbLine
 10
8.7329
 20
10.9496
 30
0.0
 11
8.8898
 21
10.965
 31
0.0
  0
LINE
  5
293
100
AcDbEntity
  8
0
100
AcDbLine
 10
8.8898
 20
10.965
 30
0.0
 11
11.295
 21
10.965
 31
0.0
  0
LINE
  5
294
100
AcDbEntity
  8
0
100
AcDbLine
 10
11.295
 20
13.505
 30
0.0
 11
11.295
 21
11.895
 31
0.0
  0
LINE
  5
295
100
AcDbEntity
  8
0
100
AcDbLine
 10
11.295
 20
11.895
 30
0.0
 11
8.8898
 21
11.895
 31
0.0
  0
LINE
  5
296
100
AcDbEntity
  8
0
100
AcDbLine
 10
8.8898
 20
11.895
 30
0.0
 11
8.7329
 21
11.9104
 31
0.0
  0
LINE
  5
297
100
AcDbEntity
  8
0
100
AcDbLine
 10
8.7329
 20
11.9104
 30
0.0
 11
8.5819
 21
11.9563
 31
0.0
  0
LINE
  5
298
100
AcDbEntity
  8
0
100
AcDbLine
 10
8.5819
 20
11.9563
 30
0.0
 11
8.4428
 21
12.0306
 31
0.0
  0
LINE
  5
299
100
AcDbEntity
  8
0
100
AcDbLine
 10
8.4428
 20
12.0306
 30
0.0
 11
8.3208
 21
12.1308
 31
0.0
  0
LINE
  5
29A
100
AcDbEntity
  8
0
100
AcDbLine
 10
8.3208
 20
12.1308
 30
0.0
 11
8.2206
 21
12.2528
 31
0.0
  0
LINE
  5
29B
100
AcDbEntity
  8
0
100
AcDbLine
 10
8.2206
 20
12.2528
 30
0.0
 11
8.1463
 21
12.3919
 31
0.0
  0
LINE
  5
29C
100
AcDbEntity
  8
0
100
AcDbLine
 10
8.1463
 20
12.3919
 30
0.0
 11
8.1004
 21
12.5429
 31
0.0
  0
LINE
  5
29D
100
AcDbEntity
  8
0
100
AcDbLine
 10
8.1004
 20
12.5429
 30
0.0
 11
8.085
 21
12.7
 31
0.0
  0
LINE
  5
29E
100
AcDbEntity
  8
0
100
AcDbLine
 10
8.085
 20
12.7
 30
0.0
 11
8.1004
 21
12.8571
 31
0.0
  0
LINE
  5
29F
100
AcDbEntity
  8
0
100
AcDbLine
 10
8.1004
 20
12.8571
 30
0.0
 11
8.1463
 21
13.0081
 31
0.0
  0
LINE
  5
2A0
100
AcDbEntity
  8
0
100
AcDbLine
 10
8.1463
 20
13.0081
 30
0.0
 11
8.2206
 21
13.1472
 31
0.0
  0
LINE
  5
2A1
100
AcDbEntity
  8
0
100
AcDbLine
 10
8.2206
 20
13.1472
 30
0.0
 11
8.3208
 21
13.2692
 31
0.0
  0
LINE
  5
2A2
100
AcDbEntity
  8
0
100
AcDbLine
 10
8.3208
 20
13.2692
 30
0.0
 11
8.4428
 21
13.3694
 31
0.0
  0
LINE
  5
2A3
100
AcDbEntity
  8
0
100
AcDbLine
 10
8.4428
 20
13.3694
 30
0.0
 11
8.5819
 21
13.4437
 31
0.0
  0
LINE
  5
2A4
100
AcDbEntity
  8
0
100
AcDbLine
 10
8.5819
 20
13.4437
 30
0.0
 11
8.7329
 21
13.4896
 31
0.0
  0
LINE
  5
2A5
100
AcDbEntity
  8
0
100
AcDbLine
 10
8.7329
 20
13.4896
 30
0.0
 11
8.8898
 21
13.505
 31
0.0
  0
LINE
  5
2A6
100
AcDbEntity
  8
0
100
AcDbLine
 10
8.8898
 20
13.505
 30
0.0
 11
11.295
 21
13.505
 31
0.0
  0
LINE
  5
2A7
100
AcDbEntity
  8
0
100
AcDbLine
 10
11.295
 20
16.045
 30
0.0
 11
11.295
 21
14.435
 31
0.0
  0
LINE
  5
2A8
100
AcDbEntity
  8
0
100
AcDbLine
 10
11.295
 20
14.435
 30
0.0
 11
8.8898
 21
14.435
 31
0.0
  0
LINE
  5
2A9
100
AcDbEntity
  8
0
100
AcDbLine
 10
8.8898
 20
14.435
 30
0.0
 11
8.7329
 21
14.4504
 31
0.0
  0
LINE
  5
2AA
100
AcDbEntity
  8
0
100
AcDbLine
 10
8.7329
 20
14.4504
 30
0.0
 11
8.5819
 21
14.4963
 31
0.0
  0
LINE
  5
2AB
100
AcDbEntity
  8
0
100
AcDbLine
 10
8.5819
 20
14.4963
 30
0.0
 11
8.4428
 21
14.5706
 31
0.0
  0
LINE
  5
2AC
100
AcDbEntity
  8
0
100
AcDbLine
 10
8.4428
 20
14.5706
 30
0.0
 11
8.3208
 21
14.6708
 31
0.0
  0
LINE
  5
2AD
100
AcDbEntity
  8
0
100
AcDbLine
 10
8.3208
 20
14.6708
 30
0.0
 11
8.2206
 21
14.7928
 31
0.0
  0
LINE
  5
2AE
100
AcDbEntity
  8
0
100
AcDbLine
 10
8.2206
 20
14.7928
 30
0.0
 11
8.1463
 21
14.9319
 31
0.0
  0
LINE
  5
2AF
100
AcDbEntity
  8
0
100
AcDbLine
 10
8.1463
 20
14.9319
 30
0.0
 11
8.1004
 21
15.0829
 31
0.0
  0
LINE
  5
2B0
100
AcDbEntity
  8
0
100
AcDbLine
 10
8.1004
 20
15.0829
 30
0.0
 11
8.085
 21
15.24
 31
0.0
  0
LINE
  5
2B1
100
AcDbEntity
  8
0
100
AcDbLine
 10
8.085
 20
15.24
 30
0.0
 11
8.1004
 21
15.3971
 31
0.0
  0
LINE
  5
2B2
100
AcDbEntity
  8
0
100
AcDbLine
 10
8.1004
 20
15.3971
 30
0.0
 11
8.1463
 21
15.5481
 31
0.0
  0
LINE
  5
2B3
100
AcDbEntity
  8
0
100
AcDbLine
 10
8.1463
 20
15.5481
 30
0.0
 11
8.2206
 21
15.6872
 31
0.0
  0
LINE
  5
2B4
100
AcDbEntity
  8
0
100
AcDbLine
 10
8.2206
 20
15.6872
 30
0.0
 11
8.3208
 21
15.8092
 31
0.0
  0
LINE
  5
2B5
100
AcDbEntity
  8
0
100
AcDbLine
 10
8.3208
 20
15.8092
 30
0.0
 11
8.4428
 21
15.9094
 31
0.0
  0
LINE
  5
2B6
100
AcDbEntity
  8
0
100
AcDbLine
 10
8.4428
 20
15.9094
 30
0.0
 11
8.5819
 21
15.9837
 31
0.0
  0
LINE
  5
2B7
100
AcDbEntity
  8
0
100
AcDbLine
 10
8.5819
 20
15.9837
 30
0.0
 11
8.7329
 21
16.0296
 31
0.0
  0
LINE
  5
2B8
100
AcDbEntity
  8
0
100
AcDbLine
 10
8.7329
 20
16.0296
 30
0.0
 11
8.8898
 21
16.045
 31
0.0
  0
LINE
  5
2B9
100
AcDbEntity
  8
0
100
AcDbLine
 10
8.8898
 20
16.045
 30
0.0
 11
11.295
 21
16.045
 31
0.0
  0
LINE
  5
2BA
100
AcDbEntity
  8
0
100
AcDbLine
 10
11.295
 20
21.125
 30
0.0
 11
11.295
 21
19.515
 31
0.0
  0
LINE
  5
2BB
100
AcDbEntity
  8
0
100
AcDbLine
 10
11.295
 20
19.515
 30
0.0
 11
8.8898
 21
19.515
 31
0.0
  0
LINE
  5
2BC
100
AcDbEntity
  8
0
100
AcDbLine
 10
8.8898
 20
19.515
 30
0.0
 11
8.7329
 21
19.5304
 31
0.0
  0
LINE
  5
2BD
100
AcDbEntity
  8
0
100
AcDbLine
 10
8.7329
 20
19.5304
 30
0.0
 11
8.5819
 21
19.5763
 31
0.0
  0
LINE
  5
2BE
100
AcDbEntity
  8
0
100
AcDbLine
 10
8.5819
 20
19.5763
 30
0.0
 11
8.4428
 21
19.6506
 31
0.0
  0
LINE
  5
2BF
100
AcDbEntity
  8
0
100
AcDbLine
 10
8.4428
 20
19.6506
 30
0.0
 11
8.3208
 21
19.7508
 31
0.0
  0
LINE
  5
2C0
100
AcDbEntity
  8
0
100
AcDbLine
 10
8.3208
 20
19.7508
 30
0.0
 11
8.2206
 21
19.8728
 31
0.0
  0
LINE
  5
2C1
100
AcDbEntity
  8
0
100
AcDbLine
 10
8.2206
 20
19.8728
 30
0.0
 11
8.1463
 21
20.0119
 31
0.0
  0
LINE
  5
2C2
100
AcDbEntity
  8
0
100
AcDbLine
 10
8.1463
 20
20.0119
 30
0.0
 11
8.1004
 21
20.1629
 31
0.0
  0
LINE
  5
2C3
100
AcDbEntity
  8
0
100
AcDbLine
 10
8.1004
 20
20.1629
 30
0.0
 11
8.085
 21
20.32
 31
0.0
  0
LINE
  5
2C4
100
AcDbEntity
  8
0
100
AcDbLine
 10
8.085
 20
20.32
 30
0.0
 11
8.1004
 21
20.4771
 31
0.0
  0
LINE
  5
2C5
100
AcDbEntity
  8
0
100
AcDbLine
 10
8.1004
 20
20.4771
 30
0.0
 11
8.1463
 21
20.6281
 31
0.0
  0
LINE
  5
2C6
100
AcDbEntity
  8
0
100
AcDbLine
 10
8.1463
 20
20.6281
 30
0.0
 11
8.2206
 21
20.7672
 31
0.0
  0
LINE
  5
2C7
100
AcDbEntity
  8
0
100
AcDbLine
 10
8.2206
 20
20.7672
 30
0.0
 11
8.3208
 21
20.8892
 31
0.0
  0
LINE
  5
2C8
100
AcDbEntity
  8
0
100
AcDbLine
 10
8.3208
 20
20.8892
 30
0.0
 11
8.4428
 21
20.9894
 31
0.0
  0
LINE
  5
2C9
100
AcDbEntity
  8
0
100
AcDbLine
 10
8.4428
 20
20.9894
 30
0.0
 11
8.5819
 21
21.0637
 31
0.0
  0
LINE
  5
2CA
100
AcDbEntity
  8
0
100
AcDbLine
 10
8.5819
 20
21.0637
 30
0.0
 11
8.7329
 21
21.1096
 31
0.0
  0
LINE
  5
2CB
100
AcDbEntity
  8
0
100
AcDbLine
 10
8.7329
 20
21.1096
 30
0.0
 11
8.8898
 21
21.125
 31
0.0
  0
LINE
  5
2CC
100
AcDbEntity
  8
0
100
AcDbLine
 10
8.8898
 20
21.125
 30
0.0
 11
11.295
 21
21.125
 31
0.0
  0
LINE
  5
2CD
100
AcDbEntity
  8
0
100
AcDbLine
 10
11.295
 20
23.665
 30
0.0
 11
11.295
 21
22.055
 31
0.0
  0
LINE
  5
2CE
100
AcDbEntity
  8
0
100
AcDbLine
 10
11.295
 20
22.055
 30
0.0
 11
8.8898
 21
22.055
 31
0.0
  0
LINE
  5
2CF
100
AcDbEntity
  8
0
100
AcDbLine
 10
8.8898
 20
22.055
 30
0.0
 11
8.7329
 21
22.0704
 31
0.0
  0
LINE
  5
2D0
100
AcDbEntity
  8
0
100
AcDbLine
 10
8.7329
 20
22.0704
 30
0.0
 11
8.5819
 21
22.1163
 31
0.0
  0
LINE
  5
2D1
100
AcDbEntity
  8
0
100
AcDbLine
 10
8.5819
 20
22.1163
 30
0.0
 11
8.4428
 21
22.1906
 31
0.0
  0
LINE
  5
2D2
100
AcDbEntity
  8
0
100
AcDbLine
 10
8.4428
 20
22.1906
 30
0.0
 11
8.3208
 21
22.2908
 31
0.0
  0
LINE
  5
2D3
100
AcDbEntity
  8
0
100
AcDbLine
 10
8.3208
 20
22.2908
 30
0.0
 11
8.2206
 21
22.4128
 31
0.0
  0
LINE
  5
2D4
100
AcDbEntity
  8
0
100
AcDbLine
 10
8.2206
 20
22.4128
 30
0.0
 11
8.1463
 21
22.5519
 31
0.0
  0
LINE
  5
2D5
100
AcDbEntity
  8
0
100
AcDbLine
 10
8.1463
 20
22.5519
 30
0.0
 11
8.1004
 21
22.7029
 31
0.0
  0
LINE
  5
2D6
100
AcDbEntity
  8
0
100
AcDbLine
 10
8.1004
 20
22.7029
 30
0.0
 11
8.085
 21
22.86
 31
0.0
  0
LINE
  5
2D7
100
AcDbEntity
  8
0
100
AcDbLine
 10
8.085
 20
22.86
 30
0.0
 11
8.1004
 21
23.0171
 31
0.0
  0
LINE
  5
2D8
100
AcDbEntity
  8
0
100
AcDbLine
 10
8.1004
 20
23.0171
 30
0.0
 11
8.1463
 21
23.1681
 31
0.0
  0
LINE
  5
2D9
100
AcDbEntity
  8
0
100
AcDbLine
 10
8.1463
 20
23.1681
 30
0.0
 11
8.2206
 21
23.3072
 31
0.0
  0
LINE
  5
2DA
100
AcDbEntity
  8
0
100
AcDbLine
 10
8.2206
 20
23.3072
 30
0.0
 11
8.3208
 21
23.4292
 31
0.0
  0
LINE
  5
2DB
100
AcDbEntity
  8
0
100
AcDbLine
 10
8.3208
 20
23.4292
 30
0.0
 11
8.4428
 21
23.5294
 31
0.0
  0
LINE
  5
2DC
100
AcDbEntity
  8
0
100
AcDbLine
 10
8.4428
 20
23.5294
 30
0.0
 11
8.5819
 21
23.6037
 31
0.0
  0
LINE
  5
2DD
100
AcDbEntity
  8
0
100
AcDbLine
 10
8.5819
 20
23.6037
 30
0.0
 11
8.7329
 21
23.6496
 31
0.0
  0
LINE
  5
2DE
100
AcDbEntity
  8
0
100
AcDbLine
 10
8.7329
 20
23.6496
 30
0.0
 11
8.8898
 21
23.665
 31
0.0
  0
LINE
  5
2DF
100
AcDbEntity
  8
0
100
AcDbLine
 10
8.8898
 20
23.665
 30
0.0
 11
11.295
 21
23.665
 31
0.0
  0
LINE
  5
2E0
100
AcDbEntity
  8
0
100
AcDbLine
 10
11.295
 20
26.205
 30
0.0
 11
11.295
 21
24.595
 31
0.0
  0
LINE
  5
2E1
100
AcDbEntity
  8
0
100
AcDbLine
 10
11.295
 20
24.595
 30
0.0
 11
8.8898
 21
24.595
 31
0.0
  0
LINE
  5
2E2
100
AcDbEntity
  8
0
100
AcDbLine
 10
8.8898
 20
24.595
 30
0.0
 11
8.7329
 21
24.6104
 31
0.0
  0
LINE
  5
2E3
100
AcDbEntity
  8
0
100
AcDbLine
 10
8.7329
 20
24.6104
 30
0.0
 11
8.5819
 21
24.6563
 31
0.0
  0
LINE
  5
2E4
100
AcDbEntity
  8
0
100
AcDbLine
 10
8.5819
 20
24.6563
 30
0.0
 11
8.4428
 21
24.7306
 31
0.0
  0
LINE
  5
2E5
100
AcDbEntity
  8
0
100
AcDbLine
 10
8.4428
 20
24.7306
 30
0.0
 11
8.3208
 21
24.8308
 31
0.0
  0
LINE
  5
2E6
100
AcDbEntity
  8
0
100
AcDbLine
 10
8.3208
 20
24.8308
 30
0.0
 11
8.2206
 21
24.9528
 31
0.0
  0
LINE
  5
2E7
100
AcDbEntity
  8
0
100
AcDbLine
 10
8.2206
 20
24.9528
 30
0.0
 11
8.1463
 21
25.0919
 31
0.0
  0
LINE
  5
2E8
100
AcDbEntity
  8
0
100
AcDbLine
 10
8.1463
 20
25.0919
 30
0.0
 11
8.1004
 21
25.2429
 31
0.0
  0
LINE
  5
2E9
100
AcDbEntity
  8
0
100
AcDbLine
 10
8.1004
 20
25.2429
 30
0.0
 11
8.085
 21
25.4
 31
0.0
  0
LINE
  5
2EA
100
AcDbEntity
  8
0
100
AcDbLine
 10
8.085
 20
25.4
 30
0.0
 11
8.1004
 21
25.5571
 31
0.0
  0
LINE
  5
2EB
100
AcDbEntity
  8
0
100
AcDbLine
 10
8.1004
 20
25.5571
 30
0.0
 11
8.1463
 21
25.7081
 31
0.0
  0
LINE
  5
2EC
100
AcDbEntity
  8
0
100
AcDbLine
 10
8.1463
 20
25.7081
 30
0.0
 11
8.2206
 21
25.8472
 31
0.0
  0
LINE
  5
2ED
100
AcDbEntity
  8
0
100
AcDbLine
 10
8.2206
 20
25.8472
 30
0.0
 11
8.3208
 21
25.9692
 31
0.0
  0
LINE
  5
2EE
100
AcDbEntity
  8
0
100
AcDbLine
 10
8.3208
 20
25.9692
 30
0.0
 11
8.4428
 21
26.0694
 31
0.0
  0
LINE
  5
2EF
100
AcDbEntity
  8
0
100
AcDbLine
 10
8.4428
 20
26.0694
 30
0.0
 11
8.5819
 21
26.1437
 31
0.0
  0
LINE
  5
2F0
100
AcDbEntity
  8
0
100
AcDbLine
 10
8.5819
 20
26.1437
 30
0.0
 11
8.7329
 21
26.1896
 31
0.0
  0
LINE
  5
2F1
100
AcDbEntity
  8
0
100
AcDbLine
 10
8.7329
 20
26.1896
 30
0.0
 11
8.8898
 21
26.205
 31
0.0
  0
LINE
  5
2F2
100
AcDbEntity
  8
0
100
AcDbLine
 10
8.8898
 20
26.205
 30
0.0
 11
11.295
 21
26.205
 31
0.0
  0
LINE
  5
2F3
100
AcDbEntity
  8
0
100
AcDbLine
 10
11.295
 20
28.745
 30
0.0
 11
11.295
 21
27.135
 31
0.0
  0
LINE
  5
2F4
100
AcDbEntity
  8
0
100
AcDbLine
 10
11.295
 20
27.135
 30
0.0
 11
8.8898
 21
27.135
 31
0.0
  0
LINE
  5
2F5
100
AcDbEntity
  8
0
100
AcDbLine
 10
8.8898
 20
27.135
 30
0.0
 11
8.7329
 21
27.1504
 31
0.0
  0
LINE
  5
2F6
100
AcDbEntity
  8
0
100
AcDbLine
 10
8.7329
 20
27.1504
 30
0.0
 11
8.5819
 21
27.1963
 31
0.0
  0
LINE
  5
2F7
100
AcDbEntity
  8
0
100
AcDbLine
 10
8.5819
 20
27.1963
 30
0.0
 11
8.4428
 21
27.2706
 31
0.0
  0
LINE
  5
2F8
100
AcDbEntity
  8
0
100
AcDbLine
 10
8.4428
 20
27.2706
 30
0.0
 11
8.3208
 21
27.3708
 31
0.0
  0
LINE
  5
2F9
100
AcDbEntity
  8
0
100
AcDbLine
 10
8.3208
 20
27.3708
 30
0.0
 11
8.2206
 21
27.4928
 31
0.0
  0
LINE
  5
2FA
100
AcDbEntity
  8
0
100
AcDbLine
 10
8.2206
 20
27.4928
 30
0.0
 11
8.1463
 21
27.6319
 31
0.0
  0
LINE
  5
2FB
100
AcDbEntity
  8
0
100
AcDbLine
 10
8.1463
 20
27.6319
 30
0.0
 11
8.1004
 21
27.7829
 31
0.0
  0
LINE
  5
2FC
100
AcDbEntity
  8
0
100
AcDbLine
 10
8.1004
 20
27.7829
 30
0.0
 11
8.085
 21
27.94
 31
0.0
  0
LINE
  5
2FD
100
AcDbEntity
  8
0
100
AcDbLine
 10
8.085
 20
27.94
 30
0.0
 11
8.1004
 21
28.0971
 31
0.0
  0
LINE
  5
2FE
100
AcDbEntity
  8
0
100
AcDbLine
 10
8.1004
 20
28.0971
 30
0.0
 11
8.1463
 21
28.2481
 31
0.0
  0
LINE
  5
2FF
100
AcDbEntity
  8
0
100
AcDbLine
 10
8.1463
 20
28.2481
 30
0.0
 11
8.2206
 21
28.3872
 31
0.0
  0
LINE
  5
300
100
AcDbEntity
  8
0
100
AcDbLine
 10
8.2206
 20
28.3872
 30
0.0
 11
8.3208
 21
28.5092
 31
0.0
  0
LINE
  5
301
100
AcDbEntity
  8
0
100
AcDbLine
 10
8.3208
 20
28.5092
 30
0.0
 11
8.4428
 21
28.6094
 31
0.0
  0
LINE
  5
302
100
AcDbEntity
  8
0
100
AcDbLine
 10
8.4428
 20
28.6094
 30
0.0
 11
8.5819
 21
28.6837
 31
0.0
  0
LINE
  5
303
100
AcDbEntity
  8
0
100
AcDbLine
 10
8.5819
 20
28.6837
 30
0.0
 11
8.7329
 21
28.7296
 31
0.0
  0
LINE
  5
304
100
AcDbEntity
  8
0
100
AcDbLine
 10
8.7329
 20
28.7296
 30
0.0
 11
8.8898
 21
28.745
 31
0.0
  0
LINE
  5
305
100
AcDbEntity
  8
0
100
AcDbLine
 10
8.8898
 20
28.745
 30
0.0
 11
11.295
 21
28.745
 31
0.0
  0
LINE
  5
306
100
AcDbEntity
  8
0
100
AcDbLine
 10
11.295
 20
33.825
 30
0.0
 11
11.295
 21
32.215
 31
0.0
  0
LINE
  5
307
100
AcDbEntity
  8
0
100
AcDbLine
 10
11.295
 20
32.215
 30
0.0
 11
8.8898
 21
32.215
 31
0.0
  0
LINE
  5
308
100
AcDbEntity
  8
0
100
AcDbLine
 10
8.8898
 20
32.215
 30
0.0
 11
8.7329
 21
32.2304
 31
0.0
  0
LINE
  5
309
100
AcDbEntity
  8
0
100
AcDbLine
 10
8.7329
 20
32.2304
 30
0.0
 11
8.5819
 21
32.2763
 31
0.0
  0
LINE
  5
30A
100
AcDbEntity
  8
0
100
AcDbLine
 10
8.5819
 20
32.2763
 30
0.0
 11
8.4428
 21
32.3506
 31
0.0
  0
LINE
  5
30B
100
AcDbEntity
  8
0
100
AcDbLine
 10
8.4428
 20
32.3506
 30
0.0
 11
8.3208
 21
32.4508
 31
0.0
  0
LINE
  5
30C
100
AcDbEntity
  8
0
100
AcDbLine
 10
8.3208
 20
32.4508
 30
0.0
 11
8.2206
 21
32.5728
 31
0.0
  0
LINE
  5
30D
100
AcDbEntity
  8
0
100
AcDbLine
 10
8.2206
 20
32.5728
 30
0.0
 11
8.1463
 21
32.7119
 31
0.0
  0
LINE
  5
30E
100
AcDbEntity
  8
0
100
AcDbLine
 10
8.1463
 20
32.7119
 30
0.0
 11
8.1004
 21
32.8629
 31
0.0
  0
LINE
  5
30F
100
AcDbEntity
  8
0
100
AcDbLine
 10
8.1004
 20
32.8629
 30
0.0
 11
8.085
 21
33.02
 31
0.0
  0
LINE
  5
310
100
AcDbEntity
  8
0
100
AcDbLine
 10
8.085
 20
33.02
 30
0.0
 11
8.1004
 21
33.1771
 31
0.0
  0
LINE
  5
311
100
AcDbEntity
  8
0
100
AcDbLine
 10
8.1004
 20
33.1771
 30
0.0
 11
8.1463
 21
33.3281
 31
0.0
  0
LINE
  5
312
100
AcDbEntity
  8
0
100
AcDbLine
 10
8.1463
 20
33.3281
 30
0.0
 11
8.2206
 21
33.4672
 31
0.0
  0
LINE
  5
313
100
AcDbEntity
  8
0
100
AcDbLine
 10
8.2206
 20
33.4672
 30
0.0
 11
8.3208
 21
33.5892
 31
0.0
  0
LINE
  5
314
100
AcDbEntity
  8
0
100
AcDbLine
 10
8.3208
 20
33.5892
 30
0.0
 11
8.4428
 21
33.6894
 31
0.0
  0
LINE
  5
315
100
AcDbEntity
  8
0
100
AcDbLine
 10
8.4428
 20
33.6894
 30
0.0
 11
8.5819
 21
33.7637
 31
0.0
  0
LINE
  5
316
100
AcDbEntity
  8
0
100
AcDbLine
 10
8.5819
 20
33.7637
 30
0.0
 11
8.7329
 21
33.8096
 31
0.0
  0
LINE
  5
317
100
AcDbEntity
  8
0
100
AcDbLine
 10
8.7329
 20
33.8096
 30
0.0
 11
8.8898
 21
33.825
 31
0.0
  0
LINE
  5
318
100
AcDbEntity
  8
0
100
AcDbLine
 10
8.8898
 20
33.825
 30
0.0
 11
11.295
 21
33.825
 31
0.0
  0
LINE
  5
319
100
AcDbEntity
  8
0
100
AcDbLine
 10
11.295
 20
36.365
 30
0.0
 11
11.295
 21
34.755
 31
0.0
  0
LINE
  5
31A
100
AcDbEntity
  8
0
100
AcDbLine
 10
11.295
 20
34.755
 30
0.0
 11
8.8898
 21
34.755
 31
0.0
  0
LINE
  5
31B
100
AcDbEntity
  8
0
100
AcDbLine
 10
8.8898
 20
34.755
 30
0.0
 11
8.7329
 21
34.7704
 31
0.0
  0
LINE
  5
31C
100
AcDbEntity
  8
0
100
AcDbLine
 10
8.7329
 20
34.7704
 30
0.0
 11
8.5819
 21
34.8163
 31
0.0
  0
LINE
  5
31D
100
AcDbEntity
  8
0
100
AcDbLine
 10
8.5819
 20
34.8163
 30
0.0
 11
8.4428
 21
34.8906
 31
0.0
  0
LINE
  5
31E
100
AcDbEntity
  8
0
100
AcDbLine
 10
8.4428
 20
34.8906
 30
0.0
 11
8.3208
 21
34.9908
 31
0.0
  0
LINE
  5
31F
100
AcDbEntity
  8
0
100
AcDbLine
 10
8.3208
 20
34.9908
 30
0.0
 11
8.2206
 21
35.1128
 31
0.0
  0
LINE
  5
320
100
AcDbEntity
  8
0
100
AcDbLine
 10
8.2206
 20
35.1128
 30
0.0
 11
8.1463
 21
35.2519
 31
0.0
  0
LINE
  5
321
100
AcDbEntity
  8
0
100
AcDbLine
 10
8.1463
 20
35.2519
 30
0.0
 11
8.1004
 21
35.4029
 31
0.0
  0
LINE
  5
322
100
AcDbEntity
  8
0
100
AcDbLine
 10
8.1004
 20
35.4029
 30
0.0
 11
8.085
 21
35.56
 31
0.0
  0
LINE
  5
323
100
AcDbEntity
  8
0
100
AcDbLine
 10
8.085
 20
35.56
 30
0.0
 11
8.1004
 21
35.7171
 31
0.0
  0
LINE
  5
324
100
AcDbEntity
  8
0
100
AcDbLine
 10
8.1004
 20
35.7171
 30
0.0
 11
8.1463
 21
35.8681
 31
0.0
  0
LINE
  5
325
100
AcDbEntity
  8
0
100
AcDbLine
 10
8.1463
 20
35.8681
 30
0.0
 11
8.2206
 21
36.0072
 31
0.0
  0
LINE
  5
326
100
AcDbEntity
  8
0
100
AcDbLine
 10
8.2206
 20
36.0072
 30
0.0
 11
8.3208
 21
36.1292
 31
0.0
  0
LINE
  5
327
100
AcDbEntity
  8
0
100
AcDbLine
 10
8.3208
 20
36.1292
 30
0.0
 11
8.4428
 21
36.2294
 31
0.0
  0
LINE
  5
328
100
AcDbEntity
  8
0
100
AcDbLine
 10
8.4428
 20
36.2294
 30
0.0
 11
8.5819
 21
36.3037
 31
0.0
  0
LINE
  5
329
100
AcDbEntity
  8
0
100
AcDbLine
 10
8.5819
 20
36.3037
 30
0.0
 11
8.7329
 21
36.3496
 31
0.0
  0
LINE
  5
32A
100
AcDbEntity
  8
0
100
AcDbLine
 10
8.7329
 20
36.3496
 30
0.0
 11
8.8898
 21
36.365
 31
0.0
  0
LINE
  5
32B
100
AcDbEntity
  8
0
100
AcDbLine
 10
8.8898
 20
36.365
 30
0.0
 11
11.295
 21
36.365
 31
0.0
  0
LINE
  5
32C
100
AcDbEntity
  8
0
100
AcDbLine
 10
-0.55
 20
34.98
 30
0.0
 11
-1.45
 21
34.98
 31
0.0
  0
LINE
  5
32D
100
AcDbEntity
  8
0
100
AcDbLine
 10
-0.55
 20
35.58
 30
0.0
 11
-1.45
 21
35.58
 31
0.0
  0
ARC
  5
32E
100
AcDbEntity
  8
0
100
AcDbArc
 10
-1.45
 20
35.28
 30
0.0
 40
0.3
 50
90.0
 51
0.0
  0
LINE
  5
32F
100
AcDbEntity
  8
0
100
AcDbLine
 10
-1.75
 20
35.28
 30
0.0
 11
-1.75
 21
36.18
 31
0.0
  0
LINE
  5
330
100
AcDbEntity
  8
0
100
AcDbLine
 10
-1.15
 20
35.28
 30
0.0
 11
-1.15
 21
36.18
 31
0.0
  0
ARC
  5
331
100
AcDbEntity
  8
0
100
AcDbArc
 10
-1.45
 20
36.18
 30
0.0
 40
0.3
 50
90.0
 51
180.0
  0
LINE
  5
332
100
AcDbEntity
  8
0
100
AcDbLine
 10
-1.45
 20
36.48
 30
0.0
 11
-0.55
 21
36.48
 31
0.0
  0
LINE
  5
333
100
AcDbEntity
  8
0
100
AcDbLine
 10
-1.45
 20
35.88
 30
0.0
 11
-0.55
 21
35.88
 31
0.0
  0
ARC
  5
334
100
AcDbEntity
  8
0
100
AcDbArc
 10
-0.55
 20
36.18
 30
0.0
 40
0.3
 50
270.0
 51
180.0
  0
LINE
  5
335
100
AcDbEntity
  8
0
100
AcDbLine
 10
-0.25
 20
36.18
 30
0.0
 11
-0.25
 21
35.28
 31
0.0
  0
LINE
  5
336
100
AcDbEntity
  8
0
100
AcDbLine
 10
-0.85
 20
36.18
 30
0.0
 11
-0.85
 21
35.28
 31
0.0
  0
ARC
  5
337
100
AcDbEntity
  8
0
100
AcDbArc
 10
-0.55
 20
35.28
 30
0.0
 40
0.3
 50
270.0
 51
90.0
  0
ARC
  5
338
100
AcDbEntity
  8
0
100
AcDbArc
 10
-0.55
 20
35.28
 30
0.0
 40
0.3
 50
180.0
 51
0.0
  0
LINE
  5
339
100
AcDbEntity
  8
0
100
AcDbLine
 10
-0.55
 20
35.55
 30
0.0
 11
-1.45
 21
35.55
 31
0.0
  0
LINE
  5
33A
100
AcDbEntity
  8
0
100
AcDbLine
 10
-0.55
 20
36.15
 30
0.0
 11
-1.45
 21
36.15
 31
0.0
  0
ARC
  5
33B
100
AcDbEntity
  8
0
100
AcDbArc
 10
-0.55
 20
35.85
 30
0.0
 40
0.3
 50
270.0
 51
90.0
  0
ARC
  5
33C
100
AcDbEntity
  8
0
100
AcDbArc
 10
-1.45
 20
35.85
 30
0.0
 40
0.3
 50
90.0
 51
270.0
  0
LINE
  5
33D
100
AcDbEntity
  8
0
100
AcDbLine
 10
0.55
 20
35.58
 30
0.0
 11
1.45
 21
35.58
 31
0.0
  0
LINE
  5
33E
100
AcDbEntity
  8
0
100
AcDbLine
 10
0.55
 20
34.98
 30
0.0
 11
1.45
 21
34.98
 31
0.0
  0
ARC
  5
33F
100
AcDbEntity
  8
0
100
AcDbArc
 10
0.55
 20
35.28
 30
0.0
 40
0.3
 50
90.0
 51
270.0
  0
ARC
  5
340
100
AcDbEntity
  8
0
100
AcDbArc
 10
1.45
 20
35.28
 30
0.0
 40
0.3
 50
270.0
 51
90.0
  0
LINE
  5
341
100
AcDbEntity
  8
0
100
AcDbLine
 10
0.25
 20
35.28
 30
0.0
 11
0.25
 21
36.18
 31
0.0
  0
LINE
  5
342
100
AcDbEntity
  8
0
100
AcDbLine
 10
0.85
 20
35.28
 30
0.0
 11
0.85
 21
36.18
 31
0.0
  0
ARC
  5
343
100
AcDbEntity
  8
0
100
AcDbArc
 10
0.55
 20
36.18
 30
0.0
 40
0.3
 50
90.0
 51
180.0
  0
LINE
  5
344
100
AcDbEntity
  8
0
100
AcDbLine
 10
0.55
 20
36.48
 30
0.0
 11
1.45
 21
36.48
 31
0.0
  0
LINE
  5
345
100
AcDbEntity
  8
0
100
AcDbLine
 10
0.55
 20
35.88
 30
0.0
 11
1.45
 21
35.88
 31
0.0
  0
ARC
  5
346
100
AcDbEntity
  8
0
100
AcDbArc
 10
1.45
 20
36.18
 30
0.0
 40
0.3
 50
270.0
 51
180.0
  0
LINE
  5
347
100
AcDbEntity
  8
0
100
AcDbLine
 10
1.75
 20
36.18
 30
0.0
 11
1.75
 21
35.28
 31
0.0
  0
LINE
  5
348
100
AcDbEntity
  8
0
100
AcDbLine
 10
1.15
 20
36.18
 30
0.0
 11
1.15
 21
35.28
 31
0.0
  0
ARC
  5
349
100
AcDbEntity
  8
0
100
AcDbArc
 10
0.55
 20
35.28
 30
0.0
 40
0.3
 50
180.0
 51
0.0
  0
ARC
  5
34A
100
AcDbEntity
  8
0
100
AcDbArc
 10
1.45
 20
35.28
 30
0.0
 40
0.3
 50
180.0
 51
0.0
  0
LINE
  5
34B
100
AcDbEntity
  8
0
100
AcDbLine
 10
1.45
 20
35.55
 30
0.0
 11
0.55
 21
35.55
 31
0.0
  0
LINE
  5
34C
100
AcDbEntity
  8
0
100
AcDbLine
 10
1.45
 20
36.15
 30
0.0
 11
0.55
 21
36.15
 31
0.0
  0
ARC
  5
34D
100
AcDbEntity
  8
0
100
AcDbArc
 10
1.45
 20
35.85
 30
0.0
 40
0.3
 50
270.0
 51
90.0
  0
ARC
  5
34E
100
AcDbEntity
  8
0
100
AcDbArc
 10
0.55
 20
35.85
 30
0.0
 40
0.3
 50
90.0
 51
270.0
  0
LINE
  5
34F
100
AcDbEntity
  8
0
100
AcDbLine
 10
0.45
 20
31.68
 30
0.0
 11
-0.45
 21
31.68
 31
0.0
  0
LINE
  5
350
100
AcDbEntity
  8
0
100
AcDbLine
 10
0.45
 20
32.28
 30
0.0
 11
-0.45
 21
32.28
 31
0.0
  0
ARC
  5
351
100
AcDbEntity
  8
0
100
AcDbArc
 10
-0.45
 20
31.98
 30
0.0
 40
0.3
 50
90.0
 51
0.0
  0
LINE
  5
352
100
AcDbEntity
  8
0
100
AcDbLine
 10
-0.75
 20
31.98
 30
0.0
 11
-0.75
 21
32.88
 31
0.0
  0
LINE
  5
353
100
AcDbEntity
  8
0
100
AcDbLine
 10
-0.15
 20
31.98
 30
0.0
 11
-0.15
 21
32.88
 31
0.0
  0
ARC
  5
354
100
AcDbEntity
  8
0
100
AcDbArc
 10
-0.45
 20
32.88
 30
0.0
 40
0.3
 50
90.0
 51
180.0
  0
LINE
  5
355
100
AcDbEntity
  8
0
100
AcDbLine
 10
-0.45
 20
33.18
 30
0.0
 11
0.45
 21
33.18
 31
0.0
  0
LINE
  5
356
100
AcDbEntity
  8
0
100
AcDbLine
 10
-0.45
 20
32.58
 30
0.0
 11
0.45
 21
32.58
 31
0.0
  0
ARC
  5
357
100
AcDbEntity
  8
0
100
AcDbArc
 10
0.45
 20
32.88
 30
0.0
 40
0.3
 50
270.0
 51
180.0
  0
LINE
  5
358
100
AcDbEntity
  8
0
100
AcDbLine
 10
0.75
 20
32.88
 30
0.0
 11
0.75
 21
31.98
 31
0.0
  0
LINE
  5
359
100
AcDbEntity
  8
0
100
AcDbLine
 10
0.15
 20
32.88
 30
0.0
 11
0.15
 21
31.98
 31
0.0
  0
ARC
  5
35A
100
AcDbEntity
  8
0
100
AcDbArc
 10
0.45
 20
31.98
 30
0.0
 40
0.3
 50
270.0
 51
90.0
  0
ARC
  5
35B
100
AcDbEntity
  8
0
100
AcDbArc
 10
0.45
 20
31.98
 30
0.0
 40
0.3
 50
180.0
 51
0.0
  0
LINE
  5
35C
100
AcDbEntity
  8
0
100
AcDbLine
 10
0.45
 20
32.25
 30
0.0
 11
-0.45
 21
32.25
 31
0.0
  0
LINE
  5
35D
100
AcDbEntity
  8
0
100
AcDbLine
 10
0.45
 20
32.85
 30
0.0
 11
-0.45
 21
32.85
 31
0.0
  0
ARC
  5
35E
100
AcDbEntity
  8
0
100
AcDbArc
 10
0.45
 20
32.55
 30
0.0
 40
0.3
 50
270.0
 51
90.0
  0
ARC
  5
35F
100
AcDbEntity
  8
0
100
AcDbArc
 10
-0.45
 20
32.55
 30
0.0
 40
0.3
 50
90.0
 51
270.0
  0
LINE
  5
360
100
AcDbEntity
  8
0
100
AcDbLine
 10
-2.05
 20
28.18
 30
0.0
 11
-2.95
 21
28.18
 31
0.0
  0
LINE
  5
361
100
AcDbEntity
  8
0
100
AcDbLine
 10
-2.05
 20
28.78
 30
0.0
 11
-2.95
 21
28.78
 31
0.0
  0
ARC
  5
362
100
AcDbEntity
  8
0
100
AcDbArc
 10
-2.95
 20
28.48
 30
0.0
 40
0.3
 50
90.0
 51
0.0
  0
LINE
  5
363
100
AcDbEntity
  8
0
100
AcDbLine
 10
-3.25
 20
28.48
 30
0.0
 11
-3.25
 21
29.38
 31
0.0
  0
LINE
  5
364
100
AcDbEntity
  8
0
100
AcDbLine
 10
-2.65
 20
28.48
 30
0.0
 11
-2.65
 21
29.38
 31
0.0
  0
ARC
  5
365
100
AcDbEntity
  8
0
100
AcDbArc
 10
-2.95
 20
29.38
 30
0.0
 40
0.3
 50
90.0
 51
180.0
  0
LINE
  5
366
100
AcDbEntity
  8
0
100
AcDbLine
 10
-2.95
 20
29.68
 30
0.0
 11
-2.05
 21
29.68
 31
0.0
  0
LINE
  5
367
100
AcDbEntity
  8
0
100
AcDbLine
 10
-2.95
 20
29.08
 30
0.0
 11
-2.05
 21
29.08
 31
0.0
  0
ARC
  5
368
100
AcDbEntity
  8
0
100
AcDbArc
 10
-2.05
 20
29.38
 30
0.0
 40
0.3
 50
270.0
 51
180.0
  0
LINE
  5
369
100
AcDbEntity
  8
0
100
AcDbLine
 10
-1.75
 20
29.38
 30
0.0
 11
-1.75
 21
28.48
 31
0.0
  0
LINE
  5
36A
100
AcDbEntity
  8
0
100
AcDbLine
 10
-2.35
 20
29.38
 30
0.0
 11
-2.35
 21
28.48
 31
0.0
  0
ARC
  5
36B
100
AcDbEntity
  8
0
100
AcDbArc
 10
-2.05
 20
28.48
 30
0.0
 40
0.3
 50
270.0
 51
90.0
  0
ARC
  5
36C
100
AcDbEntity
  8
0
100
AcDbArc
 10
-2.05
 20
28.48
 30
0.0
 40
0.3
 50
180.0
 51
0.0
  0
LINE
  5
36D
100
AcDbEntity
  8
0
100
AcDbLine
 10
-2.05
 20
28.75
 30
0.0
 11
-2.95
 21
28.75
 31
0.0
  0
LINE
  5
36E
100
AcDbEntity
  8
0
100
AcDbLine
 10
-2.05
 20
29.35
 30
0.0
 11
-2.95
 21
29.35
 31
0.0
  0
ARC
  5
36F
100
AcDbEntity
  8
0
100
AcDbArc
 10
-2.05
 20
29.05
 30
0.0
 40
0.3
 50
270.0
 51
90.0
  0
ARC
  5
370
100
AcDbEntity
  8
0
100
AcDbArc
 10
-2.95
 20
29.05
 30
0.0
 40
0.3
 50
90.0
 51
270.0
  0
LINE
  5
371
100
AcDbEntity
  8
0
100
AcDbLine
 10
-2.95
 20
26.28
 30
0.0
 11
-2.05
 21
26.28
 31
0.0
  0
LINE
  5
372
100
AcDbEntity
  8
0
100
AcDbLine
 10
-2.95
 20
25.68
 30
0.0
 11
-2.05
 21
25.68
 31
0.0
  0
ARC
  5
373
100
AcDbEntity
  8
0
100
AcDbArc
 10
-2.95
 20
25.98
 30
0.0
 40
0.3
 50
90.0
 51
270.0
  0
ARC
  5
374
100
AcDbEntity
  8
0
100
AcDbArc
 10
-2.05
 20
25.98
 30
0.0
 40
0.3
 50
270.0
 51
90.0
  0
LINE
  5
375
100
AcDbEntity
  8
0
100
AcDbLine
 10
-3.25
 20
25.98
 30
0.0
 11
-3.25
 21
26.88
 31
0.0
  0
LINE
  5
376
100
AcDbEntity
  8
0
100
AcDbLine
 10
-2.65
 20
25.98
 30
0.0
 11
-2.65
 21
26.88
 31
0.0
  0
ARC
  5
377
100
AcDbEntity
  8
0
100
AcDbArc
 10
-2.95
 20
26.88
 30
0.0
 40
0.3
 50
90.0
 51
180.0
  0
LINE
  5
378
100
AcDbEntity
  8
0
100
AcDbLine
 10
-2.95
 20
27.18
 30
0.0
 11
-2.05
 21
27.18
 31
0.0
  0
LINE
  5
379
100
AcDbEntity
  8
0
100
AcDbLine
 10
-2.95
 20
26.58
 30
0.0
 11
-2.05
 21
26.58
 31
0.0
  0
ARC
  5
37A
100
AcDbEntity
  8
0
100
AcDbArc
 10
-2.05
 20
26.88
 30
0.0
 40
0.3
 50
270.0
 51
180.0
  0
LINE
  5
37B
100
AcDbEntity
  8
0
100
AcDbLine
 10
-1.75
 20
26.88
 30
0.0
 11
-1.75
 21
25.98
 31
0.0
  0
LINE
  5
37C
100
AcDbEntity
  8
0
100
AcDbLine
 10
-2.35
 20
26.88
 30
0.0
 11
-2.35
 21
25.98
 31
0.0
  0
ARC
  5
37D
100
AcDbEntity
  8
0
100
AcDbArc
 10
-2.95
 20
25.98
 30
0.0
 40
0.3
 50
180.0
 51
0.0
  0
ARC
  5
37E
100
AcDbEntity
  8
0
100
AcDbArc
 10
-2.05
 20
25.98
 30
0.0
 40
0.3
 50
180.0
 51
0.0
  0
LINE
  5
37F
100
AcDbEntity
  8
0
100
AcDbLine
 10
-2.05
 20
26.25
 30
0.0
 11
-2.95
 21
26.25
 31
0.0
  0
LINE
  5
380
100
AcDbEntity
  8
0
100
AcDbLine
 10
-2.05
 20
26.85
 30
0.0
 11
-2.95
 21
26.85
 31
0.0
  0
ARC
  5
381
100
AcDbEntity
  8
0
100
AcDbArc
 10
-2.05
 20
26.55
 30
0.0
 40
0.3
 50
270.0
 51
90.0
  0
ARC
  5
382
100
AcDbEntity
  8
0
100
AcDbArc
 10
-2.95
 20
26.55
 30
0.0
 40
0.3
 50
90.0
 51
270.0
  0
LINE
  5
383
100
AcDbEntity
  8
0
100
AcDbLine
 10
-2.95
 20
23.78
 30
0.0
 11
-2.05
 21
23.78
 31
0.0
  0
LINE
  5
384
100
AcDbEntity
  8
0
100
AcDbLine
 10
-2.95
 20
23.18
 30
0.0
 11
-2.05
 21
23.18
 31
0.0
  0
ARC
  5
385
100
AcDbEntity
  8
0
100
AcDbArc
 10
-2.95
 20
23.48
 30
0.0
 40
0.3
 50
90.0
 51
270.0
  0
ARC
  5
386
100
AcDbEntity
  8
0
100
AcDbArc
 10
-2.05
 20
23.48
 30
0.0
 40
0.3
 50
270.0
 51
90.0
  0
LINE
  5
387
100
AcDbEntity
  8
0
100
AcDbLine
 10
-3.25
 20
23.48
 30
0.0
 11
-3.25
 21
24.38
 31
0.0
  0
LINE
  5
388
100
AcDbEntity
  8
0
100
AcDbLine
 10
-2.65
 20
23.48
 30
0.0
 11
-2.65
 21
24.38
 31
0.0
  0
ARC
  5
389
100
AcDbEntity
  8
0
100
AcDbArc
 10
-2.95
 20
24.38
 30
0.0
 40
0.3
 50
90.0
 51
180.0
  0
LINE
  5
38A
100
AcDbEntity
  8
0
100
AcDbLine
 10
-2.95
 20
24.68
 30
0.0
 11
-2.05
 21
24.68
 31
0.0
  0
LINE
  5
38B
100
AcDbEntity
  8
0
100
AcDbLine
 10
-2.95
 20
24.08
 30
0.0
 11
-2.05
 21
24.08
 31
0.0
  0
ARC
  5
38C
100
AcDbEntity
  8
0
100
AcDbArc
 10
-2.05
 20
24.38
 30
0.0
 40
0.3
 50
270.0
 51
180.0
  0
LINE
  5
38D
100
AcDbEntity
  8
0
100
AcDbLine
 10
-1.75
 20
24.38
 30
0.0
 11
-1.75
 21
23.48
 31
0.0
  0
LINE
  5
38E
100
AcDbEntity
  8
0
100
AcDbLine
 10
-2.35
 20
24.38
 30
0.0
 11
-2.35
 21
23.48
 31
0.0
  0
ARC
  5
38F
100
AcDbEntity
  8
0
100
AcDbArc
 10
-2.95
 20
23.48
 30
0.0
 40
0.3
 50
180.0
 51
0.0
  0
ARC
  5
390
100
AcDbEntity
  8
0
100
AcDbArc
 10
-2.05
 20
23.48
 30
0.0
 40
0.3
 50
180.0
 51
0.0
  0
LINE
  5
391
100
AcDbEntity
  8
0
100
AcDbLine
 10
-2.05
 20
23.75
 30
0.0
 11
-2.95
 21
23.75
 31
0.0
  0
LINE
  5
392
100
AcDbEntity
  8
0
100
AcDbLine
 10
-2.05
 20
24.35
 30
0.0
 11
-2.95
 21
24.35
 31
0.0
  0
ARC
  5
393
100
AcDbEntity
  8
0
100
AcDbArc
 10
-2.05
 20
24.05
 30
0.0
 40
0.3
 50
270.0
 51
90.0
  0
ARC
  5
394
100
AcDbEntity
  8
0
100
AcDbArc
 10
-2.95
 20
24.05
 30
0.0
 40
0.3
 50
90.0
 51
270.0
  0
LINE
  5
395
100
AcDbEntity
  8
0
100
AcDbLine
 10
-3.275
 20
35.08
 30
0.0
 11
-3.275
 21
35.78
 31
0.0
  0
LINE
  5
396
100
AcDbEntity
  8
0
100
AcDbLine
 10
-2.175
 20
35.08
 30
0.0
 11
-2.175
 21
35.78
 31
0.0
  0
ARC
  5
397
100
AcDbEntity
  8
0
100
AcDbArc
 10
-2.725
 20
35.08
 30
0.0
 40
0.55
 50
180.0
 51
0.0
  0
ARC
  5
398
100
AcDbEntity
  8
0
100
AcDbArc
 10
-2.725
 20
35.78
 30
0.0
 40
0.55
 50
0.0
 51
180.0
  0
LINE
  5
399
100
AcDbEntity
  8
0
100
AcDbLine
 10
3.275
 20
35.78
 30
0.0
 11
3.275
 21
35.08
 31
0.0
  0
LINE
  5
39A
100
AcDbEntity
  8
0
100
AcDbLine
 10
2.175
 20
35.78
 30
0.0
 11
2.175
 21
35.08
 31
0.0
  0
ARC
  5
39B
100
AcDbEntity
  8
0
100
AcDbArc
 10
2.725
 20
35.78
 30
0.0
 40
0.55
 50
0.0
 51
180.0
  0
ARC
  5
39C
100
AcDbEntity
  8
0
100
AcDbArc
 10
2.725
 20
35.08
 30
0.0
 40
0.55
 50
180.0
 51
0.0
  0
LINE
  5
39D
100
AcDbEntity
  8
0
100
AcDbLine
 10
-1.9
 20
32.6
 30
0.0
 11
-1.9
 21
32.2
 31
0.0
  0
LINE
  5
39E
100
AcDbEntity
  8
0
100
AcDbLine
 10
-2.95
 20
32.6
 30
0.0
 11
-2.95
 21
32.2
 31
0.0
  0
ARC
  5
39F
100
AcDbEntity
  8
0
100
AcDbArc
 10
-2.425
 20
32.6
 30
0.0
 40
0.525
 50
0.0
 51
180.0
  0
ARC
  5
3A0
100
AcDbEntity
  8
0
100
AcDbArc
 10
-2.425
 20
32.2
 30
0.0
 40
0.525
 50
180.0
 51
0.0
  0
LINE
  5
3A1
100
AcDbEntity
  8
0
100
AcDbLine
 10
1.9
 20
32.2
 30
0.0
 11
1.9
 21
32.6
 31
0.0
  0
LINE
  5
3A2
100
AcDbEntity
  8
0
100
AcDbLine
 10
2.95
 20
32.2
 30
0.0
 11
2.95
 21
32.6
 31
0.0
  0
ARC
  5
3A3
100
AcDbEntity
  8
0
100
AcDbArc
 10
2.425
 20
32.2
 30
0.0
 40
0.525
 50
180.0
 51
0.0
  0
ARC
  5
3A4
100
AcDbEntity
  8
0
100
AcDbArc
 10
2.425
 20
32.6
 30
0.0
 40
0.525
 50
0.0
 51
180.0
  0
INSERT
  5
3A5
100
AcDbEntity
  8
0
100
AcDbBlockReference
 66
     0
  2
aperture_id_13
 10
-19.6135
 20
4.355
 30
0.0
210
0.0
220
0.0
230
1.0
  0
SEQEND
  5
0
100
AcDbEntity
  8
0
  0
INSERT
  5
3A6
100
AcDbEntity
  8
0
100
AcDbBlockReference
 66
     0
  2
aperture_id_13
 10
-19.6135
 20
3.105
 30
0.0
210
0.0
220
0.0
230
1.0
  0
SEQEND
  5
0
100
AcDbEntity
  8
0
  0
INSERT
  5
3A7
100
AcDbEntity
  8
0
100
AcDbBlockReference
 66
     0
  2
aperture_id_13
 10
-19.6135
 20
1.855
 30
0.0
210
0.0
220
0.0
230
1.0
  0
SEQEND
  5
0
100
AcDbEntity
  8
0
  0
INSERT
  5
3A8
100
AcDbEntity
  8
0
100
AcDbBlockReference
 66
     0
  2
aperture_id_13
 10
-19.6135
 20
0.605
 30
0.0
210
0.0
220
0.0
230
1.0
  0
SEQEND
  5
0
100
AcDbEntity
  8
0
  0
INSERT
  5
3A9
100
AcDbEntity
  8
0
100
AcDbBlockReference
 66
     0
  2
aperture_id_13
 10
-19.6135
 20
-0.645
 30
0.0
210
0.0
220
0.0
230
1.0
  0
SEQEND
  5
0
100
AcDbEntity
  8
0
  0
INSERT
  5
3AA
100
AcDbEntity
  8
0
100
AcDbBlockReference
 66
     0
  2
aperture_id_13
 10
-19.6135
 20
-1.895
 30
0.0
210
0.0
220
0.0
230
1.0
  0
SEQEND
  5
0
100
AcDbEntity
  8
0
  0
INSERT
  5
3AB
100
AcDbEntity
  8
0
100
AcDbBlockReference
 66
     0
  2
aperture_id_13
 10
-19.6135
 20
-3.145
 30
0.0
210
0.0
220
0.0
230
1.0
  0
SEQEND
  5
0
100
AcDbEntity
  8
0
  0
INSERT
  5
3AC
100
AcDbEntity
  8
0
100
AcDbBlockReference
 66
     0
  2
aperture_id_13
 10
-19.6135
 20
-4.395
 30
0.0
210
0.0
220
0.0
230
1.0
  0
SEQEND
  5
0
100
AcDbEntity
  8
0
  0
INSERT
  5
3AD
100
AcDbEntity
  8
0
100
AcDbBlockReference
 66
     0
  2
aperture_id_13
 10
-19.6135
 20
-5.645
 30
0.0
210
0.0
220
0.0
230
1.0
  0
SEQEND
  5
0
100
AcDbEntity
  8
0
  0
INSERT
  5
3AE
100
AcDbEntity
  8
0
100
AcDbBlockReference
 66
     0
  2
aperture_id_13
 10
-19.6135
 20
-6.895
 30
0.0
210
0.0
220
0.0
230
1.0
  0
SEQEND
  5
0
100
AcDbEntity
  8
0
  0
INSERT
  5
3AF
100
AcDbEntity
  8
0
100
AcDbBlockReference
 66
     0
  2
aperture_id_14
 10
-22.9635
 20
6.205
 30
0.0
210
0.0
220
0.0
230
1.0
  0
SEQEND
  5
0
100
AcDbEntity
  8
0
  0
INSERT
  5
3B0
100
AcDbEntity
  8
0
100
AcDbBlockReference
 66
     0
  2
aperture_id_14
 10
-22.9635
 20
-8.745
 30
0.0
210
0.0
220
0.0
230
1.0
  0
SEQEND
  5
0
100
AcDbEntity
  8
0
  0
LINE
  5
3B1
100
AcDbEntity
  8
0
100
AcDbLine
 10
-25.4
 20
-44.323
 30
0.0
 11
12.7
 21
-44.323
 31
0.0
  0
LINE
  5
3B2
100
AcDbEntity
  8
0
100
AcDbLine
 10
-25.4
 20
-44.577
 30
0.0
 11
12.7
 21
-44.577
 31
0.0
  0
ARC
  5
3B3
100
AcDbEntity
  8
0
100
AcDbArc
 10
12.7
 20
-44.45
 30
0.0
 40
0.127
 50
270.0
 51
0.0
  0
LINE
  5
3B4
100
AcDbEntity
  8
0
100
AcDbLine
 10
12.573
 20
-44.45
 30
0.0
 11
12.573
 21
38.1
 31
0.0
  0
LINE
  5
3B5
100
AcDbEntity
  8
0
100
AcDbLine
 10
12.827
 20
-44.45
 30
0.0
 11
12.827
 21
38.1
 31
0.0
  0
ARC
  5
3B6
100
AcDbEntity
  8
0
100
AcDbArc
 10
12.7
 20
38.1
 30
0.0
 40
0.127
 50
0.0
 51
90.0
  0
LINE
  5
3B7
100
AcDbEntity
  8
0
100
AcDbLine
 10
12.7
 20
37.973
 30
0.0
 11
-25.4
 21
37.973
 31
0.0
  0
LINE
  5
3B8
100
AcDbEntity
  8
0
100
AcDbLine
 10
12.7
 20
38.227
 30
0.0
 11
-25.4
 21
38.227
 31
0.0
  0
ARC
  5
3B9
100
AcDbEntity
  8
0
100
AcDbArc
 10
-25.4
 20
38.1
 30
0.0
 40
0.127
 50
90.0
 51
180.0
  0
LINE
  5
3BA
100
AcDbEntity
  8
0
100
AcDbLine
 10
-25.273
 20
38.1
 30
0.0
 11
-25.273
 21
-44.45
 31
0.0
  0
LINE
  5
3BB
100
AcDbEntity
  8
0
100
AcDbLine
 10
-25.527
 20
38.1
 30
0.0
 11
-25.527
 21
-44.45
 31
0.0
  0
ARC
  5
3BC
100
AcDbEntity
  8
0
100
AcDbArc
 10
-25.4
 20
-44.45
 30
0.0
 40
0.127
 50
90.0
 51
270.0
  0
ARC
  5
3BD
100
AcDbEntity
  8
0
100
AcDbArc
 10
-25.4
 20
-44.45
 30
0.0
 40
0.127
 50
180.0
 51
0.0
  0
ENDSEC
  0
SECTION
  2
OBJECTS
  0
ENDSEC
  0
EOF
